<svg height="780" viewBox="0 0 785 780" width="785" xmlns="http://www.w3.org/2000/svg" xmlns:xlink="http://www.w3.org/1999/xlink"><defs><path id="a" d="m385.65616.03122025c212.60396 0 384.952874 172.50524075 384.952874 385.30204075 0 212.794326-172.348914 385.299567-384.952874 385.299567-212.602725 0-384.95163795-172.505241-384.95163795-385.299567 0-212.7968 172.34891295-385.30204075 384.95163795-385.30204075"/><mask id="b" fill="#fff"><use fill="#fff" fill-rule="evenodd" xlink:href="#a"/></mask><mask id="c" fill="#fff"><path d="m657.858433 113.64613c150.334299 150.469421 150.334299 394.428674 0 544.898095-150.333063 150.469421-394.071236 150.469421-544.404299 0-150.3330631-150.469421-150.3330631-394.428674 0-544.898095 150.333063-150.4706585 394.071236-150.4706585 544.404299 0z" fill="#fff" fill-rule="evenodd"/></mask></defs><g fill="none" fill-rule="evenodd"><path d="m784.529124 393.751145c0 212.796801-172.348914 385.302041-384.952874 385.302041-212.602725 0-384.9516382-172.50524-384.9516382-385.302041s172.3489132-385.30080386 384.9516382-385.30080386c132.87763 0 250.029299 67.38439556 319.208196 169.87465186 41.508575 61.495886 65.744678 135.628744 65.744678 215.426152" fill="#00a39b"/><use fill="#1dd1c9" xlink:href="#a"/><g mask="url(#b)" opacity=".5"><path d="m-207.66971 364.006647 615.39426 615.952446-1.748016 1.749601-615.39426-615.952446zm9.393545-9.402189 615.394259 615.952446-1.748015 1.749601-615.39426-615.952446zm9.393545-9.402065 615.394259 615.952446-1.748015 1.749601-615.39426-615.952446zm9.393668-9.402065 615.39426 615.952446-1.748016 1.749601-615.39426-615.952446zm9.393545-9.402189 615.39426 615.952446-1.748016 1.749601-615.39426-615.952446zm9.393545-9.402066 615.39426 615.952447-1.748016 1.749601-615.39426-615.952446zm9.393668-9.402065 615.39426 615.952446-1.748016 1.749602-615.394259-615.952447zm9.393545-9.402189 615.39426 615.952447-1.748016 1.749601-615.39426-615.952446zm9.393545-9.402065 615.39426 615.952446-1.748016 1.749602-615.39426-615.952447zm9.393669-9.402065 615.394259 615.952446-1.748015 1.749601-615.39426-615.952446zm9.393544-9.402189 615.39426 615.952446-1.748015 1.749601-615.39426-615.952446zm9.392309-9.402065 615.395496 615.952446-1.748016 1.749601-615.395496-615.952446zm9.3936686-9.402189 615.3954964 615.953683-1.748016 1.749602-615.3954961-615.953684zm9.3935449-9.402065 615.3954965 615.953683-1.748016 1.749602-615.3954963-615.953684zm9.3935449-9.402065 615.3954956 615.953683-1.748015 1.749601-615.3954964-615.953683zm9.3936685-9.402066 615.3954961 615.953684-1.748016 1.749601-615.3954959-615.953683zm9.3935449-9.402189 615.3954962 615.953684-1.748016 1.749601-615.395496-615.953683zm9.3935448-9.402065 615.3954964 615.953684-1.748016 1.749601-615.3954961-615.953684zm9.3936685-9.402065 615.3954959 615.953684-1.748016 1.749601-615.3954956-615.953684zm9.3935449-9.402189 615.395496 615.953684-1.748016 1.749601-615.3954957-615.953684zm9.3935449-9.402065 615.3954961 615.953683-1.748016 1.749602-615.3954958-615.953684zm9.3936685-9.402065 615.3954956 615.953683-1.748015 1.749602-615.3954963-615.953684zm9.3935449-9.400952 615.3942597 615.952446-1.748016 1.749602-615.39425945-615.952447zm9.39354488-9.402065 615.39425982 615.952446-1.748016 1.749601-615.39425957-615.952446zm9.39366852-9.402065 615.3942603 615.952446-1.748016 1.749601-615.3942601-615.952446zm9.3935449-9.402189 615.3942594 615.952446-1.748015 1.749601-615.3942602-615.952446zm9.3935448-9.402065 615.3942596 615.952446-1.748015 1.749601-615.3942603-615.952446zm9.3936686-9.402066 615.39426 615.952447-1.748016 1.749601-615.3942598-615.952446zm9.3935448-9.402188 615.3942602 615.952446-1.748016 1.749601-615.3942599-615.952446zm9.3935449-9.4020657 615.3942603 615.9524467-1.748016 1.749601-615.39426-615.9524464zm9.3936685-9.4020652 615.3942598 615.9524459-1.748016 1.749602-615.3942595-615.9524466zm9.3935449-9.4021889 615.3942599 615.9524458-1.748016 1.749602-615.3942596-615.9524465zm9.3935449-9.4020652 615.39426 615.952446-1.748016 1.749601-615.3942598-615.9524457zm9.393668-9.4020652 615.39426 615.9524462-1.748015 1.749601-615.39426-615.9524459zm9.393545-9.4021889 615.39426 615.9524461-1.748016 1.749601-615.394259-615.9524458zm18.785978-18.8042541 615.395496 615.9536832-1.748016 1.749602-615.395496-615.9536839zm18.787089-18.80413038 615.395496 615.95368358-1.748015 1.749601-615.395496-615.95368332zm-28.180758 28.20631928 615.395496 615.9536833-1.748016 1.749602-615.395496-615.953684zm18.787213-18.8042541 615.395496 615.9536834-1.748015 1.749601-615.395496-615.9536831zm18.787214-18.80425411 615.395496 615.95368351-1.748016 1.749601-615.395496-615.95368324zm9.393545-9.40206519 615.395496 615.9536837-1.748016 1.749601-615.395496-615.9536834zm9.393545-9.4020652 615.395496 615.9536839-1.748016 1.749601-615.395496-615.9536836zm9.393668-9.4021889 615.395496 615.9536838-1.748016 1.749601-615.395496-615.9536835zm9.393545-9.4020652 615.395496 615.953684-1.748016 1.749601-615.395496-615.9536837zm9.393545-9.4020652 615.395496 615.9536832-1.748016 1.749602-615.395496-615.9536839zm9.393668-9.4021889 615.395496 615.9536831-1.748015 1.749602-615.395496-615.9536838zm9.393545-9.4008279 615.39426 615.952446-1.748016 1.749602-615.39426-615.9524467zm9.393669-9.4020652 615.39426 615.9524462-1.748016 1.749601-615.39426-615.9524459zm9.393545-9.4021889 615.394259 615.9524461-1.748015 1.749601-615.39426-615.9524458zm9.393544-9.4020652 615.39426 615.9524463-1.748015 1.749601-615.39426-615.952446zm9.393669-9.4020647 615.39426 615.952446-1.748016 1.749601-615.39426-615.952446zm9.393545-9.402189 615.39426 615.952446-1.748016 1.749601-615.39426-615.952446zm9.393545-9.402066 615.39426 615.952447-1.748016 1.749601-615.39426-615.952446zm9.393668-9.402065 615.39426 615.952446-1.748016 1.749602-615.394259-615.952446zm9.393545-9.402189 615.39426 615.952447-1.748016 1.749601-615.39426-615.952446zm9.393545-9.402065 615.39426 615.952446-1.748016 1.749602-615.39426-615.952447zm9.393669-9.402065 615.394259 615.952446-1.748015 1.749601-615.39426-615.952446zm9.393544-9.402065 615.39426 615.952446-1.748015 1.749601-615.39426-615.952446zm9.393545-9.402189 615.39426 615.952446-1.748016 1.749601-615.394259-615.952446zm9.392309-9.402065 615.395496 615.953683-1.748016 1.749601-615.395496-615.953683zm9.393668-9.402189 615.395497 615.953683-1.748016 1.749602-615.395496-615.953684zm9.393545-9.402065 615.395496 615.953683-1.748015 1.749601-615.395496-615.953683zm9.393545-9.402066 615.395496 615.953684-1.748015 1.749601-615.395497-615.953683z" fill="#00c5bc" fill-rule="evenodd" mask="url(#c)" transform="translate(0 -2)"/></g><path d="m600.625628 385.875217c0 118.22182-95.751456 214.060127-213.866141 214.060127s-213.866142-95.838307-213.866142-214.060127c0-118.223057 95.751457-214.060126 213.866142-214.060126s213.866141 95.837069 213.866141 214.060126" fill="#00b4ac" mask="url(#b)"/><g fill="#fff" transform="translate(157 168)"><path d="m388.953518 79.5898139c6.249973 7.2517131 12.013192 14.9477623 17.21059 22.9371471l-16.657123-4.9198766-1.746879 5.9347956 27.740045 8.197319 8.179694-27.7926638-5.923823-1.7513524-5.435833 18.4715082c-5.598908-8.7679017-11.864942-17.2003853-18.690619-25.1216967-61.123475-70.92296725-160.240954-94.5854099-246.64476-58.8800984l2.354704 5.7219098c83.93915-34.6903934 180.232467-11.7000246 239.614004 57.2030082"/><path d="m367.187824 377.060804c-36.872246 31.895656-83.593234 49.956246-132.1204 51.198902l12.774208-13.702631-4.514212-4.22305-19.740723 21.173418 21.135508 19.779763 4.215242-4.523812-13.181896-12.333729c49.758877-1.397369 97.652275-19.972845 135.469614-52.684148 30.470317-26.358164 52.946253-60.515106 65.000213-98.781229l-5.890467-1.861508c-11.708043 37.169516-33.544033 70.352385-63.147087 95.958024"/><path d="m70.2667938 355.255909c-45.4818646-52.776975-61.8610188-123.849705-44.3440459-191.14991l8.0475042 16.326566 5.5383729-2.739041-12.8038583-25.981902-25.93263128 12.827574 2.73397708 5.548631 16.6250021-8.222074c-18.31999377 69.472377-1.5109146 142.93264 45.4596271 197.434976 9.6164833 11.156672 20.3497833 21.335557 31.8996937 30.254459l3.7717276-4.902549c-11.2225255-8.663935-21.651913-18.554435-30.9953692-29.39673"/><path d="m578.101369 484.105447-4.247362 4.494106 6.754023 6.402648c-7.445857.751287-20.66358 1.548369-30.276357-.860205l-1.497325 6.005344c5.450659 1.363951 11.789582 1.808287 17.731936 1.808287 4.768708 0 9.274273-.287147 12.863158-.611426l-5.073856 5.374115 4.488269 4.251516 13.034881-13.802885z"/><path d="m566.309441 559.090438.166781 8.708492-33.756525-31.263189-4.19424 4.544852 33.378488 30.912918-8.138925.155951.117364 6.188525 18.967352-.363885-.363212-19.002484z"/><path d="m502.311522 583.167759-4.246127 6.153869c-1.388609-9.46473-4.293073-23.677295-9.894452-31.809017l-5.084975 3.515082c5.178866 7.51782 7.852308 21.845492 9.067958 30.683943l-7.637346-5.288713-3.513525 5.09068 15.604548 10.80764 2.38559-3.458148.186547-.014852c-.003706-.040845-.009883-.123771-.018531-.230213l8.231581-11.930238z"/></g></g></svg>