<?xml version="1.0" encoding="UTF-8"?>
<svg width="836px" height="844px" viewBox="0 0 836 844" version="1.1" xmlns="http://www.w3.org/2000/svg" xmlns:xlink="http://www.w3.org/1999/xlink">
    <!-- Generator: Sketch 53.2 (72643) - https://sketchapp.com -->
    <title>stappenplan-bg-fullscreen</title>
    <desc>Created with Sketch.</desc>
    <defs>
        <path d="M122.807893,122.757048 C-39.9194231,285.289481 -39.9194231,548.80675 122.807893,711.339183 L122.807893,711.339183 C285.536546,873.871615 549.368446,873.871615 712.095761,711.339183 L712.095761,711.339183 C874.823077,548.80675 874.823077,285.289481 712.095761,122.757048 L712.095761,122.757048 C630.732772,41.4901635 524.0923,0.856721154 417.451827,0.856721154 L417.451827,0.856721154 C310.812692,0.856721154 204.17222,41.4901635 122.807893,122.757048 L122.807893,122.757048 Z" id="path-1"></path>
        <path d="M122.807893,122.757048 C-39.9194231,285.289481 -39.9194231,548.80675 122.807893,711.339183 L122.807893,711.339183 C285.536546,873.871615 549.368446,873.871615 712.095761,711.339183 L712.095761,711.339183 C874.823077,548.80675 874.823077,285.289481 712.095761,122.757048 L712.095761,122.757048 C630.732772,41.4901635 524.0923,0.856721154 417.451827,0.856721154 L417.451827,0.856721154 C310.812692,0.856721154 204.17222,41.4901635 122.807893,122.757048 L122.807893,122.757048 Z" id="path-3"></path>
        <path d="M122.807893,122.757048 C-39.9194231,285.289481 -39.9194231,548.80675 122.807893,711.339183 L122.807893,711.339183 C285.536546,873.871615 549.368446,873.871615 712.095761,711.339183 L712.095761,711.339183 C874.823077,548.80675 874.823077,285.289481 712.095761,122.757048 L712.095761,122.757048 C630.732772,41.4901635 524.0923,0.856721154 417.451827,0.856721154 L417.451827,0.856721154 C310.812692,0.856721154 204.17222,41.4901635 122.807893,122.757048 L122.807893,122.757048 Z" id="path-5"></path>
        <path d="M122.807893,122.757048 C-39.9194231,285.289481 -39.9194231,548.80675 122.807893,711.339183 L122.807893,711.339183 C285.536546,873.871615 549.368446,873.871615 712.095761,711.339183 L712.095761,711.339183 C874.823077,548.80675 874.823077,285.289481 712.095761,122.757048 L712.095761,122.757048 C630.732772,41.4901635 524.0923,0.856721154 417.451827,0.856721154 L417.451827,0.856721154 C310.812692,0.856721154 204.17222,41.4901635 122.807893,122.757048 L122.807893,122.757048 Z" id="path-7"></path>
        <path d="M122.807893,122.757048 C-39.9194231,285.289481 -39.9194231,548.80675 122.807893,711.339183 L122.807893,711.339183 C285.536546,873.871615 549.368446,873.871615 712.095761,711.339183 L712.095761,711.339183 C874.823077,548.80675 874.823077,285.289481 712.095761,122.757048 L712.095761,122.757048 C630.732772,41.4901635 524.0923,0.856721154 417.451827,0.856721154 L417.451827,0.856721154 C310.812692,0.856721154 204.17222,41.4901635 122.807893,122.757048 L122.807893,122.757048 Z" id="path-9"></path>
        <path d="M122.807893,122.757048 C-39.9194231,285.289481 -39.9194231,548.80675 122.807893,711.339183 L122.807893,711.339183 C285.536546,873.871615 549.368446,873.871615 712.095761,711.339183 L712.095761,711.339183 C874.823077,548.80675 874.823077,285.289481 712.095761,122.757048 L712.095761,122.757048 C630.732772,41.4901635 524.0923,0.856721154 417.451827,0.856721154 L417.451827,0.856721154 C310.812692,0.856721154 204.17222,41.4901635 122.807893,122.757048 L122.807893,122.757048 Z" id="path-11"></path>
        <path d="M122.807893,122.757048 C-39.9194231,285.289481 -39.9194231,548.80675 122.807893,711.339183 L122.807893,711.339183 C285.536546,873.871615 549.368446,873.871615 712.095761,711.339183 L712.095761,711.339183 C874.823077,548.80675 874.823077,285.289481 712.095761,122.757048 L712.095761,122.757048 C630.732772,41.4901635 524.0923,0.856721154 417.451827,0.856721154 L417.451827,0.856721154 C310.812692,0.856721154 204.17222,41.4901635 122.807893,122.757048 L122.807893,122.757048 Z" id="path-13"></path>
        <path d="M122.807893,122.757048 C-39.9194231,285.289481 -39.9194231,548.80675 122.807893,711.339183 L122.807893,711.339183 C285.536546,873.871615 549.368446,873.871615 712.095761,711.339183 L712.095761,711.339183 C874.823077,548.80675 874.823077,285.289481 712.095761,122.757048 L712.095761,122.757048 C630.732772,41.4901635 524.0923,0.856721154 417.451827,0.856721154 L417.451827,0.856721154 C310.812692,0.856721154 204.17222,41.4901635 122.807893,122.757048 L122.807893,122.757048 Z" id="path-15"></path>
        <path d="M122.807893,122.757048 C-39.9194231,285.289481 -39.9194231,548.80675 122.807893,711.339183 L122.807893,711.339183 C285.536546,873.871615 549.368446,873.871615 712.095761,711.339183 L712.095761,711.339183 C874.823077,548.80675 874.823077,285.289481 712.095761,122.757048 L712.095761,122.757048 C630.732772,41.4901635 524.0923,0.856721154 417.451827,0.856721154 L417.451827,0.856721154 C310.812692,0.856721154 204.17222,41.4901635 122.807893,122.757048 L122.807893,122.757048 Z" id="path-17"></path>
        <path d="M122.807893,122.757048 C-39.9194231,285.289481 -39.9194231,548.80675 122.807893,711.339183 L122.807893,711.339183 C285.536546,873.871615 549.368446,873.871615 712.095761,711.339183 L712.095761,711.339183 C874.823077,548.80675 874.823077,285.289481 712.095761,122.757048 L712.095761,122.757048 C630.732772,41.4901635 524.0923,0.856721154 417.451827,0.856721154 L417.451827,0.856721154 C310.812692,0.856721154 204.17222,41.4901635 122.807893,122.757048 L122.807893,122.757048 Z" id="path-19"></path>
        <path d="M122.807893,122.757048 C-39.9194231,285.289481 -39.9194231,548.80675 122.807893,711.339183 L122.807893,711.339183 C285.536546,873.871615 549.368446,873.871615 712.095761,711.339183 L712.095761,711.339183 C874.823077,548.80675 874.823077,285.289481 712.095761,122.757048 L712.095761,122.757048 C630.732772,41.4901635 524.0923,0.856721154 417.451827,0.856721154 L417.451827,0.856721154 C310.812692,0.856721154 204.17222,41.4901635 122.807893,122.757048 L122.807893,122.757048 Z" id="path-21"></path>
        <path d="M122.807893,122.757048 C-39.9194231,285.289481 -39.9194231,548.80675 122.807893,711.339183 L122.807893,711.339183 C285.536546,873.871615 549.368446,873.871615 712.095761,711.339183 L712.095761,711.339183 C874.823077,548.80675 874.823077,285.289481 712.095761,122.757048 L712.095761,122.757048 C630.732772,41.4901635 524.0923,0.856721154 417.451827,0.856721154 L417.451827,0.856721154 C310.812692,0.856721154 204.17222,41.4901635 122.807893,122.757048 L122.807893,122.757048 Z" id="path-23"></path>
        <path d="M122.807893,122.757048 C-39.9194231,285.289481 -39.9194231,548.80675 122.807893,711.339183 L122.807893,711.339183 C285.536546,873.871615 549.368446,873.871615 712.095761,711.339183 L712.095761,711.339183 C874.823077,548.80675 874.823077,285.289481 712.095761,122.757048 L712.095761,122.757048 C630.732772,41.4901635 524.0923,0.856721154 417.451827,0.856721154 L417.451827,0.856721154 C310.812692,0.856721154 204.17222,41.4901635 122.807893,122.757048 L122.807893,122.757048 Z" id="path-25"></path>
        <path d="M122.807893,122.757048 C-39.9194231,285.289481 -39.9194231,548.80675 122.807893,711.339183 L122.807893,711.339183 C285.536546,873.871615 549.368446,873.871615 712.095761,711.339183 L712.095761,711.339183 C874.823077,548.80675 874.823077,285.289481 712.095761,122.757048 L712.095761,122.757048 C630.732772,41.4901635 524.0923,0.856721154 417.451827,0.856721154 L417.451827,0.856721154 C310.812692,0.856721154 204.17222,41.4901635 122.807893,122.757048 L122.807893,122.757048 Z" id="path-27"></path>
        <path d="M122.807893,122.757048 C-39.9194231,285.289481 -39.9194231,548.80675 122.807893,711.339183 L122.807893,711.339183 C285.536546,873.871615 549.368446,873.871615 712.095761,711.339183 L712.095761,711.339183 C874.823077,548.80675 874.823077,285.289481 712.095761,122.757048 L712.095761,122.757048 C630.732772,41.4901635 524.0923,0.856721154 417.451827,0.856721154 L417.451827,0.856721154 C310.812692,0.856721154 204.17222,41.4901635 122.807893,122.757048 L122.807893,122.757048 Z" id="path-29"></path>
        <path d="M122.807893,122.757048 C-39.9194231,285.289481 -39.9194231,548.80675 122.807893,711.339183 L122.807893,711.339183 C285.536546,873.871615 549.368446,873.871615 712.095761,711.339183 L712.095761,711.339183 C874.823077,548.80675 874.823077,285.289481 712.095761,122.757048 L712.095761,122.757048 C630.732772,41.4901635 524.0923,0.856721154 417.451827,0.856721154 L417.451827,0.856721154 C310.812692,0.856721154 204.17222,41.4901635 122.807893,122.757048 L122.807893,122.757048 Z" id="path-31"></path>
        <path d="M122.807893,122.757048 C-39.9194231,285.289481 -39.9194231,548.80675 122.807893,711.339183 L122.807893,711.339183 C285.536546,873.871615 549.368446,873.871615 712.095761,711.339183 L712.095761,711.339183 C874.823077,548.80675 874.823077,285.289481 712.095761,122.757048 L712.095761,122.757048 C630.732772,41.4901635 524.0923,0.856721154 417.451827,0.856721154 L417.451827,0.856721154 C310.812692,0.856721154 204.17222,41.4901635 122.807893,122.757048 L122.807893,122.757048 Z" id="path-33"></path>
        <path d="M122.807893,122.757048 C-39.9194231,285.289481 -39.9194231,548.80675 122.807893,711.339183 L122.807893,711.339183 C285.536546,873.871615 549.368446,873.871615 712.095761,711.339183 L712.095761,711.339183 C874.823077,548.80675 874.823077,285.289481 712.095761,122.757048 L712.095761,122.757048 C630.732772,41.4901635 524.0923,0.856721154 417.451827,0.856721154 L417.451827,0.856721154 C310.812692,0.856721154 204.17222,41.4901635 122.807893,122.757048 L122.807893,122.757048 Z" id="path-35"></path>
        <path d="M122.807893,122.757048 C-39.9194231,285.289481 -39.9194231,548.80675 122.807893,711.339183 L122.807893,711.339183 C285.536546,873.871615 549.368446,873.871615 712.095761,711.339183 L712.095761,711.339183 C874.823077,548.80675 874.823077,285.289481 712.095761,122.757048 L712.095761,122.757048 C630.732772,41.4901635 524.0923,0.856721154 417.451827,0.856721154 L417.451827,0.856721154 C310.812692,0.856721154 204.17222,41.4901635 122.807893,122.757048 L122.807893,122.757048 Z" id="path-37"></path>
        <path d="M122.807893,122.757048 C-39.9194231,285.289481 -39.9194231,548.80675 122.807893,711.339183 L122.807893,711.339183 C285.536546,873.871615 549.368446,873.871615 712.095761,711.339183 L712.095761,711.339183 C874.823077,548.80675 874.823077,285.289481 712.095761,122.757048 L712.095761,122.757048 C630.732772,41.4901635 524.0923,0.856721154 417.451827,0.856721154 L417.451827,0.856721154 C310.812692,0.856721154 204.17222,41.4901635 122.807893,122.757048 L122.807893,122.757048 Z" id="path-39"></path>
        <path d="M122.807893,122.757048 C-39.9194231,285.289481 -39.9194231,548.80675 122.807893,711.339183 L122.807893,711.339183 C285.536546,873.871615 549.368446,873.871615 712.095761,711.339183 L712.095761,711.339183 C874.823077,548.80675 874.823077,285.289481 712.095761,122.757048 L712.095761,122.757048 C630.732772,41.4901635 524.0923,0.856721154 417.451827,0.856721154 L417.451827,0.856721154 C310.812692,0.856721154 204.17222,41.4901635 122.807893,122.757048 L122.807893,122.757048 Z" id="path-41"></path>
        <path d="M122.807893,122.757048 C-39.9194231,285.289481 -39.9194231,548.80675 122.807893,711.339183 L122.807893,711.339183 C285.536546,873.871615 549.368446,873.871615 712.095761,711.339183 L712.095761,711.339183 C874.823077,548.80675 874.823077,285.289481 712.095761,122.757048 L712.095761,122.757048 C630.732772,41.4901635 524.0923,0.856721154 417.451827,0.856721154 L417.451827,0.856721154 C310.812692,0.856721154 204.17222,41.4901635 122.807893,122.757048 L122.807893,122.757048 Z" id="path-43"></path>
        <path d="M122.807893,122.757048 C-39.9194231,285.289481 -39.9194231,548.80675 122.807893,711.339183 L122.807893,711.339183 C285.536546,873.871615 549.368446,873.871615 712.095761,711.339183 L712.095761,711.339183 C874.823077,548.80675 874.823077,285.289481 712.095761,122.757048 L712.095761,122.757048 C630.732772,41.4901635 524.0923,0.856721154 417.451827,0.856721154 L417.451827,0.856721154 C310.812692,0.856721154 204.17222,41.4901635 122.807893,122.757048 L122.807893,122.757048 Z" id="path-45"></path>
        <path d="M122.807893,122.757048 C-39.9194231,285.289481 -39.9194231,548.80675 122.807893,711.339183 L122.807893,711.339183 C285.536546,873.871615 549.368446,873.871615 712.095761,711.339183 L712.095761,711.339183 C874.823077,548.80675 874.823077,285.289481 712.095761,122.757048 L712.095761,122.757048 C630.732772,41.4901635 524.0923,0.856721154 417.451827,0.856721154 L417.451827,0.856721154 C310.812692,0.856721154 204.17222,41.4901635 122.807893,122.757048 L122.807893,122.757048 Z" id="path-47"></path>
        <path d="M122.807893,122.757048 C-39.9194231,285.289481 -39.9194231,548.80675 122.807893,711.339183 L122.807893,711.339183 C285.536546,873.871615 549.368446,873.871615 712.095761,711.339183 L712.095761,711.339183 C874.823077,548.80675 874.823077,285.289481 712.095761,122.757048 L712.095761,122.757048 C630.732772,41.4901635 524.0923,0.856721154 417.451827,0.856721154 L417.451827,0.856721154 C310.812692,0.856721154 204.17222,41.4901635 122.807893,122.757048 L122.807893,122.757048 Z" id="path-49"></path>
        <path d="M122.807893,122.757048 C-39.9194231,285.289481 -39.9194231,548.80675 122.807893,711.339183 L122.807893,711.339183 C285.536546,873.871615 549.368446,873.871615 712.095761,711.339183 L712.095761,711.339183 C874.823077,548.80675 874.823077,285.289481 712.095761,122.757048 L712.095761,122.757048 C630.732772,41.4901635 524.0923,0.856721154 417.451827,0.856721154 L417.451827,0.856721154 C310.812692,0.856721154 204.17222,41.4901635 122.807893,122.757048 L122.807893,122.757048 Z" id="path-51"></path>
        <path d="M122.807893,122.757048 C-39.9194231,285.289481 -39.9194231,548.80675 122.807893,711.339183 L122.807893,711.339183 C285.536546,873.871615 549.368446,873.871615 712.095761,711.339183 L712.095761,711.339183 C874.823077,548.80675 874.823077,285.289481 712.095761,122.757048 L712.095761,122.757048 C630.732772,41.4901635 524.0923,0.856721154 417.451827,0.856721154 L417.451827,0.856721154 C310.812692,0.856721154 204.17222,41.4901635 122.807893,122.757048 L122.807893,122.757048 Z" id="path-53"></path>
        <path d="M122.807893,122.757048 C-39.9194231,285.289481 -39.9194231,548.80675 122.807893,711.339183 L122.807893,711.339183 C285.536546,873.871615 549.368446,873.871615 712.095761,711.339183 L712.095761,711.339183 C874.823077,548.80675 874.823077,285.289481 712.095761,122.757048 L712.095761,122.757048 C630.732772,41.4901635 524.0923,0.856721154 417.451827,0.856721154 L417.451827,0.856721154 C310.812692,0.856721154 204.17222,41.4901635 122.807893,122.757048 L122.807893,122.757048 Z" id="path-55"></path>
        <path d="M122.807893,122.757048 C-39.9194231,285.289481 -39.9194231,548.80675 122.807893,711.339183 L122.807893,711.339183 C285.536546,873.871615 549.368446,873.871615 712.095761,711.339183 L712.095761,711.339183 C874.823077,548.80675 874.823077,285.289481 712.095761,122.757048 L712.095761,122.757048 C630.732772,41.4901635 524.0923,0.856721154 417.451827,0.856721154 L417.451827,0.856721154 C310.812692,0.856721154 204.17222,41.4901635 122.807893,122.757048 L122.807893,122.757048 Z" id="path-57"></path>
        <path d="M122.807893,122.757048 C-39.9194231,285.289481 -39.9194231,548.80675 122.807893,711.339183 L122.807893,711.339183 C285.536546,873.871615 549.368446,873.871615 712.095761,711.339183 L712.095761,711.339183 C874.823077,548.80675 874.823077,285.289481 712.095761,122.757048 L712.095761,122.757048 C630.732772,41.4901635 524.0923,0.856721154 417.451827,0.856721154 L417.451827,0.856721154 C310.812692,0.856721154 204.17222,41.4901635 122.807893,122.757048 L122.807893,122.757048 Z" id="path-59"></path>
        <path d="M122.807893,122.757048 C-39.9194231,285.289481 -39.9194231,548.80675 122.807893,711.339183 L122.807893,711.339183 C285.536546,873.871615 549.368446,873.871615 712.095761,711.339183 L712.095761,711.339183 C874.823077,548.80675 874.823077,285.289481 712.095761,122.757048 L712.095761,122.757048 C630.732772,41.4901635 524.0923,0.856721154 417.451827,0.856721154 L417.451827,0.856721154 C310.812692,0.856721154 204.17222,41.4901635 122.807893,122.757048 L122.807893,122.757048 Z" id="path-61"></path>
        <path d="M122.807893,122.757048 C-39.9194231,285.289481 -39.9194231,548.80675 122.807893,711.339183 L122.807893,711.339183 C285.536546,873.871615 549.368446,873.871615 712.095761,711.339183 L712.095761,711.339183 C874.823077,548.80675 874.823077,285.289481 712.095761,122.757048 L712.095761,122.757048 C630.732772,41.4901635 524.0923,0.856721154 417.451827,0.856721154 L417.451827,0.856721154 C310.812692,0.856721154 204.17222,41.4901635 122.807893,122.757048 L122.807893,122.757048 Z" id="path-63"></path>
        <path d="M122.807893,122.757048 C-39.9194231,285.289481 -39.9194231,548.80675 122.807893,711.339183 L122.807893,711.339183 C285.536546,873.871615 549.368446,873.871615 712.095761,711.339183 L712.095761,711.339183 C874.823077,548.80675 874.823077,285.289481 712.095761,122.757048 L712.095761,122.757048 C630.732772,41.4901635 524.0923,0.856721154 417.451827,0.856721154 L417.451827,0.856721154 C310.812692,0.856721154 204.17222,41.4901635 122.807893,122.757048 L122.807893,122.757048 Z" id="path-65"></path>
        <path d="M122.807893,122.757048 C-39.9194231,285.289481 -39.9194231,548.80675 122.807893,711.339183 L122.807893,711.339183 C285.536546,873.871615 549.368446,873.871615 712.095761,711.339183 L712.095761,711.339183 C874.823077,548.80675 874.823077,285.289481 712.095761,122.757048 L712.095761,122.757048 C630.732772,41.4901635 524.0923,0.856721154 417.451827,0.856721154 L417.451827,0.856721154 C310.812692,0.856721154 204.17222,41.4901635 122.807893,122.757048 L122.807893,122.757048 Z" id="path-67"></path>
        <path d="M122.807893,122.757048 C-39.9194231,285.289481 -39.9194231,548.80675 122.807893,711.339183 L122.807893,711.339183 C285.536546,873.871615 549.368446,873.871615 712.095761,711.339183 L712.095761,711.339183 C874.823077,548.80675 874.823077,285.289481 712.095761,122.757048 L712.095761,122.757048 C630.732772,41.4901635 524.0923,0.856721154 417.451827,0.856721154 L417.451827,0.856721154 C310.812692,0.856721154 204.17222,41.4901635 122.807893,122.757048 L122.807893,122.757048 Z" id="path-69"></path>
        <path d="M122.807893,122.757048 C-39.9194231,285.289481 -39.9194231,548.80675 122.807893,711.339183 L122.807893,711.339183 C285.536546,873.871615 549.368446,873.871615 712.095761,711.339183 L712.095761,711.339183 C874.823077,548.80675 874.823077,285.289481 712.095761,122.757048 L712.095761,122.757048 C630.732772,41.4901635 524.0923,0.856721154 417.451827,0.856721154 L417.451827,0.856721154 C310.812692,0.856721154 204.17222,41.4901635 122.807893,122.757048 L122.807893,122.757048 Z" id="path-71"></path>
        <path d="M122.807893,122.757048 C-39.9194231,285.289481 -39.9194231,548.80675 122.807893,711.339183 L122.807893,711.339183 C285.536546,873.871615 549.368446,873.871615 712.095761,711.339183 L712.095761,711.339183 C874.823077,548.80675 874.823077,285.289481 712.095761,122.757048 L712.095761,122.757048 C630.732772,41.4901635 524.0923,0.856721154 417.451827,0.856721154 L417.451827,0.856721154 C310.812692,0.856721154 204.17222,41.4901635 122.807893,122.757048 L122.807893,122.757048 Z" id="path-73"></path>
        <path d="M122.807893,122.757048 C-39.9194231,285.289481 -39.9194231,548.80675 122.807893,711.339183 L122.807893,711.339183 C285.536546,873.871615 549.368446,873.871615 712.095761,711.339183 L712.095761,711.339183 C874.823077,548.80675 874.823077,285.289481 712.095761,122.757048 L712.095761,122.757048 C630.732772,41.4901635 524.0923,0.856721154 417.451827,0.856721154 L417.451827,0.856721154 C310.812692,0.856721154 204.17222,41.4901635 122.807893,122.757048 L122.807893,122.757048 Z" id="path-75"></path>
        <path d="M122.807893,122.757048 C-39.9194231,285.289481 -39.9194231,548.80675 122.807893,711.339183 L122.807893,711.339183 C285.536546,873.871615 549.368446,873.871615 712.095761,711.339183 L712.095761,711.339183 C874.823077,548.80675 874.823077,285.289481 712.095761,122.757048 L712.095761,122.757048 C630.732772,41.4901635 524.0923,0.856721154 417.451827,0.856721154 L417.451827,0.856721154 C310.812692,0.856721154 204.17222,41.4901635 122.807893,122.757048 L122.807893,122.757048 Z" id="path-77"></path>
        <path d="M122.807893,122.757048 C-39.9194231,285.289481 -39.9194231,548.80675 122.807893,711.339183 L122.807893,711.339183 C285.536546,873.871615 549.368446,873.871615 712.095761,711.339183 L712.095761,711.339183 C874.823077,548.80675 874.823077,285.289481 712.095761,122.757048 L712.095761,122.757048 C630.732772,41.4901635 524.0923,0.856721154 417.451827,0.856721154 L417.451827,0.856721154 C310.812692,0.856721154 204.17222,41.4901635 122.807893,122.757048 L122.807893,122.757048 Z" id="path-79"></path>
        <path d="M122.807893,122.757048 C-39.9194231,285.289481 -39.9194231,548.80675 122.807893,711.339183 L122.807893,711.339183 C285.536546,873.871615 549.368446,873.871615 712.095761,711.339183 L712.095761,711.339183 C874.823077,548.80675 874.823077,285.289481 712.095761,122.757048 L712.095761,122.757048 C630.732772,41.4901635 524.0923,0.856721154 417.451827,0.856721154 L417.451827,0.856721154 C310.812692,0.856721154 204.17222,41.4901635 122.807893,122.757048 L122.807893,122.757048 Z" id="path-81"></path>
        <path d="M122.807893,122.757048 C-39.9194231,285.289481 -39.9194231,548.80675 122.807893,711.339183 L122.807893,711.339183 C285.536546,873.871615 549.368446,873.871615 712.095761,711.339183 L712.095761,711.339183 C874.823077,548.80675 874.823077,285.289481 712.095761,122.757048 L712.095761,122.757048 C630.732772,41.4901635 524.0923,0.856721154 417.451827,0.856721154 L417.451827,0.856721154 C310.812692,0.856721154 204.17222,41.4901635 122.807893,122.757048 L122.807893,122.757048 Z" id="path-83"></path>
        <path d="M122.807893,122.757048 C-39.9194231,285.289481 -39.9194231,548.80675 122.807893,711.339183 L122.807893,711.339183 C285.536546,873.871615 549.368446,873.871615 712.095761,711.339183 L712.095761,711.339183 C874.823077,548.80675 874.823077,285.289481 712.095761,122.757048 L712.095761,122.757048 C630.732772,41.4901635 524.0923,0.856721154 417.451827,0.856721154 L417.451827,0.856721154 C310.812692,0.856721154 204.17222,41.4901635 122.807893,122.757048 L122.807893,122.757048 Z" id="path-85"></path>
        <path d="M122.807893,122.757048 C-39.9194231,285.289481 -39.9194231,548.80675 122.807893,711.339183 L122.807893,711.339183 C285.536546,873.871615 549.368446,873.871615 712.095761,711.339183 L712.095761,711.339183 C874.823077,548.80675 874.823077,285.289481 712.095761,122.757048 L712.095761,122.757048 C630.732772,41.4901635 524.0923,0.856721154 417.451827,0.856721154 L417.451827,0.856721154 C310.812692,0.856721154 204.17222,41.4901635 122.807893,122.757048 L122.807893,122.757048 Z" id="path-87"></path>
        <path d="M122.807893,122.757048 C-39.9194231,285.289481 -39.9194231,548.80675 122.807893,711.339183 L122.807893,711.339183 C285.536546,873.871615 549.368446,873.871615 712.095761,711.339183 L712.095761,711.339183 C874.823077,548.80675 874.823077,285.289481 712.095761,122.757048 L712.095761,122.757048 C630.732772,41.4901635 524.0923,0.856721154 417.451827,0.856721154 L417.451827,0.856721154 C310.812692,0.856721154 204.17222,41.4901635 122.807893,122.757048 L122.807893,122.757048 Z" id="path-89"></path>
        <path d="M122.807893,122.757048 C-39.9194231,285.289481 -39.9194231,548.80675 122.807893,711.339183 L122.807893,711.339183 C285.536546,873.871615 549.368446,873.871615 712.095761,711.339183 L712.095761,711.339183 C874.823077,548.80675 874.823077,285.289481 712.095761,122.757048 L712.095761,122.757048 C630.732772,41.4901635 524.0923,0.856721154 417.451827,0.856721154 L417.451827,0.856721154 C310.812692,0.856721154 204.17222,41.4901635 122.807893,122.757048 L122.807893,122.757048 Z" id="path-91"></path>
        <path d="M122.807893,122.757048 C-39.9194231,285.289481 -39.9194231,548.80675 122.807893,711.339183 L122.807893,711.339183 C285.536546,873.871615 549.368446,873.871615 712.095761,711.339183 L712.095761,711.339183 C874.823077,548.80675 874.823077,285.289481 712.095761,122.757048 L712.095761,122.757048 C630.732772,41.4901635 524.0923,0.856721154 417.451827,0.856721154 L417.451827,0.856721154 C310.812692,0.856721154 204.17222,41.4901635 122.807893,122.757048 L122.807893,122.757048 Z" id="path-93"></path>
        <path d="M122.807893,122.757048 C-39.9194231,285.289481 -39.9194231,548.80675 122.807893,711.339183 L122.807893,711.339183 C285.536546,873.871615 549.368446,873.871615 712.095761,711.339183 L712.095761,711.339183 C874.823077,548.80675 874.823077,285.289481 712.095761,122.757048 L712.095761,122.757048 C630.732772,41.4901635 524.0923,0.856721154 417.451827,0.856721154 L417.451827,0.856721154 C310.812692,0.856721154 204.17222,41.4901635 122.807893,122.757048 L122.807893,122.757048 Z" id="path-95"></path>
        <path d="M122.807893,122.757048 C-39.9194231,285.289481 -39.9194231,548.80675 122.807893,711.339183 L122.807893,711.339183 C285.536546,873.871615 549.368446,873.871615 712.095761,711.339183 L712.095761,711.339183 C874.823077,548.80675 874.823077,285.289481 712.095761,122.757048 L712.095761,122.757048 C630.732772,41.4901635 524.0923,0.856721154 417.451827,0.856721154 L417.451827,0.856721154 C310.812692,0.856721154 204.17222,41.4901635 122.807893,122.757048 L122.807893,122.757048 Z" id="path-97"></path>
        <path d="M122.807893,122.757048 C-39.9194231,285.289481 -39.9194231,548.80675 122.807893,711.339183 L122.807893,711.339183 C285.536546,873.871615 549.368446,873.871615 712.095761,711.339183 L712.095761,711.339183 C874.823077,548.80675 874.823077,285.289481 712.095761,122.757048 L712.095761,122.757048 C630.732772,41.4901635 524.0923,0.856721154 417.451827,0.856721154 L417.451827,0.856721154 C310.812692,0.856721154 204.17222,41.4901635 122.807893,122.757048 L122.807893,122.757048 Z" id="path-99"></path>
        <path d="M122.807893,122.757048 C-39.9194231,285.289481 -39.9194231,548.80675 122.807893,711.339183 L122.807893,711.339183 C285.536546,873.871615 549.368446,873.871615 712.095761,711.339183 L712.095761,711.339183 C874.823077,548.80675 874.823077,285.289481 712.095761,122.757048 L712.095761,122.757048 C630.732772,41.4901635 524.0923,0.856721154 417.451827,0.856721154 L417.451827,0.856721154 C310.812692,0.856721154 204.17222,41.4901635 122.807893,122.757048 L122.807893,122.757048 Z" id="path-101"></path>
        <path d="M122.807893,122.757048 C-39.9194231,285.289481 -39.9194231,548.80675 122.807893,711.339183 L122.807893,711.339183 C285.536546,873.871615 549.368446,873.871615 712.095761,711.339183 L712.095761,711.339183 C874.823077,548.80675 874.823077,285.289481 712.095761,122.757048 L712.095761,122.757048 C630.732772,41.4901635 524.0923,0.856721154 417.451827,0.856721154 L417.451827,0.856721154 C310.812692,0.856721154 204.17222,41.4901635 122.807893,122.757048 L122.807893,122.757048 Z" id="path-103"></path>
        <path d="M122.807893,122.757048 C-39.9194231,285.289481 -39.9194231,548.80675 122.807893,711.339183 L122.807893,711.339183 C285.536546,873.871615 549.368446,873.871615 712.095761,711.339183 L712.095761,711.339183 C874.823077,548.80675 874.823077,285.289481 712.095761,122.757048 L712.095761,122.757048 C630.732772,41.4901635 524.0923,0.856721154 417.451827,0.856721154 L417.451827,0.856721154 C310.812692,0.856721154 204.17222,41.4901635 122.807893,122.757048 L122.807893,122.757048 Z" id="path-105"></path>
        <path d="M122.807893,122.757048 C-39.9194231,285.289481 -39.9194231,548.80675 122.807893,711.339183 L122.807893,711.339183 C285.536546,873.871615 549.368446,873.871615 712.095761,711.339183 L712.095761,711.339183 C874.823077,548.80675 874.823077,285.289481 712.095761,122.757048 L712.095761,122.757048 C630.732772,41.4901635 524.0923,0.856721154 417.451827,0.856721154 L417.451827,0.856721154 C310.812692,0.856721154 204.17222,41.4901635 122.807893,122.757048 L122.807893,122.757048 Z" id="path-107"></path>
        <path d="M122.807893,122.757048 C-39.9194231,285.289481 -39.9194231,548.80675 122.807893,711.339183 L122.807893,711.339183 C285.536546,873.871615 549.368446,873.871615 712.095761,711.339183 L712.095761,711.339183 C874.823077,548.80675 874.823077,285.289481 712.095761,122.757048 L712.095761,122.757048 C630.732772,41.4901635 524.0923,0.856721154 417.451827,0.856721154 L417.451827,0.856721154 C310.812692,0.856721154 204.17222,41.4901635 122.807893,122.757048 L122.807893,122.757048 Z" id="path-109"></path>
        <path d="M122.807893,122.757048 C-39.9194231,285.289481 -39.9194231,548.80675 122.807893,711.339183 L122.807893,711.339183 C285.536546,873.871615 549.368446,873.871615 712.095761,711.339183 L712.095761,711.339183 C874.823077,548.80675 874.823077,285.289481 712.095761,122.757048 L712.095761,122.757048 C630.732772,41.4901635 524.0923,0.856721154 417.451827,0.856721154 L417.451827,0.856721154 C310.812692,0.856721154 204.17222,41.4901635 122.807893,122.757048 L122.807893,122.757048 Z" id="path-111"></path>
        <path d="M122.807893,122.757048 C-39.9194231,285.289481 -39.9194231,548.80675 122.807893,711.339183 L122.807893,711.339183 C285.536546,873.871615 549.368446,873.871615 712.095761,711.339183 L712.095761,711.339183 C874.823077,548.80675 874.823077,285.289481 712.095761,122.757048 L712.095761,122.757048 C630.732772,41.4901635 524.0923,0.856721154 417.451827,0.856721154 L417.451827,0.856721154 C310.812692,0.856721154 204.17222,41.4901635 122.807893,122.757048 L122.807893,122.757048 Z" id="path-113"></path>
        <path d="M122.807893,122.757048 C-39.9194231,285.289481 -39.9194231,548.80675 122.807893,711.339183 L122.807893,711.339183 C285.536546,873.871615 549.368446,873.871615 712.095761,711.339183 L712.095761,711.339183 C874.823077,548.80675 874.823077,285.289481 712.095761,122.757048 L712.095761,122.757048 C630.732772,41.4901635 524.0923,0.856721154 417.451827,0.856721154 L417.451827,0.856721154 C310.812692,0.856721154 204.17222,41.4901635 122.807893,122.757048 L122.807893,122.757048 Z" id="path-115"></path>
        <path d="M122.807893,122.757048 C-39.9194231,285.289481 -39.9194231,548.80675 122.807893,711.339183 L122.807893,711.339183 C285.536546,873.871615 549.368446,873.871615 712.095761,711.339183 L712.095761,711.339183 C874.823077,548.80675 874.823077,285.289481 712.095761,122.757048 L712.095761,122.757048 C630.732772,41.4901635 524.0923,0.856721154 417.451827,0.856721154 L417.451827,0.856721154 C310.812692,0.856721154 204.17222,41.4901635 122.807893,122.757048 L122.807893,122.757048 Z" id="path-117"></path>
        <path d="M122.807893,122.757048 C-39.9194231,285.289481 -39.9194231,548.80675 122.807893,711.339183 L122.807893,711.339183 C285.536546,873.871615 549.368446,873.871615 712.095761,711.339183 L712.095761,711.339183 C874.823077,548.80675 874.823077,285.289481 712.095761,122.757048 L712.095761,122.757048 C630.732772,41.4901635 524.0923,0.856721154 417.451827,0.856721154 L417.451827,0.856721154 C310.812692,0.856721154 204.17222,41.4901635 122.807893,122.757048 L122.807893,122.757048 Z" id="path-119"></path>
        <path d="M122.807893,122.757048 C-39.9194231,285.289481 -39.9194231,548.80675 122.807893,711.339183 L122.807893,711.339183 C285.536546,873.871615 549.368446,873.871615 712.095761,711.339183 L712.095761,711.339183 C874.823077,548.80675 874.823077,285.289481 712.095761,122.757048 L712.095761,122.757048 C630.732772,41.4901635 524.0923,0.856721154 417.451827,0.856721154 L417.451827,0.856721154 C310.812692,0.856721154 204.17222,41.4901635 122.807893,122.757048 L122.807893,122.757048 Z" id="path-121"></path>
        <path d="M122.807893,122.757048 C-39.9194231,285.289481 -39.9194231,548.80675 122.807893,711.339183 L122.807893,711.339183 C285.536546,873.871615 549.368446,873.871615 712.095761,711.339183 L712.095761,711.339183 C874.823077,548.80675 874.823077,285.289481 712.095761,122.757048 L712.095761,122.757048 C630.732772,41.4901635 524.0923,0.856721154 417.451827,0.856721154 L417.451827,0.856721154 C310.812692,0.856721154 204.17222,41.4901635 122.807893,122.757048 L122.807893,122.757048 Z" id="path-123"></path>
        <path d="M122.807893,122.757048 C-39.9194231,285.289481 -39.9194231,548.80675 122.807893,711.339183 L122.807893,711.339183 C285.536546,873.871615 549.368446,873.871615 712.095761,711.339183 L712.095761,711.339183 C874.823077,548.80675 874.823077,285.289481 712.095761,122.757048 L712.095761,122.757048 C630.732772,41.4901635 524.0923,0.856721154 417.451827,0.856721154 L417.451827,0.856721154 C310.812692,0.856721154 204.17222,41.4901635 122.807893,122.757048 L122.807893,122.757048 Z" id="path-125"></path>
    </defs>
    <g id="Page-1" stroke="none" stroke-width="1" fill="none" fill-rule="evenodd">
        <g id="Artboard">
            <g id="stappenplan-bg-fullscreen">
                <g id="CIRCLES-NG">
                    <path d="M835.578121,426.535129 C835.578121,656.567262 649.095279,843.044448 419.056169,843.044448 C189.018396,843.044448 2.53555456,656.567262 2.53555456,426.535129 C2.53555456,196.502996 189.018396,10.0258105 419.056169,10.0258105 C562.83078,10.0258105 689.589782,82.8679594 764.441878,193.660682 C809.354473,260.136048 835.578121,340.273246 835.578121,426.535129" id="Fill-1" fill="#B73C1F"></path>
                    <path d="M417.284116,0.92478859 C647.321889,0.92478859 833.804731,187.401974 833.804731,417.434107 C833.804731,647.464903 647.321889,833.942088 417.284116,833.942088 C187.245006,833.942088 0.76216448,647.464903 0.76216448,417.434107 C0.76216448,187.401974 187.245006,0.92478859 417.284116,0.92478859" id="Fill-3" fill="#D94721"></path>
                </g>
                <g id="Group-198" opacity="0.3">
                    <g id="Group-8">
                        <mask id="mask-2" fill="white">
                            <use xlink:href="#path-1"></use>
                        </mask>
                        <g id="Clip-7"></g>
                        <polygon id="Fill-6" fill="#B73C1F" mask="url(#mask-2)" points="-226.682963 395.078898 439.448992 1060.41175 441.341123 1058.52189 -224.790832 393.189033"></polygon>
                    </g>
                    <g id="Group-11">
                        <mask id="mask-4" fill="white">
                            <use xlink:href="#path-3"></use>
                        </mask>
                        <g id="Clip-10"></g>
                        <polygon id="Fill-9" fill="#B73C1F" mask="url(#mask-4)" points="-206.346833 374.767256 459.783784 1040.10011 461.675916 1038.21025 -204.454701 372.87739"></polygon>
                    </g>
                    <g id="Group-14">
                        <mask id="mask-6" fill="white">
                            <use xlink:href="#path-5"></use>
                        </mask>
                        <g id="Clip-13"></g>
                        <polygon id="Fill-12" fill="#B73C1F" mask="url(#mask-6)" points="-236.850962 405.234853 429.280994 1070.56771 431.173125 1068.67784 -234.95883 403.344987"></polygon>
                    </g>
                    <g id="Group-17">
                        <mask id="mask-8" fill="white">
                            <use xlink:href="#path-7"></use>
                        </mask>
                        <g id="Clip-16"></g>
                        <polygon id="Fill-15" fill="#B73C1F" mask="url(#mask-8)" points="-216.514831 384.923077 449.615786 1050.25593 451.507917 1048.36607 -214.6227 383.033212"></polygon>
                    </g>
                    <g id="Group-20">
                        <mask id="mask-10" fill="white">
                            <use xlink:href="#path-9"></use>
                        </mask>
                        <g id="Clip-19"></g>
                        <polygon id="Fill-18" fill="#B73C1F" mask="url(#mask-10)" points="-186.010702 354.45548 480.119915 1019.78834 482.012046 1017.89847 -184.118571 352.565614"></polygon>
                    </g>
                    <g id="Group-23">
                        <mask id="mask-12" fill="white">
                            <use xlink:href="#path-11"></use>
                        </mask>
                        <g id="Clip-22"></g>
                        <polygon id="Fill-21" fill="#B73C1F" mask="url(#mask-12)" points="-165.674705 334.143704 500.455912 999.47656 502.348043 997.586694 -163.782574 332.253838"></polygon>
                    </g>
                    <g id="Group-26">
                        <mask id="mask-14" fill="white">
                            <use xlink:href="#path-13"></use>
                        </mask>
                        <g id="Clip-25"></g>
                        <polygon id="Fill-24" fill="#B73C1F" mask="url(#mask-14)" points="-196.178834 364.611301 469.951783 1029.94416 471.843914 1028.05429 -194.286703 362.721436"></polygon>
                    </g>
                    <g id="Group-29">
                        <mask id="mask-16" fill="white">
                            <use xlink:href="#path-15"></use>
                        </mask>
                        <g id="Clip-28"></g>
                        <polygon id="Fill-27" fill="#B73C1F" mask="url(#mask-16)" points="-175.842704 344.299659 490.287913 1009.63251 492.180045 1007.74265 -173.950572 342.409793"></polygon>
                    </g>
                    <g id="Group-32">
                        <mask id="mask-18" fill="white">
                            <use xlink:href="#path-17"></use>
                        </mask>
                        <g id="Clip-31"></g>
                        <polygon id="Fill-30" fill="#B73C1F" mask="url(#mask-18)" points="-145.338575 313.832062 520.792042 979.164917 522.684174 977.275052 -143.446443 311.942196"></polygon>
                    </g>
                    <g id="Group-35">
                        <mask id="mask-20" fill="white">
                            <use xlink:href="#path-19"></use>
                        </mask>
                        <g id="Clip-34"></g>
                        <polygon id="Fill-33" fill="#B73C1F" mask="url(#mask-20)" points="-125.002444 293.520286 541.128173 958.854478 543.020304 956.964613 -123.110312 291.63042"></polygon>
                    </g>
                    <g id="Group-38">
                        <mask id="mask-22" fill="white">
                            <use xlink:href="#path-21"></use>
                        </mask>
                        <g id="Clip-37"></g>
                        <polygon id="Fill-36" fill="#B73C1F" mask="url(#mask-22)" points="-155.506573 323.987883 510.624044 989.320738 512.516175 987.430873 -153.614442 322.098017"></polygon>
                    </g>
                    <g id="Group-41">
                        <mask id="mask-24" fill="white">
                            <use xlink:href="#path-23"></use>
                        </mask>
                        <g id="Clip-40"></g>
                        <polygon id="Fill-39" fill="#B73C1F" mask="url(#mask-24)" points="-135.170576 303.676107 530.960041 969.008963 532.852172 967.119097 -133.278445 301.786241"></polygon>
                    </g>
                    <g id="Group-44">
                        <mask id="mask-26" fill="white">
                            <use xlink:href="#path-25"></use>
                        </mask>
                        <g id="Clip-43"></g>
                        <polygon id="Fill-42" fill="#B73C1F" mask="url(#mask-26)" points="-104.666447 273.20851 561.46417 938.542702 563.356301 936.652837 -102.774316 271.318644"></polygon>
                    </g>
                    <g id="Group-47">
                        <mask id="mask-28" fill="white">
                            <use xlink:href="#path-27"></use>
                        </mask>
                        <g id="Clip-46"></g>
                        <polygon id="Fill-45" fill="#B73C1F" mask="url(#mask-28)" points="-84.3316546 252.896867 581.8003 918.23106 583.692432 916.341194 -82.4395232 251.007002"></polygon>
                    </g>
                    <g id="Group-50">
                        <mask id="mask-30" fill="white">
                            <use xlink:href="#path-29"></use>
                        </mask>
                        <g id="Clip-49"></g>
                        <polygon id="Fill-48" fill="#B73C1F" mask="url(#mask-30)" points="-114.834446 283.364464 551.296171 948.698657 553.188303 946.808791 -112.942314 281.474599"></polygon>
                    </g>
                    <g id="Group-53">
                        <mask id="mask-32" fill="white">
                            <use xlink:href="#path-31"></use>
                        </mask>
                        <g id="Clip-52"></g>
                        <polygon id="Fill-51" fill="#B73C1F" mask="url(#mask-32)" points="-94.4983149 263.052688 571.632302 928.386881 573.524433 926.497015 -92.6061835 261.162823"></polygon>
                    </g>
                    <g id="Group-56">
                        <mask id="mask-34" fill="white">
                            <use xlink:href="#path-33"></use>
                        </mask>
                        <g id="Clip-55"></g>
                        <polygon id="Fill-54" fill="#B73C1F" mask="url(#mask-34)" points="-63.995524 232.585091 602.136431 897.919284 604.028563 896.029418 -62.1033926 230.695226"></polygon>
                    </g>
                    <g id="Group-59">
                        <mask id="mask-36" fill="white">
                            <use xlink:href="#path-35"></use>
                        </mask>
                        <g id="Clip-58"></g>
                        <polygon id="Fill-57" fill="#B73C1F" mask="url(#mask-36)" points="-43.6595272 212.273315 622.472428 877.607508 624.364559 875.717642 -41.7673958 210.38345"></polygon>
                    </g>
                    <g id="Group-62">
                        <mask id="mask-38" fill="white">
                            <use xlink:href="#path-37"></use>
                        </mask>
                        <g id="Clip-61"></g>
                        <polygon id="Fill-60" fill="#B73C1F" mask="url(#mask-38)" points="-74.1636562 242.740913 591.968299 908.075105 593.86043 906.185239 -72.2715248 240.851047"></polygon>
                    </g>
                    <g id="Group-65">
                        <mask id="mask-40" fill="white">
                            <use xlink:href="#path-39"></use>
                        </mask>
                        <g id="Clip-64"></g>
                        <polygon id="Fill-63" fill="#B73C1F" mask="url(#mask-40)" points="-53.8275256 222.42927 612.304429 887.763462 614.196561 885.873597 -51.9353942 220.539405"></polygon>
                    </g>
                    <g id="Group-68">
                        <mask id="mask-42" fill="white">
                            <use xlink:href="#path-41"></use>
                        </mask>
                        <g id="Clip-67"></g>
                        <polygon id="Fill-66" fill="#B73C1F" mask="url(#mask-42)" points="-23.3233966 191.96301 642.808558 857.295865 644.70069 855.406 -21.4312652 190.073144"></polygon>
                    </g>
                    <g id="Group-71">
                        <mask id="mask-44" fill="white">
                            <use xlink:href="#path-43"></use>
                        </mask>
                        <g id="Clip-70"></g>
                        <polygon id="Fill-69" fill="#B73C1F" mask="url(#mask-44)" points="-2.98726603 171.651234 663.144689 836.984089 665.036821 835.094224 -1.09513462 169.761368"></polygon>
                    </g>
                    <g id="Group-74">
                        <mask id="mask-46" fill="white">
                            <use xlink:href="#path-45"></use>
                        </mask>
                        <g id="Clip-73"></g>
                        <polygon id="Fill-72" fill="#B73C1F" mask="url(#mask-46)" points="-33.491395 202.117494 632.64056 867.451687 634.532692 865.561821 -31.5992636 200.227629"></polygon>
                    </g>
                    <g id="Group-77">
                        <mask id="mask-48" fill="white">
                            <use xlink:href="#path-47"></use>
                        </mask>
                        <g id="Clip-76"></g>
                        <polygon id="Fill-75" fill="#B73C1F" mask="url(#mask-48)" points="-13.1553982 181.807055 652.976557 847.139911 654.868688 845.250045 -11.2632668 179.917189"></polygon>
                    </g>
                    <g id="Group-80">
                        <mask id="mask-50" fill="white">
                            <use xlink:href="#path-49"></use>
                        </mask>
                        <g id="Clip-79"></g>
                        <polygon id="Fill-78" fill="#B73C1F" mask="url(#mask-50)" points="17.3487308 151.339458 683.480686 816.672313 685.372817 814.782448 19.2408622 149.449592"></polygon>
                    </g>
                    <g id="Group-83">
                        <mask id="mask-52" fill="white">
                            <use xlink:href="#path-51"></use>
                        </mask>
                        <g id="Clip-82"></g>
                        <polygon id="Fill-81" fill="#B73C1F" mask="url(#mask-52)" points="37.6848614 131.027815 703.815478 796.360671 705.70761 794.470806 39.5769928 129.13795"></polygon>
                    </g>
                    <g id="Group-86">
                        <mask id="mask-54" fill="white">
                            <use xlink:href="#path-53"></use>
                        </mask>
                        <g id="Clip-85"></g>
                        <polygon id="Fill-84" fill="#B73C1F" mask="url(#mask-54)" points="7.18073237 161.495413 673.312688 826.828268 675.204819 824.938403 9.07286378 159.605547"></polygon>
                    </g>
                    <g id="Group-89">
                        <mask id="mask-56" fill="white">
                            <use xlink:href="#path-55"></use>
                        </mask>
                        <g id="Clip-88"></g>
                        <polygon id="Fill-87" fill="#B73C1F" mask="url(#mask-56)" points="27.516863 141.183637 693.64748 806.516492 695.539611 804.626627 29.4089944 139.293771"></polygon>
                    </g>
                    <g id="Group-92">
                        <mask id="mask-58" fill="white">
                            <use xlink:href="#path-57"></use>
                        </mask>
                        <g id="Clip-91"></g>
                        <polygon id="Fill-90" fill="#B73C1F" mask="url(#mask-58)" points="58.020992 110.716039 724.151609 776.048895 726.04374 774.15903 59.9131234 108.826174"></polygon>
                    </g>
                    <g id="Group-95">
                        <mask id="mask-60" fill="white">
                            <use xlink:href="#path-59"></use>
                        </mask>
                        <g id="Clip-94"></g>
                        <polygon id="Fill-93" fill="#B73C1F" mask="url(#mask-60)" points="78.3569888 90.4042635 744.487606 755.737119 746.379737 753.847254 80.2491202 88.5143981"></polygon>
                    </g>
                    <g id="Group-98">
                        <mask id="mask-62" fill="white">
                            <use xlink:href="#path-61"></use>
                        </mask>
                        <g id="Clip-97"></g>
                        <polygon id="Fill-96" fill="#B73C1F" mask="url(#mask-62)" points="47.8528598 120.871861 713.983477 786.204716 715.875608 784.314851 49.7449912 118.981995"></polygon>
                    </g>
                    <g id="Group-101">
                        <mask id="mask-64" fill="white">
                            <use xlink:href="#path-63"></use>
                        </mask>
                        <g id="Clip-100"></g>
                        <polygon id="Fill-99" fill="#B73C1F" mask="url(#mask-64)" points="68.1889904 100.560218 734.319607 765.893074 736.211739 764.003209 70.0811218 98.6703529"></polygon>
                    </g>
                    <g id="Group-104">
                        <mask id="mask-66" fill="white">
                            <use xlink:href="#path-65"></use>
                        </mask>
                        <g id="Clip-103"></g>
                        <polygon id="Fill-102" fill="#B73C1F" mask="url(#mask-66)" points="98.6931194 70.0926212 764.823736 735.425477 766.715868 733.535612 100.585251 68.2027558"></polygon>
                    </g>
                    <g id="Group-107">
                        <mask id="mask-68" fill="white">
                            <use xlink:href="#path-67"></use>
                        </mask>
                        <g id="Clip-106"></g>
                        <polygon id="Fill-105" fill="#B73C1F" mask="url(#mask-68)" points="119.02925 49.7808452 785.159867 715.115038 787.051998 713.225172 120.921381 47.8909798"></polygon>
                    </g>
                    <g id="Group-110">
                        <mask id="mask-70" fill="white">
                            <use xlink:href="#path-69"></use>
                        </mask>
                        <g id="Clip-109"></g>
                        <polygon id="Fill-108" fill="#B73C1F" mask="url(#mask-70)" points="88.525121 80.2484423 754.655738 745.581298 756.547869 743.691433 90.4172524 78.3585769"></polygon>
                    </g>
                    <g id="Group-113">
                        <mask id="mask-72" fill="white">
                            <use xlink:href="#path-71"></use>
                        </mask>
                        <g id="Clip-112"></g>
                        <polygon id="Fill-111" fill="#B73C1F" mask="url(#mask-72)" points="108.861118 59.9366663 774.991735 725.270859 776.883866 723.380993 110.753249 58.046801"></polygon>
                    </g>
                    <g id="Group-116">
                        <mask id="mask-74" fill="white">
                            <use xlink:href="#path-73"></use>
                        </mask>
                        <g id="Clip-115"></g>
                        <polygon id="Fill-114" fill="#B73C1F" mask="url(#mask-74)" points="139.365247 29.4690692 805.495864 694.803262 807.387995 692.913396 141.257378 27.5792038"></polygon>
                    </g>
                    <g id="Group-119">
                        <mask id="mask-76" fill="white">
                            <use xlink:href="#path-75"></use>
                        </mask>
                        <g id="Clip-118"></g>
                        <polygon id="Fill-117" fill="#B73C1F" mask="url(#mask-76)" points="159.700039 9.15742692 825.831994 674.491619 827.724126 672.601754 161.592171 7.26756154"></polygon>
                    </g>
                    <g id="Group-122">
                        <mask id="mask-78" fill="white">
                            <use xlink:href="#path-77"></use>
                        </mask>
                        <g id="Clip-121"></g>
                        <polygon id="Fill-120" fill="#B73C1F" mask="url(#mask-78)" points="129.197248 39.625024 795.327865 704.959216 797.219997 703.069351 131.08938 37.7351587"></polygon>
                    </g>
                    <g id="Group-125">
                        <mask id="mask-80" fill="white">
                            <use xlink:href="#path-79"></use>
                        </mask>
                        <g id="Clip-124"></g>
                        <polygon id="Fill-123" fill="#B73C1F" mask="url(#mask-80)" points="149.533379 19.3132481 815.663996 684.64744 817.556127 682.757575 151.42551 17.4233827"></polygon>
                    </g>
                    <g id="Group-128">
                        <mask id="mask-82" fill="white">
                            <use xlink:href="#path-81"></use>
                        </mask>
                        <g id="Clip-127"></g>
                        <polygon id="Fill-126" fill="#B73C1F" mask="url(#mask-82)" points="180.03617 -11.154349 846.168125 654.179843 848.060256 652.289978 181.928301 -13.0442144"></polygon>
                    </g>
                    <g id="Group-131">
                        <mask id="mask-84" fill="white">
                            <use xlink:href="#path-83"></use>
                        </mask>
                        <g id="Clip-130"></g>
                        <polygon id="Fill-129" fill="#B73C1F" mask="url(#mask-84)" points="200.3723 -31.466125 866.504256 633.868067 868.396387 631.978202 202.264432 -33.3559904"></polygon>
                    </g>
                    <g id="Group-134">
                        <mask id="mask-86" fill="white">
                            <use xlink:href="#path-85"></use>
                        </mask>
                        <g id="Clip-133"></g>
                        <polygon id="Fill-132" fill="#B73C1F" mask="url(#mask-86)" points="169.868171 -0.998527885 836.000127 664.335664 837.892258 662.445799 171.760303 -2.88839327"></polygon>
                    </g>
                    <g id="Group-137">
                        <mask id="mask-88" fill="white">
                            <use xlink:href="#path-87"></use>
                        </mask>
                        <g id="Clip-136"></g>
                        <polygon id="Fill-135" fill="#B73C1F" mask="url(#mask-88)" points="190.204168 -21.3101702 856.336123 644.024022 858.228255 642.134157 192.0963 -23.2000356"></polygon>
                    </g>
                    <g id="Group-140">
                        <mask id="mask-90" fill="white">
                            <use xlink:href="#path-89"></use>
                        </mask>
                        <g id="Clip-139"></g>
                        <polygon id="Fill-138" fill="#B73C1F" mask="url(#mask-90)" points="220.708297 -51.7765644 886.840252 613.556291 888.732384 611.666426 222.600429 -53.6664298"></polygon>
                    </g>
                    <g id="Group-143">
                        <mask id="mask-92" fill="white">
                            <use xlink:href="#path-91"></use>
                        </mask>
                        <g id="Clip-142"></g>
                        <polygon id="Fill-141" fill="#B73C1F" mask="url(#mask-92)" points="241.044428 -72.0882067 907.176383 593.244649 909.068514 591.354784 242.936559 -73.9780721"></polygon>
                    </g>
                    <g id="Group-146">
                        <mask id="mask-94" fill="white">
                            <use xlink:href="#path-93"></use>
                        </mask>
                        <g id="Clip-145"></g>
                        <polygon id="Fill-144" fill="#B73C1F" mask="url(#mask-94)" points="210.540299 -41.6219462 876.672254 623.712246 878.564385 621.822381 212.43243 -43.5118115"></polygon>
                    </g>
                    <g id="Group-149">
                        <mask id="mask-96" fill="white">
                            <use xlink:href="#path-95"></use>
                        </mask>
                        <g id="Clip-148"></g>
                        <polygon id="Fill-147" fill="#B73C1F" mask="url(#mask-96)" points="230.876429 -61.9323856 897.008385 603.40047 898.900516 601.510605 232.768561 -63.822251"></polygon>
                    </g>
                    <g id="Group-152">
                        <mask id="mask-98" fill="white">
                            <use xlink:href="#path-97"></use>
                        </mask>
                        <g id="Clip-151"></g>
                        <polygon id="Fill-150" fill="#B73C1F" mask="url(#mask-98)" points="261.380558 -92.3999827 927.511175 572.932873 929.403307 571.043008 263.27269 -94.2898481"></polygon>
                    </g>
                    <g id="Group-155">
                        <mask id="mask-100" fill="white">
                            <use xlink:href="#path-99"></use>
                        </mask>
                        <g id="Clip-154"></g>
                        <polygon id="Fill-153" fill="#B73C1F" mask="url(#mask-100)" points="281.716555 -112.711759 947.847172 552.621097 949.739304 550.731232 283.608687 -114.601624"></polygon>
                    </g>
                    <g id="Group-158">
                        <mask id="mask-102" fill="white">
                            <use xlink:href="#path-101"></use>
                        </mask>
                        <g id="Clip-157"></g>
                        <polygon id="Fill-156" fill="#B73C1F" mask="url(#mask-102)" points="251.212426 -82.2441615 917.344381 583.088694 919.236513 581.198829 253.104558 -84.1340269"></polygon>
                    </g>
                    <g id="Group-161">
                        <mask id="mask-104" fill="white">
                            <use xlink:href="#path-103"></use>
                        </mask>
                        <g id="Clip-160"></g>
                        <polygon id="Fill-159" fill="#B73C1F" mask="url(#mask-104)" points="271.548557 -102.555804 937.679174 562.777052 939.571305 560.887187 273.440688 -104.445669"></polygon>
                    </g>
                    <g id="Group-164">
                        <mask id="mask-106" fill="white">
                            <use xlink:href="#path-105"></use>
                        </mask>
                        <g id="Clip-163"></g>
                        <polygon id="Fill-162" fill="#B73C1F" mask="url(#mask-106)" points="302.052686 -133.023401 968.183303 532.309455 970.075434 530.419589 303.944817 -134.913266"></polygon>
                    </g>
                    <g id="Group-167">
                        <mask id="mask-108" fill="white">
                            <use xlink:href="#path-107"></use>
                        </mask>
                        <g id="Clip-166"></g>
                        <polygon id="Fill-165" fill="#B73C1F" mask="url(#mask-108)" points="322.388817 -153.335177 988.519433 511.997679 990.411565 510.107813 324.280948 -155.225042"></polygon>
                    </g>
                    <g id="Group-170">
                        <mask id="mask-110" fill="white">
                            <use xlink:href="#path-109"></use>
                        </mask>
                        <g id="Clip-169"></g>
                        <polygon id="Fill-168" fill="#B73C1F" mask="url(#mask-110)" points="291.884687 -122.86758 958.015304 542.465276 959.907436 540.575411 293.776819 -124.757445"></polygon>
                    </g>
                    <g id="Group-173">
                        <mask id="mask-112" fill="white">
                            <use xlink:href="#path-111"></use>
                        </mask>
                        <g id="Clip-172"></g>
                        <polygon id="Fill-171" fill="#B73C1F" mask="url(#mask-112)" points="312.220684 -143.179356 978.351301 522.1535 980.243433 520.263635 314.112816 -145.069221"></polygon>
                    </g>
                    <g id="Group-176">
                        <mask id="mask-114" fill="white">
                            <use xlink:href="#path-113"></use>
                        </mask>
                        <g id="Clip-175"></g>
                        <polygon id="Fill-174" fill="#B73C1F" mask="url(#mask-114)" points="342.724813 -173.646953 1008.85543 491.685903 1010.74756 489.796038 344.616945 -175.536818"></polygon>
                    </g>
                    <g id="Group-179">
                        <mask id="mask-116" fill="white">
                            <use xlink:href="#path-115"></use>
                        </mask>
                        <g id="Clip-178"></g>
                        <polygon id="Fill-177" fill="#B73C1F" mask="url(#mask-116)" points="363.060944 -193.958595 1029.19156 471.375597 1031.08369 469.485732 364.953075 -195.848461"></polygon>
                    </g>
                    <g id="Group-182">
                        <mask id="mask-118" fill="white">
                            <use xlink:href="#path-117"></use>
                        </mask>
                        <g id="Clip-181"></g>
                        <polygon id="Fill-180" fill="#B73C1F" mask="url(#mask-118)" points="332.556815 -163.490998 998.687432 501.841858 1000.57956 499.951992 334.448946 -165.380863"></polygon>
                    </g>
                    <g id="Group-185">
                        <mask id="mask-120" fill="white">
                            <use xlink:href="#path-119"></use>
                        </mask>
                        <g id="Clip-184"></g>
                        <polygon id="Fill-183" fill="#B73C1F" mask="url(#mask-120)" points="352.892812 -183.802774 1019.02343 481.531418 1020.91556 479.641553 354.784943 -185.692639"></polygon>
                    </g>
                    <g id="Group-188">
                        <mask id="mask-122" fill="white">
                            <use xlink:href="#path-121"></use>
                        </mask>
                        <g id="Clip-187"></g>
                        <polygon id="Fill-186" fill="#B73C1F" mask="url(#mask-122)" points="383.396941 -214.270371 1049.52756 451.063821 1051.41969 449.173956 385.289072 -216.160237"></polygon>
                    </g>
                    <g id="Group-191">
                        <mask id="mask-124" fill="white">
                            <use xlink:href="#path-123"></use>
                        </mask>
                        <g id="Clip-190"></g>
                        <polygon id="Fill-189" fill="#B73C1F" mask="url(#mask-124)" points="405.623998 -236.472013 403.731867 -234.582147 1069.86382 430.752045 1071.75595 428.86218"></polygon>
                    </g>
                    <g id="Group-194">
                        <mask id="mask-126" fill="white">
                            <use xlink:href="#path-125"></use>
                        </mask>
                        <g id="Clip-193"></g>
                        <polygon id="Fill-192" fill="#B73C1F" mask="url(#mask-126)" points="373.228942 -204.114416 1039.35956 461.219776 1041.25169 459.329911 375.121074 -206.004282"></polygon>
                    </g>
                </g>
                <path d="M637,418.5 C637,546.353569 533.353569,650 405.5,650 C277.646431,650 174,546.353569 174,418.5 C174,290.646431 277.646431,187 405.5,187 C533.353569,187 637,290.646431 637,418.5" id="Fill-199" fill-opacity="0.5" fill="#F15A26"></path>
                <g id="Group-237" transform="translate(159.000000, 186.000000)">
                    <path d="M271.611382,232.065133 C271.611382,245.784203 260.484845,256.905896 246.758151,256.905896 C233.031456,256.905896 221.903582,245.784203 221.903582,232.065133 C221.903582,218.346062 233.031456,207.224369 246.758151,207.224369 C260.484845,207.224369 271.611382,218.346062 271.611382,232.065133" id="Fill-201" fill="#B73C1F"></path>
                    <path d="M158.07512,18.2161145 C247.599425,-18.6923004 354.405088,3.59384066 421.166983,80.8738407 C429.913941,90.9988033 437.624846,101.664886 444.311731,112.746496" id="Stroke-203" stroke="#FCD7CB" stroke-width="5"></path>
                    <polyline id="Stroke-205" stroke="#FCD7CB" stroke-width="5" points="418.290634 105.708458 445.103676 113.610151 453.00976 86.8120017"></polyline>
                    <path d="M466.602236,301.59188 C454.140194,341.060262 430.912562,377.670727 397.268257,406.704171 C353.558867,444.41959 299.754983,462.888495 246.211783,462.864445 C245.656994,462.864445 245.100867,462.861773 244.546078,462.857764" id="Stroke-207" stroke="#FCD7CB" stroke-width="5"></path>
                    <polyline id="Stroke-209" stroke="#FCD7CB" stroke-width="5" points="263.497553 442.372953 244.416805 462.78989 264.845089 481.861376"></polyline>
                    <path d="M105.285498,415.015512 C93.1108768,405.637429 81.6942453,394.900533 71.2561821,382.818184 C18.23034,321.437769 3.22963474,240.13611 24.1512137,167.624649" id="Stroke-211" stroke="#FCD7CB" stroke-width="5"></path>
                    <polyline id="Stroke-213" stroke="#FCD7CB" stroke-width="5" points="37.5059989 190.437213 25.1308516 165.385346 0.0650621053 177.752284"></polyline>
                    <polyline id="Stroke-225" stroke="#FFFFFF" stroke-width="5" points="621.687684 546.434668 633.497347 533.95817 621.015253 522.155066"></polyline>
                    <path d="M592.453487,533.804385 C608.495593,537.812684 632.708477,534.046219 632.708477,534.046219" id="Stroke-227" stroke="#FFFFFF" stroke-width="5"></path>
                    <polyline id="Stroke-229" stroke="#FFFFFF" stroke-width="5" points="597.042332 618.111734 614.223426 617.783054 613.894563 600.610166"></polyline>
                    <path d="M571.936036,578.781639 L613.608078,617.281349" id="Stroke-231" stroke="#FFFFFF" stroke-width="5"></path>
                    <polyline id="Stroke-233" stroke="#FFFFFF" stroke-width="5" points="520.143832 632.927609 534.2796 642.694497 544.050579 628.565244"></polyline>
                    <path d="M523.24838,600.869102 C532.296127,613.970895 534.579454,643.847417 534.579454,643.847417" id="Stroke-235" stroke="#FFFFFF" stroke-width="5"></path>
                </g>
            </g>
        </g>
    </g>
</svg>