<?xml version="1.0" encoding="utf-8"?>
<!-- Generator: Adobe Illustrator 24.1.0, SVG Export Plug-In . SVG Version: 6.00 Build 0)  -->
<svg version="1.1" id="Layer_1" xmlns="http://www.w3.org/2000/svg" xmlns:xlink="http://www.w3.org/1999/xlink" x="0px" y="0px"
	 viewBox="0 0 128 128" style="enable-background:new 0 0 128 128;" xml:space="preserve">
<style type="text/css">
	.st0{enable-background:new    ;}
</style>
<g id="Page-1">
	<g id="_x30_2a2.-Tipkaarten-Gefilterd" transform="translate(-805.000000, -624.000000)">
		<g id="Content" transform="translate(225.000000, 328.000000)">
			<g id="Filters" transform="translate(197.000000, 279.000000)">
				<g id="Top">
					<g class="st0">
						<path d="M387.8,85.1c-1-1-2.1-2.1-2.1-4.1c0-2.1,1-3.1,2.1-4.1l9.3-8.2c1-1,2.1-2.1,4.1-2.1s3.1,1,4.1,2.1l26.8,26.8
							l57.6-57.6c1-1,3.1-2.1,4.1-2.1s3.1,1,4.1,2.1l9.3,8.2c1,1,2.1,2.1,2.1,4.1c0,2.1-1,3.1-2.1,4.1l-71,71c-1,1-2.1,2.1-4.1,2.1
							c-2.1,0-3.1-1-4.1-2.1L387.8,85.1z"/>
					</g>
				</g>
			</g>
		</g>
	</g>
</g>
</svg>
