<?xml version="1.0" encoding="utf-8"?>
<!-- Generator: Adobe Illustrator 24.1.0, SVG Export Plug-In . SVG Version: 6.00 Build 0)  -->
<svg version="1.1" id="Layer_1" xmlns="http://www.w3.org/2000/svg" xmlns:xlink="http://www.w3.org/1999/xlink" x="0px" y="0px"
	 viewBox="0 0 128 128" style="enable-background:new 0 0 128 128;" xml:space="preserve">
<path d="M88,26.6c5.1,0,8.3,0.2,10.4,0.5l4.1,0.7V9.2l-3-0.5C97.1,8.4,92.3,8,88,8C59.8,8,40.9,20.7,34.3,43.7H18.5v16.5h13.3
	c0,1-0.1,2.1-0.1,3.3c0,1,0,2,0,2.9H18.5v16.5h15.7C40.7,106.2,59.7,119,88,119c4.3,0,9.1-0.4,11.5-0.7l3-0.5V99.3l-4,0.5
	c-2.6,0.4-6,0.5-10.5,0.5c-15.9,0-27.1-6-32.5-17.5h36.1V66.4H51.8c-0.1-1-0.1-2-0.1-2.9c0-1.1,0-2.1,0.1-3.3h39.8V43.7H55.7
	C61.2,32.5,72.2,26.6,88,26.6z"/>
</svg>
