<?xml version="1.0" encoding="utf-8"?>
<!-- Generator: Adobe Illustrator 24.1.0, SVG Export Plug-In . SVG Version: 6.00 Build 0)  -->
<svg version="1.1" id="Layer_1" xmlns="http://www.w3.org/2000/svg" xmlns:xlink="http://www.w3.org/1999/xlink" x="0px" y="0px"
	 viewBox="0 0 128 128" style="enable-background:new 0 0 128 128;" xml:space="preserve">
<style type="text/css">
	.st0{fill-rule:evenodd;clip-rule:evenodd;}
</style>
<path class="st0" d="M91.2,17.5C83.8,9.9,74.9,6.1,64.5,6.1S45.2,9.9,37.8,17.5S26.7,34.3,26.7,45c0,5.5,0.8,10.1,2.4,13.6
	l26.9,58.9c0.7,1.7,1.9,3,3.4,4c1.5,1,3.2,1.4,5,1.4c1.8,0,3.4-0.5,5-1.4c1.5-1,2.7-2.3,3.5-4l26.9-58.9c1.6-3.5,2.4-8.1,2.4-13.6
	C102.3,34.3,98.6,25.1,91.2,17.5z M77.9,58.8c-3.7,3.8-8.1,5.7-13.4,5.7s-9.7-1.9-13.4-5.7c-3.7-3.8-5.5-8.4-5.5-13.8
	c0-5.4,1.8-10,5.5-13.8c3.7-3.8,8.1-5.7,13.4-5.7c5.2,0,9.7,1.9,13.4,5.7c3.7,3.8,5.5,8.4,5.5,13.8S81.5,55,77.9,58.8z"/>
</svg>
