<?xml version="1.0" encoding="utf-8"?>
<!-- Generator: Adobe Illustrator 24.1.0, SVG Export Plug-In . SVG Version: 6.00 Build 0)  -->
<svg version="1.1" id="Layer_1" xmlns="http://www.w3.org/2000/svg" xmlns:xlink="http://www.w3.org/1999/xlink" x="0px" y="0px"
	 viewBox="0 0 128 128" style="enable-background:new 0 0 128 128;" xml:space="preserve">
<path d="M70.7,4.2c-30.1,0-54.7,24.5-54.7,54.7c0,11.5,3.6,22.2,9.7,31L2.6,113l12,12l22.8-22.8c9.2,7.1,20.8,11.4,33.3,11.4
	c30.1,0,54.7-24.5,54.7-54.7C125.4,28.7,100.9,4.2,70.7,4.2z M70.7,96.8c-20.9,0-37.9-17-37.9-37.9C32.9,38,49.9,21,70.7,21
	c20.9,0,37.9,17,37.9,37.9C108.6,79.8,91.6,96.8,70.7,96.8z"/>
</svg>
