<?xml version="1.0" encoding="utf-8"?>
<!-- Generator: Adobe Illustrator 24.1.0, SVG Export Plug-In . SVG Version: 6.00 Build 0)  -->
<svg version="1.1" id="Layer_1" xmlns="http://www.w3.org/2000/svg" xmlns:xlink="http://www.w3.org/1999/xlink" x="0px" y="0px"
	 viewBox="0 0 128 128" style="enable-background:new 0 0 128 128;" xml:space="preserve">
<path d="M69.7,53.1l5.5,16.4l-17,5.7l-5.5-16.4L69.7,53.1L69.7,53.1z M81.5,122.2c-43.7,13.1-62.5,2.9-75.6-40.7S2.9,18.9,46.5,5.8
	s62.5-2.9,75.6,40.7S125.1,109.1,81.5,122.2L81.5,122.2z M104.3,66.6c-1.1-3.5-4.9-5.3-8.3-4.2l-8.2,2.7l-5.5-16.4l8.2-2.7
	c3.5-1.1,5.3-4.9,4.2-8.3s-4.9-5.3-8.3-4.2l-8.2,2.7l-2.8-8.5c-1.1-3.5-4.9-5.3-8.3-4.2c-3.5,1.1-5.3,4.9-4.2,8.3l2.8,8.5l-17,5.7
	l-2.8-8.5c-1.1-3.5-4.9-5.3-8.3-4.2s-5.3,4.9-4.2,8.3l2.8,8.5l-8.2,2.7c-3.5,1.1-5.3,4.9-4.2,8.3c0.9,2.6,3.5,4.4,6.1,4.5
	c1.2,0.2,2.2-0.3,10.5-3l5.5,16.4l-8.2,2.7c-3.5,1.1-5.3,4.9-4.2,8.3c0.9,2.6,3.5,4.4,6.1,4.5c1.2,0.2,2.2-0.3,10.5-3l2.8,8.5
	c1,3.1,4.5,5.3,8.3,4.2c3.5-1.1,5.3-4.9,4.2-8.3l-2.8-8.5l17-5.7l2.8,8.5c1,3.1,4.5,5.3,8.3,4.2c3.5-1.1,5.3-4.9,4.2-8.3l-2.8-8.5
	l8.2-2.7C103.6,73.8,105.4,70,104.3,66.6L104.3,66.6z"/>
</svg>
