<?xml version="1.0" encoding="utf-8"?>
<!-- Generator: Adobe Illustrator 18.0.0, SVG Export Plug-In . SVG Version: 6.00 Build 0)  -->
<!DOCTYPE svg PUBLIC "-//W3C//DTD SVG 1.1//EN" "http://www.w3.org/Graphics/SVG/1.1/DTD/svg11.dtd">
<svg version="1.1" id="Layer_1" xmlns="http://www.w3.org/2000/svg" xmlns:xlink="http://www.w3.org/1999/xlink" x="0px" y="0px"
	 width="128px" height="128px" viewBox="0 0 128 128" enable-background="new 0 0 128 128" xml:space="preserve">
<g id="Laag_2" display="none">
	<rect x="-7" y="2.6" display="inline" fill="#0063AF" width="79" height="59.5"/>
</g>
<g id="Laag_1" display="none">
	<path display="inline" fill="#FFFFFF" d="M26.6,16.2h-5.4c-1.1,0-2.2,1.1-2.2,1.9v5.6h7.7c-0.3,4.3-1,8.2-1,8.2H19v24.5H9V32.1H4
		v-8.2h4.9V17c0-1.3-0.3-9.5,10.3-9.5h7.4V16.2z"/>
</g>
<g id="Laag_3" display="none">
	<path display="inline" fill="#FFFFFF" d="M51.1,17.6L30.6,33.7L10,17.6H51.1z M7.4,19.7l14.5,11.4L7.4,45.4V19.7z M9.3,48.2
		l15.2-15l6,4.7l0.1,0.1l0,0l0,0l0,0l6.4-5l15.4,15.3L9.3,48.2L9.3,48.2z M54.7,45.7l-15-14.9l15-11.8V45.7z"/>
</g>
<g id="Laag_4" display="none">
	<path display="inline" fill="#FFFFFF" d="M25.9,23.6V41l14.2-7.7l1.9-1.1l-15.3-8.1L25.9,23.6z M61.8,44.3c-0.6,5.1-3.6,8.8-8.9,9
		c0,0-12.1,0.7-20.9,0.7h-0.1C23.1,54,11,53.3,11,53.3c-5.3-0.4-8.3-3.9-8.9-9c0,0-0.7-6.7-0.7-12.1c0.1-5.4,0.8-12.1,0.8-12.1
		c0.6-5.1,3.9-8.8,8.9-9c0,0,14.9-0.3,20.9-0.3h0.1c6,0,20.9,0.3,20.9,0.3c4.9,0.3,8.2,3.9,8.8,9c0,0,0.7,6.7,0.7,12.1
		S61.8,44.3,61.8,44.3z"/>
</g>
<g id="Laag_5" display="none">
	<path display="inline" fill="#FFFFFF" d="M15,45.1C7.4,45.1,1.3,39,1.3,31.5S7.4,17.9,15,17.9S28.8,24,28.8,31.5S22.7,45.1,15,45.1
		 M49,45.1c-7.7,0-13.8-6.1-13.8-13.6S41.3,17.9,49,17.9S62.7,24,62.7,31.5C62.9,39,56.6,45.1,49,45.1"/>
</g>
<g id="Laag_6" display="none">
	<path display="inline" fill="#FFFFFF" d="M25.2,14.1c12.1,0,24.8,2.5,33.9,7.9c1.3,0.7,2.1,1.8,2.1,3.8c0,2.2-1.8,3.9-3.9,3.9
		c-0.8,0-1.4-0.1-2.1-0.7c-7.4-4.5-18.9-7-30.1-7c-5.6,0-11.3,0.6-16.4,1.9c-0.6,0.1-1.4,0.4-2.1,0.4c-2.2,0-3.9-1.7-3.9-3.9
		s1.4-3.5,2.9-3.9C11.5,15,18.1,14.1,25.2,14.1z M24.3,28.2c10.7,0,21.1,2.6,29.2,7.5c1.4,0.8,1.8,1.8,1.8,3.2
		c0,1.8-1.4,3.2-3.2,3.2c-0.8,0-1.4-0.4-2.1-0.7c-6.7-3.9-15.9-6.5-26-6.5c-5.1,0-9.7,0.7-13.4,1.7C9.8,36.9,9.3,37,8.7,37
		c-1.8,0-3.2-1.4-3.2-3.2s0.8-2.9,2.5-3.5C12.8,29.1,17.5,28.2,24.3,28.2z M24.9,41.7c8.9,0,17,2.1,23.8,6.1c1,0.6,1.7,1.3,1.7,2.8
		s-1.3,2.5-2.5,2.5c-0.7,0-1.1-0.3-1.7-0.6c-6-3.6-13.4-5.4-21.1-5.4c-4.5,0-8.8,0.6-12.9,1.4c-0.7,0.1-1.5,0.4-2.1,0.4
		c-1.5,0-2.6-1.3-2.6-2.6c0-1.7,1-2.6,2.2-2.8C14.6,42.2,19.6,41.7,24.9,41.7z"/>
</g>
<g id="Laag_7">
	<path d="M113.7,38c0,1.1,0,2.1,0,3.2c0,34.1-26,73.2-73.9,73.2c-14.8,0-28.5-4.2-39.8-11.6c2.1,0.4,4.2,0.4,6.3,0.4
		c12.3,0,23.2-4.2,32.4-10.9c-11.2-0.5-21.1-7.9-24.2-18.1c1.4,0.7,2.8,0.7,4.6,0.7c2.5,0,4.6-0.4,6.7-1.1C13.8,71.3,5,61.1,5,48.5
		v-0.4c3.5,1.8,7.4,3.2,11.6,3.2C9.6,46.7,5,38.6,5,29.8c0-4.6,1.4-9.1,3.5-13c12.7,15.5,32,25.7,53.5,26.7c-0.4-1.8-0.7-3.9-0.7-6
		c0-14.1,11.6-25.7,26-25.7c7.4,0,14.1,3.2,19,8.1c6-1.1,11.6-3.2,16.5-6.3c-2.1,6-6,10.9-11.6,14.1c5.3-0.7,10.2-2.1,14.8-3.9
		C123.2,29.9,119,34.5,113.7,38z"/>
</g>
</svg>
