<svg enable-background="new 0 0 578.9 578.9" viewBox="0 0 578.9 578.9" xmlns="http://www.w3.org/2000/svg"><circle cx="289.4" cy="289.5" fill="#1a84b6" r="289.5"/><path d="m37.5 147 482.9 317c36.7-48.6 58.5-109 58.5-174.5.1-159.9-129.5-289.5-289.5-289.5-108 0-202.2 59.3-251.9 147z" fill="#1a92c0"/><circle cx="289.4" cy="289.5" fill="none" r="289.5"/><path d="m289.4 0c159.8 0 289.5 129.6 289.5 289.5s-129.6 289.4-289.5 289.4c-71.1 0-136.4-25.7-186.7-68.3-3.1-2.6-6-5.2-9-7.9-57.6-52.9-93.7-128.9-93.7-213.2 0-159.9 129.6-289.5 289.4-289.5z" fill="none"/><path d="m289.6 497.6h-.1c-13.5 0-26.9-1.3-40-3.9l2.2-11.3c12.4 2.4 25.1 3.7 37.8 3.7zm40.1-3.9-2.2-11.3c12.5-2.5 24.7-6.2 36.4-11.1l4.4 10.7c-12.4 5.1-25.4 9.1-38.6 11.7zm-118.9-11.6c-12.4-5.1-24.4-11.5-35.6-19l6.4-9.6c10.6 7.1 21.9 13.1 33.6 18zm193.1-19.2-6.4-9.6c10.5-7.1 20.5-15.2 29.4-24.2l8.2 8.2c-9.5 9.5-20 18.1-31.2 25.6zm-259.9-25.5c-9.5-9.5-18.2-20-25.6-31.2l9.6-6.4c7.1 10.5 15.2 20.4 24.2 29.4zm316.7-31.3-9.6-6.4c7.1-10.6 13.1-21.9 18-33.6l10.7 4.4c-5.2 12.4-11.6 24.4-19.1 35.6zm-361.5-35.4c-5.2-12.4-9.1-25.4-11.7-38.6l11.3-2.3c2.5 12.5 6.2 24.7 11.1 36.4zm392.3-38.8-11.3-2.2c2.5-12.4 3.7-25.2 3.7-37.9v-.5h11.5v.5c0 13.4-1.3 26.9-3.9 40.1zm-396.4-40h-11.6v-.2c0-13.4 1.3-26.9 3.9-39.9l11.3 2.2c-2.4 12.3-3.7 25-3.7 37.7v.2zm384.9-38.6c-2.5-12.5-6.2-24.7-11.1-36.4l10.7-4.4c5.2 12.4 9.1 25.4 11.8 38.6zm-370.3-35.8-10.7-4.4c5.1-12.4 11.5-24.4 19-35.6l9.6 6.4c-7 10.6-13.1 21.9-17.9 33.6zm341.2-34.1c-7.1-10.5-15.2-20.4-24.3-29.4l8.1-8.2c9.5 9.5 18.2 20 25.7 31.1zm-299.1-29-8.2-8.1c9.5-9.5 20-18.2 31.1-25.7l6.4 9.6c-10.4 7.1-20.3 15.2-29.3 24.2zm245.3-24.6c-10.6-7.1-21.9-13.1-33.6-17.9l4.4-10.7c12.4 5.1 24.4 11.5 35.6 19zm-182.3-17.6-4.4-10.7c12.4-5.2 25.4-9.1 38.6-11.8l2.3 11.3c-12.6 2.6-24.8 6.3-36.5 11.2zm112.2-11.3c-12.3-2.4-24.9-3.6-37.6-3.6h-.3v-11.5h.3c13.4 0 26.8 1.3 39.8 3.8z" fill="#60c3db"/><path d="m245.2 135.9-12.2-5.7 16.8-35.2-35.2-16.8 5.8-12.1 47.3 22.5z" fill="#a7dee6"/><path d="m262.7 527.1-30.8-42.4 42.5-30.8 7.9 10.9-31.6 22.9 22.9 31.5z" fill="#a7dee6"/><g fill="#156b93"><path d="m279.1 177.4h-164c-3.1 0-5.6 2.5-5.6 5.6v231.5c0 3.1 2.5 5.6 5.6 5.6h157.3c6.7 0 12.2-5.5 12.2-12.2v-224.9c0-3.1-2.5-5.6-5.5-5.6z"/><path d="m484.7 133.1h-163.9c-3.1 0-5.6 2.5-5.6 5.6v195.6c0 3.1 2.5 5.6 5.6 5.6h156.5c7.2 0 13-5.8 13-13v-188.2c-.1-3.1-2.6-5.6-5.6-5.6z"/><path d="m480.7 375.1h-156.2c-5.2 0-9.4 4.2-9.4 9.4v70.1c0 5.2 4.2 9.4 9.4 9.4h156.2c5.2 0 9.4-4.2 9.4-9.4v-70.1c.1-5.2-4.2-9.4-9.4-9.4z"/></g><path d="m271.3 409.9h-169.3c-1.6 0-2.9-1.3-2.9-2.9v-236.9c0-1.6 1.3-2.9 2.9-2.9h169.3c1.6 0 2.9 1.3 2.9 2.9v236.9c0 1.6-1.3 2.9-2.9 2.9z" fill="#fff"/><path d="m476.9 329.6h-169.3c-1.6 0-2.9-1.3-2.9-2.9v-200.9c0-1.6 1.3-2.9 2.9-2.9h169.3c1.6 0 2.9 1.3 2.9 2.9v200.9c0 1.6-1.3 2.9-2.9 2.9z" fill="#74295f"/><path d="m476.8 453.8h-169.3c-1.6 0-2.9-1.3-2.9-2.9v-83.1c0-1.6 1.3-2.9 2.9-2.9h169.3c1.6 0 2.9 1.3 2.9 2.9v83.1c0 1.6-1.3 2.9-2.9 2.9z" fill="#74295f"/><path d="m474.1 364.9h-50.1v88.9h50.1c3.1 0 5.6-2.5 5.6-5.6v-77.8c0-3-2.5-5.5-5.6-5.5z" fill="#5e204d"/><path d="m342.4 401.7h104.4v15.4h-104.4z" fill="#b765a5"/><path d="m268.6 167.2h-163.9c-3.1 0-5.6 2.5-5.6 5.6v43.8h175v-43.8c.1-3.1-2.4-5.6-5.5-5.6z" fill="#74295f"/><path d="m135.2 258h95.3v16h-95.3z" fill="#d8d7d7"/><path d="m135.2 303.8h95.3v16h-95.3z" fill="#d8d7d7"/><path d="m135.2 349.7h63.3v16h-63.3z" fill="#d8d7d7"/><path d="m304.7 218.3v105.7c0 3.1 2.5 5.6 5.6 5.6h163.9c3.1 0 5.6-2.5 5.6-5.6v-85z" fill="#5e204d"/><path d="m462.1 232.6c.3-2.3.4-4.7.4-7.1s-.2-4.7-.4-7.1l-13.8-4.9c-1.2-4.7-3.1-9.2-5.5-13.3l6.3-13.2c-3-3.7-6.3-7.1-10.1-10l-13.2 6.3c-4.1-2.4-8.5-4.3-13.2-5.4l-4.9-13.7c-2.3-.3-4.7-.4-7.1-.4s-4.8.2-7.1.4l-4.9 13.7c-4.7 1.2-9.1 3-13.2 5.4l-13.2-6.3c-3.7 2.9-7.1 6.3-10.1 10l6.3 13.2c-2.5 4.1-4.4 8.6-5.5 13.3l-13.8 4.9c-.3 2.3-.4 4.7-.4 7.1s.2 4.7.4 7.1l13.8 4.9c1.2 4.7 3.1 9.2 5.5 13.3l-6.3 13.2c3 3.7 6.3 7.1 10.1 10l13.2-6.3c4.1 2.4 8.5 4.3 13.2 5.4l4.9 13.7c2.3.3 4.7.4 7.1.4s4.8-.2 7.1-.4l4.9-13.7c4.7-1.2 9.1-3 13.2-5.4l13.2 6.3c3.7-2.9 7.1-6.3 10.1-10l-6.3-13.2c2.5-4.1 4.4-8.6 5.5-13.3zm-61.5 14.8c-12.1 0-21.8-9.8-21.8-21.8 0-12.1 9.8-21.8 21.8-21.8 12.1 0 21.8 9.8 21.8 21.8.1 12-9.7 21.8-21.8 21.8z" fill="#5e204d"/><path d="m455.6 229.2c.3-2.2.4-4.5.4-6.8s-.1-4.6-.4-6.8l-13.3-4.7c-1.2-4.6-3-8.9-5.4-12.9l6-12.7c-2.9-3.6-6.1-6.8-9.7-9.7l-12.7 6.1c-3.9-2.3-8.2-4.1-12.7-5.3l-4.7-13.3c-2.3-.3-4.6-.4-6.9-.4s-4.6.1-6.9.4l-4.7 13.3c-4.5 1.1-8.8 2.9-12.7 5.3l-12.7-6.1c-3.6 2.8-6.9 6.1-9.7 9.7l6 12.7c-2.4 4-4.2 8.3-5.4 12.9l-13.3 4.7c-.3 2.2-.4 4.5-.4 6.8s.1 4.6.4 6.8l13.3 4.7c1.2 4.6 3 8.9 5.4 12.9l-6 12.7c2.9 3.6 6.1 6.8 9.7 9.7l12.7-6.1c3.9 2.3 8.2 4.1 12.7 5.3l4.7 13.3c2.3.3 4.6.4 6.9.4s4.6-.1 6.9-.4l4.7-13.3c4.5-1.1 8.8-2.9 12.7-5.3l12.7 6.1c3.6-2.8 6.9-6.1 9.7-9.7l-6-12.7c2.4-4 4.2-8.3 5.4-12.9zm-59.5 14.3c-11.7 0-21.1-9.5-21.1-21.1 0-11.7 9.5-21.1 21.1-21.1 11.7 0 21.1 9.5 21.1 21.1 0 11.7-9.4 21.1-21.1 21.1z" fill="#efefef"/><path d="m246.6 203.8h-12.4c-3.7 0-6.7-3-6.7-6.7v-12.4c0-3.7 3-6.7 6.7-6.7h12.4c3.7 0 6.7 3 6.7 6.7v12.3c0 3.7-3 6.8-6.7 6.8z" fill="#5e204d"/><path d="m415.3 231.1c-3.3 7.3-10.7 12.4-19.2 12.4-10.4 0-19-7.5-20.8-17.4l-39.1-4.8v1.1c0 2.3.1 4.6.4 6.8l13.3 4.7c1.2 4.6 3 8.9 5.4 12.9l-6 12.7c2.9 3.6 6.1 6.8 9.7 9.7l12.7-6.1c3.9 2.3 8.2 4.1 12.7 5.3l4.7 13.3c2.3.3 4.6.4 6.9.4s4.6-.1 6.9-.4l4.7-13.3c4.5-1.1 8.8-2.9 12.7-5.3l12.7 6.1c3.6-2.8 6.9-6.1 9.7-9.7l-6-12.7c2.3-3.8 4.1-8 5.2-12.4z" fill="#d8d7d7"/></svg>