<?xml version="1.0" encoding="utf-8"?>
<!-- Generator: Adobe Illustrator 24.1.0, SVG Export Plug-In . SVG Version: 6.00 Build 0)  -->
<svg version="1.1" xmlns="http://www.w3.org/2000/svg" xmlns:xlink="http://www.w3.org/1999/xlink" x="0px" y="0px"
	 viewBox="0 0 301 301.6" style="enable-background:new 0 0 301 301.6;" xml:space="preserve">
<style type="text/css">
	.st0{fill:#E0CAB6;}
	.st1{fill:#1D9C42;}
	.st2{fill:#24B24B;}
	.st3{opacity:0.2;fill:#231F20;}
	.st4{fill:#F05A26;}
	.st5{fill:#FFFFFF;}
	.st6{fill:#D84827;}
	.st7{fill:#4D2B74;}
	.st8{fill:#351454;}
	.st9{fill:#E6E7E8;}
	.st10{fill:#F79420;}
	.st11{fill:#E5801F;}
</style>
<g id="Layer_1">
	<g>
		<g>
			<g>
				<circle class="st0" cx="150.5" cy="151.1" r="150.5"/>
			</g>
			<circle class="st1" cx="150.5" cy="151.1" r="150.5"/>
		</g>
		<path class="st2" d="M256.9,44.7c-58.8-58.8-154-58.8-212.8,0l212.8,212.8C315.6,198.7,315.6,103.5,256.9,44.7z"/>
	</g>
</g>
<g id="Layer_2">
</g>
<g id="Layer_3">
	<g>
		<g>
			<path class="st3" d="M274.5,118.4L207,101.2c-4-1-8.1,1.4-9.1,5.4l-19.3,76.5l0.1,0.1l-6.2,25.2c-0.6,2.6,0.9,5.3,3.5,5.9
				l32.6,8.3l37.1,9.4c4,1,8-1.4,9.1-5.4l25.2-99.3C280.9,123.4,278.5,119.4,274.5,118.4z"/>
			<path class="st4" d="M270.1,114.1l-63.8-16.2c-5-1.3-10.1,1.8-11.4,6.8l-23.8,93.8l13.7,15l56.5,14.3c5,1.3,10.1-1.8,11.4-6.8
				l24.3-95.6C278.2,120.5,275.2,115.4,270.1,114.1z"/>
			<g>
				<g>
					<path class="st5" d="M231.9,128.6l-9.4,9.5l-8.6-7.8l0.6,16.2l-0.5,2.1c0,0,5.6-1.2,13,0.5s11.9,5.3,11.9,5.3l0.5-2.1l7.7-14.3
						l-11.1,3.2L231.9,128.6z M237.3,150.3c0,0-4.6-2.9-9.6-4.1c-5-1.2-10.4-0.6-10.4-0.6l-0.3-8.7l5.6,5.1l8-8.2l3.6,10.9l7.2-2.1
						L237.3,150.3z"/>
				</g>
				<g>
					<path class="st5" d="M235.9,175.9c-2.2-1.1-4.3-2.1-2.8-3.8c4.7-5.4,3-9.2-0.4-10c-2.3-0.5-4.5,0.5-5.1,3.3
						c-1.6,6.9,3,4.4,1.5,12.2c0,0.2-1.9,6.5-2.5,8.6c3.2-0.3,7.1-1.6,9.9-3.4l0.8-3.3C237.7,177.9,237.8,176.9,235.9,175.9z
						 M231.1,170.4c-0.1,0.1-0.1,0.1-0.2,0.2c-0.2-0.3-0.3-0.6-0.5-0.9c-0.6-0.9-0.9-1.4-0.3-3.7c0.3-1.2,0.9-1.6,2-1.4
						c0.4,0.1,1,0.3,1.2,0.9C233.6,166.3,233.2,168.1,231.1,170.4z M234.3,181.2c-1.2,0.7-2.6,1.2-4,1.7c0.1-0.3,0.2-0.6,0.2-0.9
						c1.1-3.7,1.1-3.8,1.1-3.9c0.1-0.5,0.2-1,0.2-1.5c0.8,0.6,1.8,1.1,2.8,1.6l0.1,0c0.1,0,0.1,0.1,0.2,0.1c0,0.2-0.1,0.4-0.1,0.7
						L234.3,181.2z"/>
				</g>
				<g>
					<path class="st5" d="M224.5,171.8c-3-1.5-5.7-2.8-3.7-5.1c6.2-7.1,4.1-12.2-0.5-13.3c-4.6-1.1-8.8,2.7-6.3,11.7
						c0.8,3-2.3,3-5.6,3c-2.9,0-3.4,1.3-3.9,3.6l-0.5,4.1c4.3,6.4,10.3,9.1,14.7,10.1c2,0.5,3.7,0.6,4.9,0.6
						c0.5-1.8,2.9-9.6,2.9-9.6C226.9,174.5,227.1,173.1,224.5,171.8z M221.6,183.7c-0.7-0.1-1.5-0.2-2.4-0.4
						c-3.6-0.8-8.7-3-12.6-8.3l0.4-2.9c0.2-0.7,0.3-1.2,0.4-1.4c0.1,0,0.3-0.1,0.9-0.1l0.2,0c2.8,0,5.7,0,7.3-2
						c0.6-0.8,1.2-2.1,0.6-4.2c-1-3.6-0.8-6.6,0.5-7.9c0.8-0.9,2-0.8,2.8-0.6c0.8,0.2,1.9,0.6,2.2,1.8c0.6,1.7-0.6,4.5-3.1,7.3
						c-1.4,1.6-1.4,3.1-1.3,4c0.5,2.5,3.1,3.8,5.7,5.1l0.1,0.1c0.5,0.3,0.7,0.4,0.8,0.5c0,0.2-0.1,0.7-0.2,1.5
						C223.7,176.7,222.4,181,221.6,183.7z"/>
				</g>
				<g>
					
						<rect x="203" y="142.1" transform="matrix(0.7224 -0.6915 0.6915 0.7224 -45.2001 182.1777)" class="st5" width="2.6" height="10.6"/>
				</g>
				<g>
					
						<rect x="199.5" y="152.9" transform="matrix(0.2971 -0.9549 0.9549 0.2971 -8.1285 301.5786)" class="st5" width="2.6" height="6.8"/>
				</g>
				<g>
					
						<rect x="243" y="156.4" transform="matrix(0.9398 -0.3418 0.3418 0.9398 -38.9298 94.3495)" class="st5" width="10.6" height="2.6"/>
				</g>
				<g>
					
						<rect x="246.2" y="163.8" transform="matrix(0.1563 -0.9877 0.9877 0.1563 43.6497 385.5138)" class="st5" width="2.6" height="6.8"/>
				</g>
			</g>
			<path class="st6" d="M175.9,179.3l-3.6,14l0,0l-2.9,11.1c-0.7,2.8,1,5.7,3.8,6.4l14.3,3.7l0,0l5.1,1.3l0,0l0,0l6.6,1.7l45.9,11.7
				c2.7,0.7,5.5-1,6.2-3.7l7.4-29.1L175.9,179.3z"/>
		</g>
		<g>
			<path class="st3" d="M190.8,73.2h-77c-4.6,0-8.2,3.7-8.2,8.2l0.1,56.5l18.7,64.9h66.4c4.5,0,8.2-3.7,8.2-8.2V81.4
				C199,76.8,195.3,73.2,190.8,73.2z"/>
			<g>
				<path class="st7" d="M185.4,69.9h-72.8c-5.7,0-10.3,4.6-10.3,10.3V136l20.7,63.5h62.4c5.7,0,10.3-4.6,10.3-10.3v-109
					C195.8,74.5,191.1,69.9,185.4,69.9z"/>
				<path class="st8" d="M127.2,199.5h62.9c3.1,0,5.6-2.5,5.6-5.6v-33.1l-94.9,4.2L127.2,199.5z"/>
			</g>
			<g>
				<g>
					<g>
						<path class="st5" d="M164.4,100.5h-28.7c-2.1,0-3.8,1.7-3.8,3.8v38.9c0,2.1,1.7,3.8,3.8,3.8h28.7c2.1,0,3.8-1.7,3.8-3.8v-38.9
							C168.2,102.2,166.5,100.5,164.4,100.5z M149.9,144.6c-1.1,0-2-0.9-2-2s0.9-2,2-2s2,0.9,2,2S151,144.6,149.9,144.6z
							 M164.4,138.4h-28.7v-33.5h28.7V138.4z"/>
						<polygon class="st5" points="157.4,118.5 155.2,116.3 148.3,123.3 145.1,120.3 142.8,122.5 148.3,127.9 						"/>
					</g>
					<path class="st9" d="M168.2,126.2v-21.9c0-2.1-1.7-3.8-3.8-3.8h-28.5l3.9,4.4l24.7,0v17.8L168.2,126.2z"/>
				</g>
			</g>
		</g>
		<g>
			<path class="st3" d="M96.4,98.3l-66.6,20.6c-3.9,1.2-6.1,5.4-4.9,9.3L55.2,226c1.2,3.9,5.4,6.1,9.3,4.9l66.4-20.5
				c3.9-1.2,6.1-5.4,4.9-9.3l-30.2-97.9C104.5,99.3,100.3,97.1,96.4,98.3z"/>
			<g>
				<path class="st10" d="M91.6,96.6l-64.8,20c-4.4,1.4-6.9,6-5.5,10.5l29.7,96.1c1.4,4.4,6,6.9,10.5,5.5l64.8-20
					c4.4-1.4,6.9-6,5.5-10.5l-29.7-96.1C100.7,97.7,96,95.2,91.6,96.6z"/>
				<path class="st11" d="M44.1,201.6l7.7,25c0.8,2.7,3.7,4.2,6.4,3.4l71-21.9c2.7-0.8,4.2-3.7,3.4-6.4l-8.8-28.7L44.1,201.6z"/>
			</g>
			<g>
				<g>
					<polygon class="st5" points="71.5,170.1 74.6,167.1 72.3,159.4 77.3,157.8 66.3,146.3 63.6,162.1 68.6,160.6 					"/>
					<path class="st5" d="M80.2,133.5l-2.7,15.9l5-1.6l2.4,8c0.7,2.5,0.1,5.2-1.6,7l-6.9,8.5c-2.1,2.3-2.9,5.6-1.9,8.6L76,185
						c0.3,1,1.4,1.6,2.4,1.3s1.6-1.4,1.3-2.5l-1.5-5.1c-0.5-1.7-0.1-3.5,1.1-4.8l6.9-8.5c2.7-2.9,3.6-7.1,2.5-10.9l-2.4-8l5-1.6
						L80.2,133.5z"/>
				</g>
			</g>
		</g>
	</g>
</g>
<g id="Layer_4">
</g>
<g id="Layer_5">
</g>
</svg>
