<?xml version="1.0" encoding="utf-8"?>
<!-- Generator: Adobe Illustrator 24.1.0, SVG Export Plug-In . SVG Version: 6.00 Build 0)  -->
<svg version="1.1" id="Layer_1" xmlns="http://www.w3.org/2000/svg" xmlns:xlink="http://www.w3.org/1999/xlink" x="0px" y="0px"
	 viewBox="0 0 42 15" style="enable-background:new 0 0 42 15;" xml:space="preserve">
<style type="text/css">
	.st0{fill:#004152;}
</style>
<desc>Created with Sketch.</desc>
<g id="Page-1">
	<g id="_x30_1d.-Handleiding" transform="translate(-286.000000, -4604.000000)">
		<g id="Content" transform="translate(225.000000, 383.000000)">
			<g id="Stap-7" transform="translate(10.000000, 3867.000000)">
				<g id="Pijltje" transform="translate(52.000000, 355.000000)">
					<g id="Stroke-1">
						<path class="st0" d="M37.1,8.1C22.9,8.1,5.6,6.6-0.4,2.4c-0.3-0.2-0.4-0.7-0.2-1c0.2-0.3,0.7-0.4,1-0.2
							c4.8,3.3,19.2,5.4,36.7,5.4c0.4,0,0.8,0.3,0.8,0.8S37.6,8.1,37.1,8.1z"/>
					</g>
					<g id="Stroke-3">
						<path class="st0" d="M30.5,13.8c-0.2,0-0.5-0.1-0.6-0.3c-0.2-0.3-0.1-0.8,0.2-1l7.6-5l-8.5-6.8c-0.3-0.3-0.4-0.7-0.1-1.1
							c0.3-0.3,0.7-0.4,1.1-0.1l10.1,8.1l-9.3,6.2C30.8,13.7,30.7,13.8,30.5,13.8z"/>
					</g>
				</g>
			</g>
		</g>
	</g>
</g>
</svg>
