<?xml version="1.0" encoding="utf-8"?>
<!-- Generator: Adobe Illustrator 24.1.0, SVG Export Plug-In . SVG Version: 6.00 Build 0)  -->
<svg version="1.1" id="Layer_1" xmlns="http://www.w3.org/2000/svg" xmlns:xlink="http://www.w3.org/1999/xlink" x="0px" y="0px"
	 viewBox="0 0 128 128" style="enable-background:new 0 0 128 128;" xml:space="preserve">
<style type="text/css">
	.st0{fill-rule:evenodd;clip-rule:evenodd;}
</style>
<g>
	<path class="st0" d="M107.5,111.1H21.5V49h86.1V111.1z M37.1,19.9c0-0.6,0.2-1,0.5-1.4s0.8-0.5,1.4-0.5H43c0.6,0,1,0.2,1.4,0.5
		c0.4,0.4,0.5,0.8,0.5,1.4v17.5c0,0.6-0.2,1-0.5,1.4s-0.8,0.5-1.4,0.5h-3.9c-0.6,0-1-0.2-1.4-0.5s-0.5-0.8-0.5-1.4V19.9z M84.1,19.9
		c0-0.6,0.2-1,0.5-1.4c0.4-0.4,0.8-0.5,1.4-0.5h3.9c0.6,0,1,0.2,1.4,0.5c0.4,0.4,0.5,0.8,0.5,1.4v17.5c0,0.6-0.2,1-0.5,1.4
		c-0.4,0.4-0.8,0.5-1.4,0.5H86c-0.6,0-1-0.2-1.4-0.5c-0.4-0.4-0.5-0.8-0.5-1.4V19.9z M113,28c-1.5-1.5-3.4-2.3-5.5-2.3h-7.8v-5.8
		c0-2.7-1-5-2.9-6.9c-1.9-1.9-4.2-2.9-6.9-2.9H86c-2.7,0-5,1-6.9,2.9c-1.9,1.9-2.9,4.2-2.9,6.9v5.8H52.8v-5.8c0-2.7-1-5-2.9-6.9
		c-1.9-1.9-4.2-2.9-6.9-2.9h-3.9c-2.7,0-5,1-6.9,2.9s-2.9,4.2-2.9,6.9v5.8h-7.8c-2.1,0-4,0.8-5.5,2.3c-1.5,1.5-2.3,3.4-2.3,5.5v77.6
		c0,2.1,0.8,3.9,2.3,5.5c1.5,1.5,3.4,2.3,5.5,2.3h86.1c2.1,0,4-0.8,5.5-2.3c1.5-1.5,2.3-3.4,2.3-5.5V33.5
		C115.4,31.4,114.6,29.5,113,28z"/>
	<path class="st0" d="M57,97.6c0.6,0.5,1.2,0.8,2,0.8c0.8,0,1.4-0.3,2-0.8L87.7,71c0.6-0.5,0.8-1.2,0.8-1.9c0-0.7-0.3-1.4-0.8-1.9
		l-4.4-4.4c-0.6-0.5-1.2-0.8-2-0.8c-0.8,0-1.4,0.3-2,0.8L58.9,82.9l-9.2-9.1c-0.6-0.5-1.2-0.8-2-0.8c-0.8,0-1.4,0.3-2,0.8l-4.4,4.4
		c-0.6,0.5-0.8,1.2-0.8,1.9c0,0.7,0.3,1.4,0.8,1.9L57,97.6z"/>
</g>
</svg>
