<?xml version="1.0" encoding="utf-8"?>
<!-- Generator: Adobe Illustrator 24.1.0, SVG Export Plug-In . SVG Version: 6.00 Build 0)  -->
<svg version="1.1" id="Layer_1" xmlns="http://www.w3.org/2000/svg" xmlns:xlink="http://www.w3.org/1999/xlink" x="0px" y="0px"
	 viewBox="0 0 128 128" style="enable-background:new 0 0 128 128;" xml:space="preserve">
<style type="text/css">
	.st0{fill-rule:evenodd;clip-rule:evenodd;}
</style>
<g>
	<path class="st0" d="M112.7,36.6c-5-8.5-11.7-15.3-20.3-20.3c-8.5-5-17.8-7.5-27.9-7.5c-10.1,0-19.4,2.5-27.9,7.5
		C28,21.3,21.3,28,16.3,36.6c-5,8.5-7.5,17.8-7.5,27.9c0,10.1,2.5,19.4,7.5,27.9c5,8.5,11.7,15.3,20.3,20.3c8.5,5,17.8,7.5,27.9,7.5
		c10.1,0,19.4-2.5,27.9-7.5c8.5-5,15.3-11.7,20.3-20.3c5-8.5,7.5-17.8,7.5-27.9C120.2,54.4,117.7,45.1,112.7,36.6z M98.6,84.3
		c-3.5,6-8.3,10.8-14.4,14.4c-6,3.5-12.6,5.3-19.8,5.3c-7.2,0-13.8-1.8-19.8-5.3c-6-3.5-10.8-8.3-14.4-14.4
		c-3.5-6-5.3-12.6-5.3-19.8s1.8-13.8,5.3-19.8c3.5-6,8.3-10.8,14.4-14.4c6-3.5,12.6-5.3,19.8-5.3s13.8,1.8,19.8,5.3
		c6,3.5,10.8,8.3,14.4,14.4s5.3,12.6,5.3,19.8S102.2,78.3,98.6,84.3z"/>
	<path class="st0" d="M71.5,36.7h-4.6c-0.7,0-1.2,0.2-1.7,0.7c-0.4,0.4-0.7,1-0.7,1.7v25.5H48.3c-0.7,0-1.2,0.2-1.7,0.7
		c-0.4,0.4-0.7,1-0.7,1.7v4.6c0,0.7,0.2,1.2,0.7,1.7c0.4,0.4,1,0.7,1.7,0.7h23.2c0.7,0,1.2-0.2,1.7-0.7c0.4-0.4,0.7-1,0.7-1.7V39
		c0-0.7-0.2-1.2-0.7-1.7C72.7,36.9,72.1,36.7,71.5,36.7z"/>
</g>
</svg>
