<?xml version="1.0" encoding="utf-8"?>
<!-- Generator: Adobe Illustrator 23.0.2, SVG Export Plug-In . SVG Version: 6.00 Build 0)  -->
<svg version="1.1" id="Layer_1" xmlns="http://www.w3.org/2000/svg" xmlns:xlink="http://www.w3.org/1999/xlink" x="0px" y="0px"
	 viewBox="0 0 128 128" style="enable-background:new 0 0 128 128;" xml:space="preserve">
<style type="text/css">
	.st0{fill:#010101;}
</style>
<path class="st0" d="M107.7,24.9l-4.6-4.6c-1.7-1.7-4.3-1.7-6,0L64,53.4L30.9,20.3c-1.7-1.7-4.3-1.7-6,0l-4.6,4.6
	c-1.7,1.7-1.7,4.3,0,6L53.4,64L20.3,97.1c-1.7,1.7-1.7,4.3,0,6l4.6,4.6c1.7,1.7,4.3,1.7,6,0L64,74.6l33.1,33.1c1.7,1.7,4.3,1.7,6,0
	l4.6-4.6c1.7-1.7,1.7-4.3,0-6L74.6,64l33.1-33.1C109.4,29.2,109.4,26.5,107.7,24.9z"/>
</svg>
