<?xml version="1.0" encoding="utf-8"?>
<!-- Generator: Adobe Illustrator 24.1.0, SVG Export Plug-In . SVG Version: 6.00 Build 0)  -->
<svg version="1.1" id="Layer_1" xmlns="http://www.w3.org/2000/svg" xmlns:xlink="http://www.w3.org/1999/xlink" x="0px" y="0px"
	 viewBox="0 0 128 128" style="enable-background:new 0 0 128 128;" xml:space="preserve">
<style type="text/css">
	.st0{fill-rule:evenodd;clip-rule:evenodd;}
</style>
<g>
	<path class="st0" d="M26.1,67.2H55l6.5-6.4H26.1l-0.3,0c-1.6,0.2-2.8,1.5-2.8,3.2C22.9,65.8,24.3,67.2,26.1,67.2z"/>
	<path class="st0" d="M26.1,28.1h21c1.7,0,3.1-1.4,3.1-3.2s-1.4-3.2-3.1-3.2h-21c-1.7,0-3.1,1.4-3.1,3.2S24.3,28.1,26.1,28.1z"/>
	<path class="st0" d="M26.1,47.7h42.6c1.7,0,3.1-1.4,3.1-3.2l0,0c0,0,0,0,0,0l0-0.1c0-0.3-0.1-0.5-0.1-0.7c0-0.1-0.1-0.2-0.1-0.3
		c-0.1-0.2-0.2-0.4-0.3-0.6c-0.1-0.2-0.2-0.3-0.4-0.4c0,0,0,0-0.1-0.1c-0.3-0.3-0.6-0.5-1-0.6c-0.1-0.1-0.3-0.2-0.4-0.2l0,0
		c-0.2-0.1-0.5-0.1-0.8-0.1h-0.5c0,0,0,0,0-0.1H26.1c-1.7,0-3.1,1.4-3.1,3.2c0,0,0,0,0,0c0,0,0,0,0,0C22.9,46.3,24.3,47.7,26.1,47.7
		z"/>
	<path class="st0" d="M25.8,80.4c-0.2,0-0.4,0.1-0.6,0.1c-1.3,0.4-2.2,1.6-2.2,3c0,1,0.5,1.9,1.2,2.5c0.2,0.2,0.4,0.3,0.7,0.4
		c0,0,0,0,0,0c0.4,0.2,0.8,0.2,1.2,0.2h43.4l-6.4-6.4h-37L25.8,80.4z"/>
	<path class="st0" d="M99.9,0.2H2.1l-0.2,0C1.1,0.3,0.6,1,0.6,1.7v124.6l0,0.2c0.1,0.7,0.7,1.3,1.5,1.3H101l0.2,0
		c0.4-0.1,0.7-0.5,0.7-0.9V92.6l-6.3,6.5v22.4H6.9V6.5h88.7v48.1l6.3-6.4V2.2l0-0.2C101.8,1,100.9,0.2,99.9,0.2z"/>
	<path class="st0" d="M90.2,88.9l35.2-36.3c0.5-0.5,0.5-1.3,0-1.7l-5.7-5.8c-0.5-0.5-1.3-0.5-1.7,0L90.2,73.7
		c-0.5,0.5-1.2,0.5-1.7,0L75.6,61.2c-0.5-0.5-1.2-0.5-1.7,0l-5.9,6c-0.5,0.5-0.5,1.3,0,1.8l20.4,20C88.9,89.4,89.7,89.4,90.2,88.9z"
		/>
	<path class="st0" d="M26.1,106.2h43c1.7,0,3.1-1.4,3.1-3.2s-1.4-3.2-3.1-3.2h-43c-1.7,0-3.1,1.4-3.1,3.2S24.3,106.2,26.1,106.2z"/>
</g>
</svg>
