<?xml version="1.0" encoding="utf-8"?>
<!-- Generator: Adobe Illustrator 18.0.0, SVG Export Plug-In . SVG Version: 6.00 Build 0)  -->
<!DOCTYPE svg PUBLIC "-//W3C//DTD SVG 1.1//EN" "http://www.w3.org/Graphics/SVG/1.1/DTD/svg11.dtd">
<svg version="1.1" id="Laag_1" xmlns="http://www.w3.org/2000/svg" xmlns:xlink="http://www.w3.org/1999/xlink" x="0px" y="0px"
	 width="128px" height="128px" viewBox="0 0 128 128" enable-background="new 0 0 128 128" xml:space="preserve">
<g id="Laag_2" display="none">
	<rect x="-7" y="2.6" display="inline" fill="#0063AF" width="79" height="59.5"/>
</g>
<g id="Laag_1_1_" display="none">
	<path display="inline" fill="#FFFFFF" d="M26.6,16.2h-5.4c-1.1,0-2.2,1.1-2.2,2v5.6h7.6c-0.3,4.3-1,8.2-1,8.2h-6.7v24.5h-10V32.1H4
		v-8.2h4.9v-6.8c0-1.2-0.3-9.5,10.3-9.5h7.4V16.2z"/>
</g>
<g id="Laag_3" display="none">
	<path display="inline" fill="#FFFFFF" d="M51.1,17.6L30.6,33.7L10,17.6H51.1z M7.4,19.7l14.5,11.4L7.4,45.4V19.7z M9.3,48.2
		l15.2-15l6,4.7l0.1,0.1l0,0l0,0l0,0l6.4-5l15.4,15.3L9.3,48.2L9.3,48.2z M54.7,45.7l-15-14.9l15-11.8V45.7z"/>
</g>
<g id="Laag_4" display="none">
	<path display="inline" fill="#FFFFFF" d="M25.9,23.6V41l14.2-7.7l2-1.1l-15.3-8.1L25.9,23.6z M61.8,44.3c-0.6,5.2-3.6,8.8-8.9,9
		c0,0-12.1,0.7-20.9,0.7h-0.1C23.1,54,11,53.3,11,53.3c-5.3-0.4-8.4-3.9-8.9-9c0,0-0.7-6.7-0.7-12.1c0.1-5.4,0.8-12.1,0.8-12.1
		c0.6-5.2,3.9-8.8,8.9-9.1c0,0,14.9-0.3,20.9-0.3h0.1c6,0,20.9,0.3,20.9,0.3c4.9,0.3,8.2,3.9,8.8,9c0,0,0.7,6.7,0.7,12.1
		S61.8,44.3,61.8,44.3z"/>
</g>
<g id="Laag_5" display="none">
	<path display="inline" fill="#FFFFFF" d="M15,45.2C7.4,45.2,1.2,39,1.2,31.5S7.4,17.9,15,17.9S28.8,24,28.8,31.5S22.7,45.2,15,45.2
		 M49,45.2c-7.7,0-13.8-6.1-13.8-13.6S41.3,17.9,49,17.9S62.8,24,62.8,31.5C62.9,39,56.6,45.2,49,45.2"/>
</g>
<g id="Laag_6" display="none">
	<path display="inline" fill="#FFFFFF" d="M25.2,14.1c12.1,0,24.8,2.5,34,7.9c1.2,0.7,2.1,1.8,2.1,3.8c0,2.2-1.8,3.9-3.9,3.9
		c-0.8,0-1.4-0.1-2.1-0.7c-7.4-4.4-18.9-7-30-7c-5.6,0-11.3,0.6-16.4,2c-0.6,0.1-1.4,0.4-2.1,0.4c-2.2,0-3.9-1.7-3.9-3.9
		s1.4-3.5,2.9-3.9C11.6,15,18.1,14.1,25.2,14.1z M24.4,28.2c10.7,0,21.1,2.6,29.2,7.5c1.4,0.8,1.8,1.8,1.8,3.2
		c0,1.8-1.4,3.2-3.2,3.2c-0.8,0-1.4-0.4-2.1-0.7c-6.7-3.9-15.9-6.5-26-6.5c-5.1,0-9.7,0.7-13.4,1.7C9.9,36.9,9.5,37,8.8,37
		c-1.8,0-3.2-1.4-3.2-3.2s0.8-2.9,2.5-3.5C12.8,29.1,17.5,28.2,24.4,28.2z M24.9,41.7c8.9,0,17,2.1,23.8,6.1c1,0.6,1.7,1.2,1.7,2.8
		s-1.2,2.5-2.5,2.5c-0.7,0-1.1-0.3-1.7-0.6c-6-3.6-13.4-5.4-21.1-5.4c-4.4,0-8.8,0.6-12.9,1.4c-0.7,0.1-1.5,0.4-2.1,0.4
		c-1.5,0-2.6-1.2-2.6-2.6c0-1.7,1-2.6,2.2-2.8C14.6,42.2,19.6,41.7,24.9,41.7z"/>
</g>
<path d="M28.4,120.8V40H1.6v80.8H28.4L28.4,120.8z M15,29c9.4,0,15.2-6.2,15.2-14C30,7.1,24.4,1,15.2,1S0,7,0,15
	c0,7.8,5.8,14,14.8,14H15L15,29z"/>
<path d="M43.3,120.8h26.8V75.7c0-2.4,0.2-4.8,0.9-6.6c2-4.8,6.4-9.8,13.8-9.8c9.7,0,13.6,7.4,13.6,18.3v43.2h26.8V74.5
	c0-24.9-13.2-36.4-30.9-36.4c-14.5,0-20.9,8.1-24.4,13.6h0.2V40H43.3C43.6,47.6,43.3,120.8,43.3,120.8L43.3,120.8z"/>
</svg>
