<?xml version="1.0" encoding="utf-8"?>
<!-- Generator: Adobe Illustrator 24.1.0, SVG Export Plug-In . SVG Version: 6.00 Build 0)  -->
<svg version="1.1" id="Layer_1" xmlns="http://www.w3.org/2000/svg" xmlns:xlink="http://www.w3.org/1999/xlink" x="0px" y="0px"
	 viewBox="0 0 128 128" style="enable-background:new 0 0 128 128;" xml:space="preserve">
<path d="M113.1,19.1H15.9c-6.2,0-11.2,5-11.2,11.2v67.3c0,6.2,5,11.2,11.2,11.2h97.3c6.2,0,11.2-5,11.2-11.2V30.3
	C124.3,24.1,119.3,19.1,113.1,19.1z M113.1,30.3v9.5c-5.2,4.3-13.6,10.9-31.5,24.9c-3.9,3.1-11.7,10.5-17.2,10.5
	c-5.4,0.1-13.2-7.4-17.2-10.5c-17.9-14-26.2-20.6-31.5-24.9v-9.5H113.1z M15.9,97.7V54.3c5.4,4.3,13,10.3,24.5,19.3
	c5.1,4,14.1,12.9,24.1,12.8c10,0.1,18.8-8.7,24.1-12.8c11.6-9.1,19.2-15.1,24.5-19.3v43.4H15.9z"/>
</svg>
