<?xml version="1.0" encoding="utf-8"?>
<!-- Generator: Adobe Illustrator 24.3.0, SVG Export Plug-In . SVG Version: 6.00 Build 0)  -->
<svg version="1.1" id="Layer_1" xmlns="http://www.w3.org/2000/svg" xmlns:xlink="http://www.w3.org/1999/xlink" x="0px" y="0px"
	 viewBox="0 0 297.9 472.5" style="enable-background:new 0 0 297.9 472.5;" xml:space="preserve">
<style type="text/css">
	.st0{fill:#BBC0C5;}
	.st1{fill:#DCB995;}
	.st2{fill:#EECBA1;}
	.st3{fill:#895929;}
	.st4{fill:#53BDE4;}
	.st5{fill:#FFFFFF;}
	.st6{fill:#A06833;}
	.st7{fill:#744B20;}
	.st8{fill:#94662E;}
	.st9{fill:#835526;}
	.st10{fill:#494032;}
	.st11{fill:#5A7B44;}
	.st12{fill:#2A1D01;}
	.st13{fill:#A27135;}
	.st14{fill:#EBEBEC;}
	.st15{fill:#5292A8;}
	.st16{fill:none;stroke:#D5D5D7;stroke-miterlimit:10;}
</style>
<path class="st0" d="M53.7,393.7c0,0-27.9,10.6-29.4,15.9s6.1,11.9,14.7,16.8s22.8,8.1,24.4,4.3s-0.7-18.8-0.7-18.8L53.7,393.7z"/>
<path class="st0" d="M243.9,393.7c0,0,27.9,10.6,29.4,15.9s-6.1,11.9-14.7,16.8c-8.6,5-22.8,8.1-24.4,4.3
	c-1.6-3.8,0.7-18.8,0.7-18.8L243.9,393.7z"/>
<path class="st1" d="M73.4,395.9h152.2l13.3-59.1c0,0-2.8-13.5-24.6-20.8c-21.8-7.3-38.5-14.7-38.5-30.2c0-15.5,0-40.9,0-40.9h-26.4
	h-26.4c0,0,0,25.3,0,40.9c0,15.5-16.6,22.9-38.5,30.2C62.8,323.3,60,336.8,60,336.8L73.4,395.9z"/>
<path class="st2" d="M244.7,127.3c0,75.7-26.9,137.5-95.9,137.5c-69,0-94.6-62.6-94.6-138.3c0-75.7,64.2-91,95.7-91
	S244.7,51.5,244.7,127.3z"/>
<path class="st3" d="M241.7,90.9l-5.6,2.8c10.2,25.6,3.4,76.6-7.4,110c-6.5,20.2-18.5,26-28.6,26.2c-6.5,0.2-15.7-28.8-50.7-28.8
	s-44.1,29-50.7,28.8c-10-0.3-22-6-28.6-26.2c-10.7-33.4-17.5-84.3-7.4-110l-5.6-2.8c0,0-7.1,23-3,58.1c4.1,35.1,6.6,74.9,28.5,103
	c14.5,18.7,29,30.1,37,32.9c7.2,6.3,17.4,10,29.8,10c12.4,0,22.6-3.7,29.8-10c8-2.8,22.5-14.1,37-32.9c21.8-28.2,24.4-67.9,28.5-103
	C248.8,113.9,241.7,90.9,241.7,90.9z M121.5,236c-5.2-1.8-5.5-8-5.5-8s12.7-14.7,33.5-13.8C170.4,213.3,183,228,183,228
	s-0.2,6.2-5.5,8c-5.9,2-16.3-6-28-6C137.8,230,127.4,238.1,121.5,236z"/>
<path class="st4" d="M107.6,207.9c0,2.8-2.2,5-5,5s-5-2.2-5-5s5-9.2,5-9.2S107.6,205.1,107.6,207.9z"/>
<circle class="st5" cx="101.1" cy="208.7" r="1.4"/>
<path class="st6" d="M128.4,239.6c0,0-0.1,7.7,3.8,11.1l1.8-5.7c0,0,2.6,13.4,12.7,13.4c7.6,0,11.9-7.3,12.9-13.3
	c0,0,1.7,3.6,2.3,9.6c0,0,2.8-4.4,4.1-9c0,0,0.6-0.5,0.6,1.9c0,0,3.4-2.6,2.9-9.4c0,0-9.6-3.2-13.7-3.6c0,0,0.1,2.2-1.3,2.6
	c-1.4,0.4-2.1-0.7-2.1-0.7l-0.6,4.3l-0.6-1.5c0,0-1.9,2.1-3.2,0.6c-1.3-1.5-2-4.2-2-4.2l0.6,3.4c0,0-2.4-1.1-3-4.4
	c0,0-3.8,0.6-8.2,2.6C130.9,239.1,128.4,239.6,128.4,239.6z"/>
<g>
	<path class="st7" d="M128.4,241.6c-0.1,1.1,0,2.3,0.2,3.4c0.2,1.1,0.4,2.2,0.8,3.2c0.4,1,0.9,1.9,1.6,2.7c0.7,0.8,1.5,1.4,2.4,1.8
		l-1.3,0.6c0.3-1.2,0.5-2.4,0.8-3.5l1-4l1,4.1c0.4,1.4,0.9,2.9,1.6,4.3c0.7,1.4,1.4,2.7,2.3,3.8c1.8,2.3,4.3,3.9,7.1,4
		c2.9,0.2,5.8-0.6,8-2.3c2.2-1.7,3.7-4.4,4.2-7.3l1.4-7.4l1.1,7.4c0.1,0.7,0.2,1.4,0.2,2.1c0,0.7,0,1.4-0.1,2.1
		c-0.1,1.4-0.4,2.8-1.3,4.2l-1.3-1.6c0.9-0.4,2-1.1,2.8-1.8c0.9-0.8,1.6-1.7,2.3-2.7c0.6-1,1.2-2.1,1.5-3.3c0.2-0.6,0.3-1.2,0.5-1.8
		c0.1-0.6,0.2-1.2,0.3-1.8l0-0.1l0.1,0c0.2-0.1,0.4-0.1,0.5,0c0.1,0.1,0.2,0.2,0.2,0.3c0.1,0.2,0.1,0.4,0.1,0.6c0,0.4,0,0.8,0,1.1
		c0-0.4-0.1-0.7-0.2-1.1c0-0.2-0.1-0.3-0.2-0.5c0-0.1-0.1-0.1-0.1-0.1c0,0,0,0,0,0l0.1-0.2c0,0.6,0,1.3,0,1.9
		c-0.1,0.6-0.1,1.3-0.2,1.9c-0.2,1.3-0.7,2.5-1.2,3.7c-0.6,1.2-1.3,2.3-2.2,3.3c-0.9,1-1.9,1.8-3.3,2.5l-3,1.5l1.7-3.1
		c0.5-0.9,0.7-2,0.7-3.2c0-0.6,0-1.2-0.1-1.8c0-0.6-0.1-1.2-0.2-1.7l2.6,0c-0.5,3.4-2.1,6.8-5,9.1c-1.4,1.1-3,2-4.8,2.5
		c-0.9,0.2-1.7,0.4-2.6,0.5c-0.4,0.1-0.9,0-1.3,0.1c-0.4,0-0.9,0-1.3-0.1c-1.8-0.1-3.6-0.7-5.2-1.6c-1.6-0.9-2.8-2.3-3.8-3.7
		c-1-1.4-1.8-2.9-2.5-4.5c-0.6-1.6-1.1-3.1-1.4-4.9l2.1,0.1c-0.4,1.1-0.8,2.3-1.2,3.4l-0.4,1.1l-0.9-0.6c-1.1-0.7-2-1.5-2.7-2.5
		c-0.7-1-1.1-2.2-1.4-3.3c-0.3-1.1-0.4-2.3-0.4-3.5C128,243.9,128.2,242.7,128.4,241.6z"/>
</g>
<path class="st7" d="M228,227.7c-2.7,8.8-10.7,19.6-10.7,19.6l-3.1-11c0,0,1.4,12.7,1.1,14.2c-0.3,1.5-14.2,15.1-14.2,15.1l-1.3-4.2
	c0,0-1,5.2-4.9,10c-3.9,4.8-18.5,9.6-18.5,9.6l-1-3.2c0,0-1.5,4.2-3.2,6.5c-1.7,2.2-5.2,2.4-5.2,2.4c1.1-8.1,0.2-11.8,0.2-11.8
	s-0.7,7.9-3.7,11.8c-2.9,3.9-13,2.7-13,2.7l-1.1-6.2c-0.6,5.4-5.9,8.4-11.7,4.3c-5.8-4-7-10.6-7-10.6c0.2,6.2,3.5,13.6,3.5,13.6
	c-7.2-1.4-8.7-8.9-8.7-8.9s-13.9-3.6-19.2-8.4c-12.9-11.8-10.6-28.6-10.6-28.6l-5,11.7c-11.1-8.6-21.1-30.3-27.5-46.8
	c3.9,15.5,9.8,30,19.4,42.4c14.5,18.7,29,30.1,37,32.9c7.2,6.3,17.4,10,29.8,10c12.4,0,22.6-3.7,29.8-10c8-2.8,22.5-14.1,37-32.9
	c8.1-10.5,13.5-22.5,17.4-35.3C231.2,220.4,229,224.4,228,227.7z"/>
<g>
	<path class="st2" d="M0,472.5h37.9l35-76.6c-1.4-26.5-9.5-41.9-17.1-50.5L0,472.5z"/>
	<path class="st2" d="M235.2,330.3c-17.1,27.4-10.1,65.6-10.1,65.6l35,76.6h37.9l-59.5-135.7C238.4,336.8,237.8,334,235.2,330.3z"/>
</g>
<path class="st8" d="M175.2,25.6c0,14.4-14.6,31.1-29,31.1s-29-16.7-29-31.1s14.6-21.1,29-21.1S175.2,11.2,175.2,25.6z"/>
<path class="st9" d="M161.9,7.5c3.3,3,7.1,7.1,7.3,10c0.4,5.2-3.4,7.4-4.9,6.2c-1.5-1.1-4-8.5-4-8.5s0.5,6.1-1.7,6.1
	c-2.2,0-7.4-11.7-7.4-11.7s2.8,16.4-1.6,18c-4.5,1.7-9.4-2.4-9.4-2.4s-0.6,5.3-3,2.4c-2.4-2.9-1.8-8.6-1.8-8.6s-3.3,4.1-2.6,9.5
	c0.7,5.4-7.5,4.7-8.5-0.9c-1-5.6,3.4-11.9,6.8-15.2c0,0-8.4,2-9.9,10.9c-1.5,8.9-3.3,6.3-3.2,1.3c0.1-1.9,0.4-4.2,0.7-6.3
	c-0.9,2.2-1.4,4.6-1.4,7.3c0,8.2,4.7,17.1,11.5,23.3l34,1c7.3-6.2,12.6-15.7,12.6-24.3C175.2,16.7,169.6,10.7,161.9,7.5z"/>
<path class="st10" d="M174.2,229.9c-8.3-5.1-17.2-5.8-26.3-5.7c-9.1,0-17.8,1.1-26.4,5.7c3.2-3.8,12.1-10.4,26.4-10.4
	S171.3,225.9,174.2,229.9z"/>
<path class="st11" d="M126.2,175.6c0,10.4-8.5,18.8-19,18.8c-10.5,0-19-8.4-19-18.8c0-10.4,8.5-18.8,19-18.8
	C117.7,156.8,126.2,165.2,126.2,175.6z"/>
<path class="st12" d="M121.3,175.6c0,7.3-5.9,13.2-13.1,13.2c-7.3,0-13.1-5.9-13.1-13.2c0-7.2,5.9-13.1,13.1-13.1
	C115.4,162.5,121.3,168.4,121.3,175.6z"/>
<path class="st5" d="M102.6,168.8c0,2.1-1.7,3.8-3.8,3.8c-2.1,0-3.8-1.7-3.8-3.8s1.7-3.8,3.8-3.8C100.9,165,102.6,166.7,102.6,168.8
	z"/>
<path class="st11" d="M172.8,175.6c0,10.4,8.5,18.8,19,18.8c10.5,0,19-8.4,19-18.8c0-10.4-8.5-18.8-19-18.8
	C181.3,156.8,172.8,165.2,172.8,175.6z"/>
<path class="st12" d="M177.7,175.6c0,7.3,5.9,13.2,13.1,13.2c7.3,0,13.1-5.9,13.1-13.2c0-7.2-5.9-13.1-13.1-13.1
	C183.6,162.5,177.7,168.4,177.7,175.6z"/>
<path class="st5" d="M178.4,168.8c0,2.1,1.7,3.8,3.8,3.8c2.1,0,3.8-1.7,3.8-3.8s-1.7-3.8-3.8-3.8C180.1,165,178.4,166.7,178.4,168.8
	z"/>
<path class="st13" d="M242.7,98.1c-5.4-54.5-64.2-66.2-92.8-66.2S62.4,43.6,57.1,98.1c-5.7,57.7,1.8,44.2,1.8,44.2s11-38.7,93.6-39
	c82.6,0.3,88.4,39,88.4,39S248.4,155.8,242.7,98.1z"/>
<path class="st8" d="M240.5,142.3c0,0,7.5,13.5,1.8-44.2c-0.8-8.3-2.9-15.6-5.9-22.1c1.9,12.2,3.2,22.2,0.8,21.5
	c-3.1-0.9-4.5-11.7-12.5-25.4c-8-13.8-24.7-25.9-24.7-25.9c19,15.1,21.4,44.2,21.4,44.2s-12.2-0.9-16-17.8s-24.9-32.9-24.9-32.9
	c8.4,7.3,13.8,31.9,8.7,33.4s-11.9-7.7-11.9-7.7c0.8,19.1-24.8,29.9-25.8,8.3c-1-21.6-12.5-36.2-12.5-36.2
	c0.3,14.7-4.2,36.7-4.2,36.7c-20.1,10.3-19.6-13.2-24-13.2s-6.4,10.3-13.7,9.3c-7.3-1-2.6-17.3-2.6-17.3c-17.8,15-15,36.9-17,45.3
	c-2,8.4-12.7,8.7-12.7,8.7c0-31.6,15.7-51.4,30.4-63c-19.4,9.7-36,26.3-38.7,54c-5.7,57.7,1.8,44.2,1.8,44.2s11-38.7,93.6-39
	C234.6,103.6,240.5,142.3,240.5,142.3z"/>
<path class="st9" d="M240.9,142.3c0,0,3.7,6.7,3.9-9.7c-0.6,2.4-1.1,4.6-1.3,5.5c-0.4,2.1-2.2,1-3.6-14.6
	c-1.3-15.6-2.9-20.2-2.9-20.2c1.4,17.5-4,13.6-5.7,13.4c-1.7-0.2-3.1-6.5-4-23.7S216,64,216,64c12.8,20.3,9.3,49,9.3,49
	c-7.1-5.5-13.9-8-13.9-8L209,94.5c-1.2,10.7-9,10.8-8.7-6.7c0.3-17.5-7-32.8-7-32.8c4.1,18.7,1.7,40.6,1.7,40.6
	c-0.7-8.6-5.1-13.8-5.1-13.8c0,10.4,0.4,17.5-10.8,15.7c-11.2-1.9-31.7-2.2-31.7-2.2c1.1-38.8-4.5-42.2-4.5-42.2
	c0.7,12.7-2.2,42.5-2.2,42.5c-14.9,0-37.3,6.3-37.3,6.3l-1.9-11.2c0,0-1.9,19.8-9.3,14.5c-7.5-5.3,0-45.9,0-45.9
	c-9,21.6-6,48.5-6,48.5c-17.5,8.6-25.4,20.5-25.4,20.5c-3.3-10-1.5-31.6,0.8-49.1c-2.2,5.6-3.8,11.8-4.5,18.8
	c-5.7,57.7,1.8,44.2,1.8,44.2s11-38.7,93.6-39C235,103.6,240.9,142.3,240.9,142.3z"/>
<g>
	<path class="st14" d="M24.3,409.6c0,0.1,0,0.1,0,0.1S24.2,409.6,24.3,409.6z"/>
	<path class="st14" d="M234.5,320.4c-1.7-1.3-44.3-17.3-44.3-17.3c-4.8,7.2-20.8,20.5-41.3,20.5c-20.6,0-36.6-13.3-41.3-20.5
		c0,0-42.6,15.9-44.3,17.3c-1.7,1.3-37.7,85.8-39.1,89.2c0.2-0.4,1.4-2,7.1-1.7c6.6,0.3,34.5,12.5,32,22.9l9.5-22.1l6,63.9h140.2
		l6-63.9l9.5,22.1c-2.5-10.4,25.3-22.6,32-22.9c5.7-0.2,6.9,1.3,7.1,1.7C272.2,406.2,236.2,321.7,234.5,320.4z"/>
	<path class="st14" d="M273.6,409.6c0,0.1,0,0.1,0,0.1S273.7,409.6,273.6,409.6z"/>
</g>
<g>
	<g>
		<path class="st15" d="M35.2,384.1c0,1,0.8,1.9,1.9,1.9c1,0,1.9-0.8,1.9-1.9c0-1-0.8-1.9-1.9-1.9c-0.5,0-1,0.2-1.3,0.5
			C35.6,383.1,35.4,383.6,35.2,384.1C35.2,384,35.2,384,35.2,384.1z"/>
		<path class="st15" d="M37.1,399.2c-1,0-1.9,0.8-1.9,1.9s0.8,1.9,1.9,1.9s1.9-0.8,1.9-1.9S38.1,399.2,37.1,399.2z"/>
		<path class="st15" d="M53.7,343.3c1,0,1.9-0.8,1.9-1.9c0-0.8-0.5-1.5-1.2-1.7c-0.5,1.1-1,2.3-1.5,3.4
			C53.2,343.2,53.4,343.3,53.7,343.3z"/>
		<path class="st15" d="M53.7,356.6c-1,0-1.9,0.8-1.9,1.9c0,1,0.8,1.9,1.9,1.9c1,0,1.9-0.8,1.9-1.9
			C55.6,357.4,54.8,356.6,53.7,356.6z"/>
		<path class="st15" d="M53.7,373.6c-1,0-1.9,0.8-1.9,1.9s0.8,1.9,1.9,1.9c1,0,1.9-0.8,1.9-1.9S54.8,373.6,53.7,373.6z"/>
		<path class="st15" d="M53.7,390.7c-1,0-1.9,0.8-1.9,1.9c0,1,0.8,1.9,1.9,1.9c1,0,1.9-0.8,1.9-1.9
			C55.6,391.5,54.8,390.7,53.7,390.7z"/>
		<path class="st15" d="M53.7,407.8c-1,0-1.9,0.8-1.9,1.9s0.8,1.9,1.9,1.9c1,0,1.9-0.8,1.9-1.9S54.8,407.8,53.7,407.8z"/>
		<path class="st15" d="M69.9,317.6c0.2,0.1,0.4,0.1,0.6,0.1c0.7,0,1.3-0.4,1.6-1C71.3,317,70.6,317.3,69.9,317.6z"/>
		<path class="st15" d="M70.4,331c-1,0-1.9,0.8-1.9,1.9c0,1,0.8,1.9,1.9,1.9s1.9-0.8,1.9-1.9C72.3,331.8,71.4,331,70.4,331z"/>
		<path class="st15" d="M70.4,348c-1,0-1.9,0.8-1.9,1.9c0,1,0.8,1.9,1.9,1.9s1.9-0.8,1.9-1.9C72.3,348.9,71.4,348,70.4,348z"/>
		<path class="st15" d="M70.4,365.1c-1,0-1.9,0.8-1.9,1.9c0,1,0.8,1.9,1.9,1.9s1.9-0.8,1.9-1.9C72.3,365.9,71.4,365.1,70.4,365.1z"
			/>
		<path class="st15" d="M70.4,382.2c-1,0-1.9,0.8-1.9,1.9c0,1,0.8,1.9,1.9,1.9s1.9-0.8,1.9-1.9C72.3,383,71.4,382.2,70.4,382.2z"/>
		<circle class="st15" cx="70.4" cy="401.1" r="1.9"/>
		<path class="st15" d="M68.5,418.1c0,0.1,0,0.3,0,0.4l0.9-2C68.9,416.9,68.5,417.5,68.5,418.1z"/>
		<path class="st15" d="M87.1,322.4c-1,0-1.9,0.8-1.9,1.9s0.8,1.9,1.9,1.9s1.9-0.8,1.9-1.9S88.1,322.4,87.1,322.4z"/>
		<path class="st15" d="M87.1,339.5c-1,0-1.9,0.8-1.9,1.9c0,1,0.8,1.9,1.9,1.9s1.9-0.8,1.9-1.9C89,340.3,88.1,339.5,87.1,339.5z"/>
		<path class="st15" d="M87.1,356.6c-1,0-1.9,0.8-1.9,1.9c0,1,0.8,1.9,1.9,1.9s1.9-0.8,1.9-1.9C89,357.4,88.1,356.6,87.1,356.6z"/>
		<path class="st15" d="M87.1,373.6c-1,0-1.9,0.8-1.9,1.9s0.8,1.9,1.9,1.9s1.9-0.8,1.9-1.9S88.1,373.6,87.1,373.6z"/>
		<circle class="st15" cx="87.1" cy="392.6" r="1.9"/>
		<path class="st15" d="M87.1,407.8c-1,0-1.9,0.8-1.9,1.9s0.8,1.9,1.9,1.9s1.9-0.8,1.9-1.9S88.1,407.8,87.1,407.8z"/>
		<path class="st15" d="M87.1,424.8c-1,0-1.9,0.8-1.9,1.9c0,1,0.8,1.9,1.9,1.9s1.9-0.8,1.9-1.9C89,425.7,88.1,424.8,87.1,424.8z"/>
		<path class="st15" d="M87.1,441.9c-1,0-1.9,0.8-1.9,1.9c0,1,0.8,1.9,1.9,1.9s1.9-0.8,1.9-1.9C89,442.7,88.1,441.9,87.1,441.9z"/>
		<path class="st15" d="M87.1,459c-1,0-1.9,0.8-1.9,1.9c0,1,0.8,1.9,1.9,1.9s1.9-0.8,1.9-1.9C89,459.8,88.1,459,87.1,459z"/>
		<path class="st15" d="M103.7,313.9c-1,0-1.9,0.8-1.9,1.9s0.8,1.9,1.9,1.9c1,0,1.9-0.8,1.9-1.9S104.8,313.9,103.7,313.9z"/>
		<path class="st15" d="M103.7,331c-1,0-1.9,0.8-1.9,1.9c0,1,0.8,1.9,1.9,1.9c1,0,1.9-0.8,1.9-1.9C105.6,331.8,104.8,331,103.7,331z
			"/>
		<path class="st15" d="M103.7,348c-1,0-1.9,0.8-1.9,1.9c0,1,0.8,1.9,1.9,1.9c1,0,1.9-0.8,1.9-1.9C105.6,348.9,104.8,348,103.7,348z
			"/>
		<path class="st15" d="M103.7,365.1c-1,0-1.9,0.8-1.9,1.9c0,1,0.8,1.9,1.9,1.9c1,0,1.9-0.8,1.9-1.9
			C105.6,365.9,104.8,365.1,103.7,365.1z"/>
		<path class="st15" d="M103.7,382.2c-1,0-1.9,0.8-1.9,1.9c0,1,0.8,1.9,1.9,1.9c1,0,1.9-0.8,1.9-1.9
			C105.6,383,104.8,382.2,103.7,382.2z"/>
		<path class="st15" d="M103.7,399.2c-1,0-1.9,0.8-1.9,1.9s0.8,1.9,1.9,1.9c1,0,1.9-0.8,1.9-1.9S104.8,399.2,103.7,399.2z"/>
		<path class="st15" d="M103.7,416.3c-1,0-1.9,0.8-1.9,1.9s0.8,1.9,1.9,1.9c1,0,1.9-0.8,1.9-1.9S104.8,416.3,103.7,416.3z"/>
		<path class="st15" d="M103.7,433.4c-1,0-1.9,0.8-1.9,1.9c0,1,0.8,1.9,1.9,1.9c1,0,1.9-0.8,1.9-1.9
			C105.6,434.2,104.8,433.4,103.7,433.4z"/>
		<path class="st15" d="M103.7,450.4c-1,0-1.9,0.8-1.9,1.9s0.8,1.9,1.9,1.9c1,0,1.9-0.8,1.9-1.9S104.8,450.4,103.7,450.4z"/>
		<path class="st15" d="M103.7,467.5c-1,0-1.9,0.8-1.9,1.9s0.8,1.9,1.9,1.9c1,0,1.9-0.8,1.9-1.9S104.8,467.5,103.7,467.5z"/>
		<path class="st15" d="M120.4,339.5c-1,0-1.9,0.8-1.9,1.9c0,1,0.8,1.9,1.9,1.9s1.9-0.8,1.9-1.9
			C122.3,340.3,121.4,339.5,120.4,339.5z"/>
		<path class="st15" d="M120.4,356.6c-1,0-1.9,0.8-1.9,1.9c0,1,0.8,1.9,1.9,1.9s1.9-0.8,1.9-1.9
			C122.3,357.4,121.4,356.6,120.4,356.6z"/>
		<path class="st15" d="M120.4,373.6c-1,0-1.9,0.8-1.9,1.9s0.8,1.9,1.9,1.9s1.9-0.8,1.9-1.9S121.4,373.6,120.4,373.6z"/>
		<path class="st15" d="M120.4,390.7c-1,0-1.9,0.8-1.9,1.9c0,1,0.8,1.9,1.9,1.9s1.9-0.8,1.9-1.9
			C122.3,391.5,121.4,390.7,120.4,390.7z"/>
		<path class="st15" d="M120.4,407.8c-1,0-1.9,0.8-1.9,1.9s0.8,1.9,1.9,1.9s1.9-0.8,1.9-1.9S121.4,407.8,120.4,407.8z"/>
		<path class="st15" d="M120.4,424.8c-1,0-1.9,0.8-1.9,1.9c0,1,0.8,1.9,1.9,1.9s1.9-0.8,1.9-1.9
			C122.3,425.7,121.4,424.8,120.4,424.8z"/>
		<path class="st15" d="M120.4,441.9c-1,0-1.9,0.8-1.9,1.9c0,1,0.8,1.9,1.9,1.9s1.9-0.8,1.9-1.9
			C122.3,442.7,121.4,441.9,120.4,441.9z"/>
		<path class="st15" d="M120.4,459c-1,0-1.9,0.8-1.9,1.9c0,1,0.8,1.9,1.9,1.9s1.9-0.8,1.9-1.9C122.3,459.8,121.4,459,120.4,459z"/>
		<path class="st15" d="M137.1,348c-1,0-1.9,0.8-1.9,1.9c0,1,0.8,1.9,1.9,1.9c1,0,1.9-0.8,1.9-1.9C139,348.9,138.1,348,137.1,348z"
			/>
		<path class="st15" d="M137.1,365.1c-1,0-1.9,0.8-1.9,1.9c0,1,0.8,1.9,1.9,1.9c1,0,1.9-0.8,1.9-1.9
			C139,365.9,138.1,365.1,137.1,365.1z"/>
		<path class="st15" d="M137.1,382.2c-1,0-1.9,0.8-1.9,1.9c0,1,0.8,1.9,1.9,1.9c1,0,1.9-0.8,1.9-1.9
			C139,383,138.1,382.2,137.1,382.2z"/>
		<path class="st15" d="M137.1,399.2c-1,0-1.9,0.8-1.9,1.9s0.8,1.9,1.9,1.9c1,0,1.9-0.8,1.9-1.9S138.1,399.2,137.1,399.2z"/>
		<path class="st15" d="M137.1,416.3c-1,0-1.9,0.8-1.9,1.9s0.8,1.9,1.9,1.9c1,0,1.9-0.8,1.9-1.9S138.1,416.3,137.1,416.3z"/>
		<path class="st15" d="M137.1,433.4c-1,0-1.9,0.8-1.9,1.9c0,1,0.8,1.9,1.9,1.9c1,0,1.9-0.8,1.9-1.9
			C139,434.2,138.1,433.4,137.1,433.4z"/>
		<path class="st15" d="M137.1,450.4c-1,0-1.9,0.8-1.9,1.9s0.8,1.9,1.9,1.9c1,0,1.9-0.8,1.9-1.9S138.1,450.4,137.1,450.4z"/>
		<path class="st15" d="M137.1,467.5c-1,0-1.9,0.8-1.9,1.9s0.8,1.9,1.9,1.9c1,0,1.9-0.8,1.9-1.9S138.1,467.5,137.1,467.5z"/>
		<path class="st15" d="M153.7,339.5c-1,0-1.9,0.8-1.9,1.9c0,1,0.8,1.9,1.9,1.9c1,0,1.9-0.8,1.9-1.9
			C155.6,340.3,154.8,339.5,153.7,339.5z"/>
		<path class="st15" d="M153.7,356.6c-1,0-1.9,0.8-1.9,1.9c0,1,0.8,1.9,1.9,1.9c1,0,1.9-0.8,1.9-1.9
			C155.6,357.4,154.8,356.6,153.7,356.6z"/>
		<path class="st15" d="M153.7,373.6c-1,0-1.9,0.8-1.9,1.9s0.8,1.9,1.9,1.9c1,0,1.9-0.8,1.9-1.9S154.8,373.6,153.7,373.6z"/>
		<path class="st15" d="M153.7,390.7c-1,0-1.9,0.8-1.9,1.9c0,1,0.8,1.9,1.9,1.9c1,0,1.9-0.8,1.9-1.9
			C155.6,391.5,154.8,390.7,153.7,390.7z"/>
		<path class="st15" d="M153.7,407.8c-1,0-1.9,0.8-1.9,1.9s0.8,1.9,1.9,1.9c1,0,1.9-0.8,1.9-1.9S154.8,407.8,153.7,407.8z"/>
		<path class="st15" d="M153.7,424.8c-1,0-1.9,0.8-1.9,1.9c0,1,0.8,1.9,1.9,1.9c1,0,1.9-0.8,1.9-1.9
			C155.6,425.7,154.8,424.8,153.7,424.8z"/>
		<path class="st15" d="M153.7,441.9c-1,0-1.9,0.8-1.9,1.9c0,1,0.8,1.9,1.9,1.9c1,0,1.9-0.8,1.9-1.9
			C155.6,442.7,154.8,441.9,153.7,441.9z"/>
		<path class="st15" d="M153.7,459c-1,0-1.9,0.8-1.9,1.9c0,1,0.8,1.9,1.9,1.9c1,0,1.9-0.8,1.9-1.9C155.6,459.8,154.8,459,153.7,459z
			"/>
		<path class="st15" d="M170.4,331c-1,0-1.9,0.8-1.9,1.9c0,1,0.8,1.9,1.9,1.9c1,0,1.9-0.8,1.9-1.9C172.3,331.8,171.4,331,170.4,331z
			"/>
		<path class="st15" d="M170.4,348c-1,0-1.9,0.8-1.9,1.9c0,1,0.8,1.9,1.9,1.9c1,0,1.9-0.8,1.9-1.9C172.3,348.9,171.4,348,170.4,348z
			"/>
		<path class="st15" d="M170.4,365.1c-1,0-1.9,0.8-1.9,1.9c0,1,0.8,1.9,1.9,1.9c1,0,1.9-0.8,1.9-1.9
			C172.3,365.9,171.4,365.1,170.4,365.1z"/>
		<path class="st15" d="M170.4,382.2c-1,0-1.9,0.8-1.9,1.9c0,1,0.8,1.9,1.9,1.9c1,0,1.9-0.8,1.9-1.9
			C172.3,383,171.4,382.2,170.4,382.2z"/>
		<circle class="st15" cx="170.4" cy="401.1" r="1.9"/>
		<path class="st15" d="M170.4,416.3c-1,0-1.9,0.8-1.9,1.9s0.8,1.9,1.9,1.9c1,0,1.9-0.8,1.9-1.9S171.4,416.3,170.4,416.3z"/>
		<path class="st15" d="M170.4,433.4c-1,0-1.9,0.8-1.9,1.9c0,1,0.8,1.9,1.9,1.9c1,0,1.9-0.8,1.9-1.9
			C172.3,434.2,171.4,433.4,170.4,433.4z"/>
		<path class="st15" d="M170.4,450.4c-1,0-1.9,0.8-1.9,1.9s0.8,1.9,1.9,1.9c1,0,1.9-0.8,1.9-1.9S171.4,450.4,170.4,450.4z"/>
		<path class="st15" d="M170.4,467.5c-1,0-1.9,0.8-1.9,1.9s0.8,1.9,1.9,1.9c1,0,1.9-0.8,1.9-1.9S171.4,467.5,170.4,467.5z"/>
		<path class="st15" d="M187.1,322.4c-1,0-1.9,0.8-1.9,1.9s0.8,1.9,1.9,1.9c1,0,1.9-0.8,1.9-1.9S188.1,322.4,187.1,322.4z"/>
		<path class="st15" d="M187.1,339.5c-1,0-1.9,0.8-1.9,1.9c0,1,0.8,1.9,1.9,1.9c1,0,1.9-0.8,1.9-1.9
			C189,340.3,188.1,339.5,187.1,339.5z"/>
		<path class="st15" d="M187.1,356.6c-1,0-1.9,0.8-1.9,1.9c0,1,0.8,1.9,1.9,1.9c1,0,1.9-0.8,1.9-1.9
			C189,357.4,188.1,356.6,187.1,356.6z"/>
		<path class="st15" d="M187.1,373.6c-1,0-1.9,0.8-1.9,1.9s0.8,1.9,1.9,1.9c1,0,1.9-0.8,1.9-1.9S188.1,373.6,187.1,373.6z"/>
		<circle class="st15" cx="187.1" cy="392.6" r="1.9"/>
		<path class="st15" d="M187.1,407.8c-1,0-1.9,0.8-1.9,1.9s0.8,1.9,1.9,1.9c1,0,1.9-0.8,1.9-1.9S188.1,407.8,187.1,407.8z"/>
		<path class="st15" d="M187.1,424.8c-1,0-1.9,0.8-1.9,1.9c0,1,0.8,1.9,1.9,1.9c1,0,1.9-0.8,1.9-1.9
			C189,425.7,188.1,424.8,187.1,424.8z"/>
		<path class="st15" d="M187.1,441.9c-1,0-1.9,0.8-1.9,1.9c0,1,0.8,1.9,1.9,1.9c1,0,1.9-0.8,1.9-1.9
			C189,442.7,188.1,441.9,187.1,441.9z"/>
		<path class="st15" d="M187.1,459c-1,0-1.9,0.8-1.9,1.9c0,1,0.8,1.9,1.9,1.9c1,0,1.9-0.8,1.9-1.9C189,459.8,188.1,459,187.1,459z"
			/>
		<path class="st15" d="M203.7,313.9c-1,0-1.9,0.8-1.9,1.9s0.8,1.9,1.9,1.9c1,0,1.9-0.8,1.9-1.9S204.8,313.9,203.7,313.9z"/>
		<path class="st15" d="M203.7,331c-1,0-1.9,0.8-1.9,1.9c0,1,0.8,1.9,1.9,1.9c1,0,1.9-0.8,1.9-1.9C205.6,331.8,204.8,331,203.7,331z
			"/>
		<path class="st15" d="M203.7,348c-1,0-1.9,0.8-1.9,1.9c0,1,0.8,1.9,1.9,1.9c1,0,1.9-0.8,1.9-1.9C205.6,348.9,204.8,348,203.7,348z
			"/>
		<path class="st15" d="M203.7,365.1c-1,0-1.9,0.8-1.9,1.9c0,1,0.8,1.9,1.9,1.9c1,0,1.9-0.8,1.9-1.9
			C205.6,365.9,204.8,365.1,203.7,365.1z"/>
		<path class="st15" d="M203.7,382.2c-1,0-1.9,0.8-1.9,1.9c0,1,0.8,1.9,1.9,1.9c1,0,1.9-0.8,1.9-1.9
			C205.6,383,204.8,382.2,203.7,382.2z"/>
		<path class="st15" d="M203.7,399.2c-1,0-1.9,0.8-1.9,1.9s0.8,1.9,1.9,1.9c1,0,1.9-0.8,1.9-1.9S204.8,399.2,203.7,399.2z"/>
		<path class="st15" d="M203.7,416.3c-1,0-1.9,0.8-1.9,1.9s0.8,1.9,1.9,1.9c1,0,1.9-0.8,1.9-1.9S204.8,416.3,203.7,416.3z"/>
		<path class="st15" d="M203.7,433.4c-1,0-1.9,0.8-1.9,1.9c0,1,0.8,1.9,1.9,1.9c1,0,1.9-0.8,1.9-1.9
			C205.6,434.2,204.8,433.4,203.7,433.4z"/>
		<path class="st15" d="M203.7,450.4c-1,0-1.9,0.8-1.9,1.9s0.8,1.9,1.9,1.9c1,0,1.9-0.8,1.9-1.9S204.8,450.4,203.7,450.4z"/>
		<path class="st15" d="M203.7,467.5c-1,0-1.9,0.8-1.9,1.9s0.8,1.9,1.9,1.9c1,0,1.9-0.8,1.9-1.9S204.8,467.5,203.7,467.5z"/>
		<path class="st15" d="M220.4,322.4c-1,0-1.9,0.8-1.9,1.9s0.8,1.9,1.9,1.9c1,0,1.9-0.8,1.9-1.9S221.5,322.4,220.4,322.4z"/>
		<path class="st15" d="M220.4,339.5c-1,0-1.9,0.8-1.9,1.9c0,1,0.8,1.9,1.9,1.9c1,0,1.9-0.8,1.9-1.9
			C222.3,340.3,221.5,339.5,220.4,339.5z"/>
		<path class="st15" d="M220.4,356.6c-1,0-1.9,0.8-1.9,1.9c0,1,0.8,1.9,1.9,1.9c1,0,1.9-0.8,1.9-1.9
			C222.3,357.4,221.5,356.6,220.4,356.6z"/>
		<path class="st15" d="M220.4,373.6c-1,0-1.9,0.8-1.9,1.9s0.8,1.9,1.9,1.9c1,0,1.9-0.8,1.9-1.9S221.5,373.6,220.4,373.6z"/>
		<path class="st15" d="M220.4,390.7c-1,0-1.9,0.8-1.9,1.9c0,1,0.8,1.9,1.9,1.9c1,0,1.9-0.8,1.9-1.9
			C222.3,391.5,221.5,390.7,220.4,390.7z"/>
		<path class="st15" d="M220.4,407.8c-1,0-1.9,0.8-1.9,1.9s0.8,1.9,1.9,1.9c1,0,1.9-0.8,1.9-1.9S221.5,407.8,220.4,407.8z"/>
		<path class="st15" d="M220.4,424.8c-1,0-1.9,0.8-1.9,1.9c0,1,0.8,1.9,1.9,1.9c1,0,1.9-0.8,1.9-1.9
			C222.3,425.7,221.5,424.8,220.4,424.8z"/>
		<path class="st15" d="M220.4,441.9c-1,0-1.9,0.8-1.9,1.9c0,1,0.8,1.9,1.9,1.9c0.5,0,0.9-0.2,1.2-0.5l0.2-2.6
			C221.5,442.2,221,441.9,220.4,441.9z"/>
		<path class="st15" d="M218.5,460.9c0,0.9,0.6,1.6,1.5,1.8l0.3-3.7C219.3,459,218.5,459.8,218.5,460.9z"/>
		<path class="st15" d="M237.1,331c-1,0-1.9,0.8-1.9,1.9c0,1,0.8,1.9,1.9,1.9c1,0,1.9-0.8,1.9-1.9C239,331.8,238.1,331,237.1,331z"
			/>
		<path class="st15" d="M237.1,348c-1,0-1.9,0.8-1.9,1.9c0,1,0.8,1.9,1.9,1.9c1,0,1.9-0.8,1.9-1.9C239,348.9,238.1,348,237.1,348z"
			/>
		<path class="st15" d="M237.1,365.1c-1,0-1.9,0.8-1.9,1.9c0,1,0.8,1.9,1.9,1.9c1,0,1.9-0.8,1.9-1.9
			C239,365.9,238.1,365.1,237.1,365.1z"/>
		<path class="st15" d="M237.1,382.2c-1,0-1.9,0.8-1.9,1.9c0,1,0.8,1.9,1.9,1.9c1,0,1.9-0.8,1.9-1.9
			C239,383,238.1,382.2,237.1,382.2z"/>
		<path class="st15" d="M237.1,399.2c-1,0-1.9,0.8-1.9,1.9s0.8,1.9,1.9,1.9c1,0,1.9-0.8,1.9-1.9S238.1,399.2,237.1,399.2z"/>
		<path class="st15" d="M237.1,416.3c-1,0-1.9,0.8-1.9,1.9s0.8,1.9,1.9,1.9c1,0,1.9-0.8,1.9-1.9S238.1,416.3,237.1,416.3z"/>
		<path class="st15" d="M253.7,373.6c-1,0-1.9,0.8-1.9,1.9s0.8,1.9,1.9,1.9c1,0,1.9-0.8,1.9-1.9S254.8,373.6,253.7,373.6z"/>
		<path class="st15" d="M253.7,390.7c-1,0-1.9,0.8-1.9,1.9c0,1,0.8,1.9,1.9,1.9c1,0,1.9-0.8,1.9-1.9
			C255.6,391.5,254.8,390.7,253.7,390.7z"/>
		<path class="st15" d="M253.7,407.8c-1,0-1.9,0.8-1.9,1.9s0.8,1.9,1.9,1.9c1,0,1.9-0.8,1.9-1.9S254.8,407.8,253.7,407.8z"/>
		<path class="st15" d="M269.3,399.6c-0.5,0.3-0.8,0.9-0.8,1.6c0,1,0.8,1.9,1.9,1.9c0.1,0,0.3,0,0.4,0
			C270.3,401.9,269.8,400.8,269.3,399.6z"/>
	</g>
	<path class="st15" d="M118.5,324.4c0,1,0.9,1.8,1.9,1.8c0.3,0,0.6-0.1,0.9-0.2L118.5,324.4z"/>
	<path class="st15" d="M135.6,331.7c-0.3,0.3-0.4,0.7-0.4,1.2c0,1,0.8,1.9,1.9,1.9c1,0,1.9-0.8,1.9-1.9c0-0.2,0-0.3-0.1-0.5
		L135.6,331.7z"/>
</g>
<path class="st16" d="M98.1,306.7c8.3,9.6,26.2,26.5,49.8,26.5c25.3,0,44.2-14.5,53.2-26.1"/>
</svg>
