<?xml version="1.0" encoding="utf-8"?>
<!-- Generator: Adobe Illustrator 24.1.0, SVG Export Plug-In . SVG Version: 6.00 Build 0)  -->
<svg version="1.1" id="Layer_1" xmlns="http://www.w3.org/2000/svg" xmlns:xlink="http://www.w3.org/1999/xlink" x="0px" y="0px"
	 viewBox="0 0 1900 843" style="enable-background:new 0 0 1900 843;" xml:space="preserve">
<style type="text/css">
	.st0{fill-rule:evenodd;clip-rule:evenodd;fill:#A84100;}
	.st1{opacity:0.2;}
	.st2{fill-rule:evenodd;clip-rule:evenodd;fill:#F2EBE4;}
	.st3{fill-rule:evenodd;clip-rule:evenodd;fill:#BA4F0C;}
	.st4{opacity:0.1;}
	.st5{fill:#FFFFFE;}
</style>
<rect class="st0" width="1900" height="843"/>
<desc>Created with Sketch.</desc>
<g id="Group-3_2_" transform="translate(121.000000, 318.000000)" class="st1">
</g>
<polygon class="st2" points="1900,843 1900,787.8 1681.1,731 1369.8,797.5 1197.5,743 778.6,811.5 511.4,831.5 245.1,747.2 0,803.5 
	0,843 "/>
<polygon class="st3" points="247.9,0 278.1,178 535.9,339 610.6,482 678.2,573.3 886.2,642 1009.3,596.1 1366.8,387.2 1569.5,0 "/>
<g id="Group-3_1_" transform="translate(121.000000, 318.000000)" class="st1">
</g>
<g class="st4">
	<path class="st5" d="M694.5,752.7c-5.8,1.1-11.8,2-17.7,2.8l0.7,5c6-0.8,12-1.8,17.9-2.9L694.5,752.7z"/>
	<path class="st5" d="M659.1,757.5c-5.9,0.5-11.9,0.9-17.8,1.1l0.2,5c6-0.2,12.1-0.6,18.1-1.2L659.1,757.5z"/>
	<path class="st5" d="M729.3,744.6c-5.7,1.6-11.5,3.1-17.3,4.5l1.1,4.9c5.9-1.4,11.8-2.9,17.5-4.6L729.3,744.6z"/>
	<path class="st5" d="M605.5,758.5l-0.3,5c6,0.3,12.1,0.5,18.1,0.5l0-5C617.4,759,611.4,758.8,605.5,758.5z"/>
	<path class="st5" d="M500.8,737.4l-1.7,4.7c5.6,2.1,11.4,4,17.2,5.8l1.5-4.8C512,741.3,506.4,739.4,500.8,737.4z"/>
	<path class="st5" d="M468.1,723.1l-2.3,4.5c5.3,2.7,10.9,5.3,16.4,7.7l2-4.6C478.8,728.3,473.3,725.8,468.1,723.1z"/>
	<path class="st5" d="M570,754.9l-0.7,4.9c5.9,0.9,12,1.6,18,2.2l0.5-5C581.8,756.5,575.8,755.8,570,754.9z"/>
	<path class="st5" d="M535,747.9l-1.2,4.8c5.8,1.5,11.8,2.8,17.7,4l1-4.9C546.6,750.7,540.7,749.4,535,747.9z"/>
	<path class="st5" d="M765,737.6l-1.9-4.6c-3.3,1.3-6.6,2.6-9.7,3.8c-2.3,0.8-4.7,1.7-7,2.5l1.6,4.7c2.4-0.8,4.7-1.6,7.1-2.5
		C758.3,740.3,761.7,739,765,737.6z"/>
	<path class="st5" d="M896.8,337.9c4.5,4.4,9.3,8.4,14.1,11.8l2.9-4.1c-4.7-3.2-9.2-7-13.5-11.2L896.8,337.9z"/>
	<path class="st5" d="M940.3,646c5.6-2.2,11.3-4.3,16.8-6.1l-1.6-4.7c-5.6,1.8-11.3,3.9-17,6.2L940.3,646z"/>
	<path class="st5" d="M927,358.7c5.7,2.5,11.6,4.4,17.6,5.6l1-4.9c-5.7-1.1-11.2-2.9-16.6-5.2L927,358.7z"/>
	<path class="st5" d="M907.7,660.7c5.5-2.8,11-5.3,16.2-7.7l-2.1-4.6c-5.3,2.4-10.8,5-16.3,7.8L907.7,660.7z"/>
	<path class="st5" d="M795.5,717.8c-5.6,2.9-10.9,5.6-16,8l2.1,4.5c5.2-2.5,10.5-5.1,16.2-8.1L795.5,717.8z"/>
	<path class="st5" d="M963,360.9l0.1,5c6-0.1,12.1-0.8,18.3-2.1l-1-4.9C974.5,360.2,968.6,360.8,963,360.9z"/>
	<path class="st5" d="M991.5,631l-0.9-4.9c-5.8,1.1-11.8,2.4-17.7,4l1.3,4.8C980,633.4,985.8,632,991.5,631z"/>
	<path class="st5" d="M401.2,343.8c2.7-5.7,5.1-11.1,7.4-16.5l-4.6-1.9c-2.3,5.4-4.7,10.7-7.3,16.3L401.2,343.8z"/>
	<path class="st5" d="M1009.1,628.4c5.9-0.6,11.9-1.1,17.7-1.2l-0.1-5c-6,0.2-12.1,0.6-18.1,1.3L1009.1,628.4z"/>
	<path class="st5" d="M826.9,700.4c-5.8,3.4-10.9,6.3-15.6,8.9l2.4,4.4c4.7-2.6,9.9-5.5,15.7-8.9L826.9,700.4z"/>
	<path class="st5" d="M889.4,664.6c-5,2.7-10.2,5.5-15.8,8.7l2.5,4.4c5.6-3.2,10.7-6,15.7-8.7L889.4,664.6z"/>
	<path class="st5" d="M860.5,686.6l-2.5-4.3c-4.6,2.7-9.1,5.3-13.7,8l-1.9,1.1l2.5,4.3l1.9-1.1C851.3,691.9,855.9,689.2,860.5,686.6
		z"/>
	<path class="st5" d="M370.1,646l4.1-2.8c-3.4-4.9-6.5-10-9.4-15.1l-4.3,2.5C363.4,635.8,366.6,641,370.1,646z"/>
	<path class="st5" d="M393,674.2l3.6-3.4c-4.1-4.3-8-8.8-11.7-13.4l-3.9,3.2C384.7,665.2,388.8,669.8,393,674.2z"/>
	<path class="st5" d="M380.4,373.6l4.4,2.4c3.3-6,6-11.1,8.5-15.9l-4.4-2.3C386.3,362.6,383.6,367.6,380.4,373.6z"/>
	<path class="st5" d="M331.4,526.5c0.2,6.1,0.7,12.2,1.4,18.1l5-0.6c-0.7-5.8-1.1-11.8-1.3-17.7L331.4,526.5z"/>
	<path class="st5" d="M376.1,391.8l-4.4-2.4c-2.6,4.8-5.7,10.3-8.6,15.8l4.4,2.4C370.4,402.1,373.5,396.5,376.1,391.8z"/>
	<path class="st5" d="M331.5,502.8c-0.1,1.9-0.2,3.7-0.2,5.5l5,0.1c0.1-1.8,0.1-3.6,0.2-5.4c0.2-4.1,0.6-8.2,1.1-12.3l-5-0.6
		C332.1,494.3,331.7,498.6,331.5,502.8z"/>
	<path class="st5" d="M352.1,614.4l4.5-2.1c-2.5-5.3-4.8-10.9-6.8-16.4l-4.7,1.7C347.2,603.3,349.5,608.9,352.1,614.4z"/>
	<path class="st5" d="M344.4,578.9c-1.6-5.7-2.9-11.5-4-17.3l-4.9,0.9c1.1,6,2.5,11.9,4.1,17.7L344.4,578.9z"/>
	<path class="st5" d="M359.3,423.5l-4.5-2.2c-2.9,5.8-5.3,11.2-7.6,16.5l4.6,2C354.1,434.5,356.5,429.2,359.3,423.5z"/>
	<path class="st5" d="M402.6,9.1c0.8,5.9,1.8,11.9,3,17.9l4.9-1c-1.2-5.9-2.2-11.8-2.9-17.6L402.6,9.1z"/>
	<path class="st5" d="M335.8,472.2l4.9,1.1c1.3-5.6,2.9-11.3,4.9-17.1l-4.7-1.6C338.8,460.6,337.2,466.5,335.8,472.2z"/>
	<path class="st5" d="M428.9,150.4c0.5,6,1,12,1.3,17.9l5-0.3c-0.3-5.9-0.7-12-1.3-18L428.9,150.4z"/>
	<path class="st5" d="M424.5,114.8c0.9,6,1.8,11.9,2.5,17.7l5-0.6c-0.7-5.9-1.6-11.9-2.5-17.9L424.5,114.8z"/>
	<path class="st5" d="M418,79.6c1.2,5.9,2.4,11.8,3.5,17.6l4.9-0.9c-1.1-5.8-2.2-11.8-3.5-17.7L418,79.6z"/>
	<path class="st5" d="M409.8,44.7c1.5,5.8,3,11.7,4.3,17.4l4.9-1.1c-1.4-5.8-2.8-11.7-4.3-17.5L409.8,44.7z"/>
	<path class="st5" d="M434.5,222.3l-5-0.4c-0.5,6-1.1,11.9-1.9,17.7l5,0.7C433.3,234.4,434,228.3,434.5,222.3z"/>
	<path class="st5" d="M449.9,718.9l2.5-4.3c-5.1-3-10.2-6.2-15.1-9.5l-2.8,4.1C439.5,712.6,444.7,715.8,449.9,718.9z"/>
	<path class="st5" d="M406,686.9c4.4,4,9.1,7.9,13.9,11.7l3.1-3.9c-4.7-3.7-9.3-7.5-13.6-11.4L406,686.9z"/>
	<path class="st5" d="M430.7,186.2c0,1.5,0,3.1,0,4.6c0,4.5-0.1,8.9-0.2,13.3l5,0.2c0.1-4.4,0.2-8.9,0.2-13.4c0-1.5,0-3.1,0-4.7
		L430.7,186.2z"/>
	<path class="st5" d="M416.3,291.8c-1.7,5.6-3.6,11.3-5.7,16.9l4.7,1.7c2.1-5.7,4-11.5,5.8-17.2L416.3,291.8z"/>
	<path class="st5" d="M429.7,258.1l-4.9-0.9c-1.1,5.8-2.4,11.7-3.8,17.4l4.9,1.2C427.3,270,428.6,264.1,429.7,258.1z"/>
	<path class="st5" d="M1215.1,678.3l-1.2,4.9c5.9,1.4,11.9,2.6,17.9,3.5l0.8-4.9C1226.7,680.9,1220.8,679.7,1215.1,678.3z"/>
	<path class="st5" d="M1563.8,455.5c-2.7,5.3-5.5,10.7-8.3,15.9l4.4,2.4c2.8-5.2,5.6-10.6,8.4-16L1563.8,455.5z"/>
	<path class="st5" d="M1579.1,423.1c-2.4,5.5-4.9,11-7.4,16.3l4.5,2.1c2.5-5.4,5.1-10.9,7.5-16.4L1579.1,423.1z"/>
	<path class="st5" d="M1604.9,356.2c-1.9,5.7-3.9,11.4-5.9,16.9l4.7,1.7c2-5.6,4-11.3,5.9-17L1604.9,356.2z"/>
	<path class="st5" d="M1615.7,321.9c-1.7,5.8-3.4,11.5-5.2,17.2l4.8,1.5c1.8-5.7,3.5-11.5,5.2-17.3L1615.7,321.9z"/>
	<path class="st5" d="M1546.8,487c-3,5.2-6.1,10.4-9.2,15.4l4.2,2.6c3.1-5.1,6.3-10.3,9.3-15.5L1546.8,487z"/>
	<path class="st5" d="M1592.8,389.9c-2.1,5.6-4.4,11.2-6.6,16.7l4.6,1.9c2.3-5.5,4.5-11.2,6.7-16.8L1592.8,389.9z"/>
	<path class="st5" d="M1527.9,517.5c-3.3,5-6.7,10-10.2,14.7l4.1,2.9c3.5-4.8,6.9-9.8,10.3-14.9L1527.9,517.5z"/>
	<path class="st5" d="M1432,622.8c-4.7,3.7-9.6,7.2-14.4,10.5l2.8,4.1c4.9-3.4,9.8-7,14.6-10.7L1432,622.8z"/>
	<path class="st5" d="M1459.2,599.6c-4.4,4.1-8.9,8.1-13.3,11.9l3.2,3.8c4.5-3.9,9.1-7.9,13.5-12.1L1459.2,599.6z"/>
	<path class="st5" d="M1507.1,546.6c-3.7,4.8-7.4,9.5-11.2,14l3.8,3.2c3.8-4.6,7.6-9.3,11.3-14.1L1507.1,546.6z"/>
	<path class="st5" d="M1484.2,574.1c-4,4.5-8.1,8.8-12.2,13l3.6,3.5c4.2-4.2,8.3-8.7,12.4-13.2L1484.2,574.1z"/>
	<path class="st5" d="M1636.9,234.7l4.9,1c1.2-5.8,2.3-11.8,3.4-17.7l-4.9-0.9C1639.2,223,1638,228.9,1636.9,234.7z"/>
	<path class="st5" d="M1629.3,269.8l4.9,1.1c1.4-5.8,2.7-11.7,4-17.6l-4.9-1.1C1632,258.2,1630.7,264.1,1629.3,269.8z"/>
	<path class="st5" d="M1620.5,304.6l4.8,1.3c1.6-5.8,3.1-11.6,4.6-17.5l-4.8-1.2C1623.6,293.1,1622.1,298.9,1620.5,304.6z"/>
	<path class="st5" d="M1661,20.7l5,0.2c0.2-5.9,0.4-12,0.6-18l-5-0.1C1661.5,8.8,1661.3,14.9,1661,20.7z"/>
	<path class="st5" d="M1653.2,128.2l5,0.5c0.6-5.9,1.3-11.9,1.9-17.9l-5-0.5C1654.4,116.4,1653.8,122.4,1653.2,128.2z"/>
	<path class="st5" d="M1656.6,92.5l5,0.4c0.5-5.9,1-11.9,1.4-18l-5-0.4C1657.6,80.6,1657.1,86.6,1656.6,92.5z"/>
	<path class="st5" d="M1665.2,38.9l-5-0.2c-0.3,6-0.6,12-1,17.9l5,0.3C1664.6,51,1664.9,45,1665.2,38.9z"/>
	<path class="st5" d="M1648.7,163.9l5,0.7c0.8-5.9,1.6-11.9,2.3-17.9l-5-0.6C1650.3,152,1649.6,158,1648.7,163.9z"/>
	<path class="st5" d="M1643.3,199.4l4.9,0.8c1-5.9,1.9-11.8,2.8-17.8l-4.9-0.8C1645.3,187.6,1644.3,193.6,1643.3,199.4z"/>
	<path class="st5" d="M1371.2,660c-5.4,2.5-10.9,4.9-16.4,7l1.8,4.7c5.6-2.2,11.2-4.6,16.7-7.1L1371.2,660z"/>
	<path class="st5" d="M1046.6,194.4l5,0.2c0.2-6.9,0.4-12.6,0.7-18l-5-0.2C1047,181.8,1046.8,187.5,1046.6,194.4z"/>
	<path class="st5" d="M1045.6,230.4l5,0.2c0.2-6,0.4-12,0.5-18l-5-0.1C1045.9,218.5,1045.8,224.5,1045.6,230.4z"/>
	<path class="st5" d="M1048.4,158.3l5,0.4c0.5-6.4,1.1-12.2,1.8-17.8l-5-0.6C1049.5,145.9,1048.9,151.8,1048.4,158.3z"/>
	<path class="st5" d="M1043.5,266.2l5,0.5c0.5-5.6,0.9-11.5,1.3-18.1l-5-0.3C1044.4,254.9,1044,260.8,1043.5,266.2z"/>
	<path class="st5" d="M1037.9,301.4l4.8,1.2c1.4-5.4,2.6-11.5,3.6-17.9l-4.9-0.8C1040.4,290.2,1039.2,296.1,1037.9,301.4z"/>
	<path class="st5" d="M997.2,354l1.8,4.7c5.9-2.3,11.4-5.4,16.2-9.1l-3.1-3.9C1007.7,349.1,1002.7,351.9,997.2,354z"/>
	<path class="st5" d="M1402.6,643.1c-5.1,3.1-10.3,6.1-15.5,8.9l2.4,4.4c5.3-2.8,10.5-5.9,15.7-9.1L1402.6,643.1z"/>
	<path class="st5" d="M1044.7,627.3c5.9,0.3,11.8,0.8,17.7,1.6l0.6-5c-6-0.8-12.1-1.3-18.1-1.7L1044.7,627.3z"/>
	<path class="st5" d="M1052.9,122.3l4.9,0.9c1.1-6.1,2.4-11.9,3.9-17.4l-4.8-1.3C1055.4,110.1,1054,116,1052.9,122.3z"/>
	<path class="st5" d="M1074.7,73.1l-4.4-2.5c-2.9,5.1-5.5,10.7-7.8,16.6l4.7,1.8C1069.4,83.3,1072,78,1074.7,73.1z"/>
	<path class="st5" d="M1097.2,636.2l1.4-4.8c-5.9-1.7-11.8-3.1-17.6-4.3l-1,4.9C1085.7,633.1,1091.5,634.6,1097.2,636.2z"/>
	<path class="st5" d="M1303.4,681.2c-5.9,1-11.8,1.7-17.7,2.2l0.4,5c6-0.5,12-1.3,18-2.3L1303.4,681.2z"/>
	<path class="st5" d="M1268,684.3c-0.8,0-1.5,0-2.3,0c-5.2,0-10.4-0.2-15.5-0.5l-0.4,5c5.2,0.4,10.6,0.6,15.9,0.6c0.8,0,1.5,0,2.3,0
		L1268,684.3z"/>
	<path class="st5" d="M1338,672.9c-5.7,1.8-11.5,3.4-17.2,4.8l1.2,4.9c5.8-1.4,11.7-3,17.5-4.8L1338,672.9z"/>
	<path class="st5" d="M1036.9,320l-4.6-1.9c-2.4,5.7-5.2,10.8-8.4,15.2l4.1,2.9C1031.4,331.5,1034.4,326,1036.9,320z"/>
	<path class="st5" d="M1165.4,659.3l-1-0.5c-5-2.7-10.1-5.4-15.1-7.8l-2.2,4.5c4.9,2.4,9.9,5,14.9,7.7l1,0.5L1165.4,659.3z"/>
	<path class="st5" d="M1115.9,636.9l-1.7,4.7c5.5,1.9,11.1,4.1,16.6,6.5l1.9-4.6C1127.2,641.1,1121.5,638.9,1115.9,636.9z"/>
	<path class="st5" d="M1109.5,10.4c-2.8,5.1-5.8,10.3-8.9,15.5l4.3,2.6c3.2-5.2,6.2-10.5,9-15.7L1109.5,10.4z"/>
	<path class="st5" d="M1181.4,667.1l-2,4.6c5.6,2.4,11.3,4.6,17,6.5l1.6-4.7C1192.4,671.5,1186.8,669.4,1181.4,667.1z"/>
	<path class="st5" d="M1095.1,43.7l-4.1-2.8c-3.3,4.8-6.8,9.7-10.4,14.6l4,3C1088.2,53.5,1091.8,48.6,1095.1,43.7z"/>
</g>
</svg>
