<?xml version="1.0" encoding="UTF-8"?>
<svg width="211px" height="296px" viewBox="0 0 211 296" version="1.1" xmlns="http://www.w3.org/2000/svg" xmlns:xlink="http://www.w3.org/1999/xlink">
    <!-- Generator: Sketch 61.2 (89653) - https://sketch.com -->
    <title>Fill 5</title>
    <desc>Created with Sketch.</desc>
    <g id="Page-1" stroke="none" stroke-width="1" fill="none" fill-rule="evenodd">
        <g id="01d.-Handleiding" transform="translate(-1097.000000, -4605.000000)" fill="#C7601F">
            <g id="BG" transform="translate(-30.000000, 0.000000)">
                <g id="Group-5" transform="translate(1224.500000, 4753.000000) rotate(10.000000) translate(-1224.500000, -4753.000000) translate(1122.000000, 4593.000000)">
                    <path d="M158.152651,0.536437685 L204.94539,92.1020626 L170.83224,92.1020626 L170.83224,145.761958 C170.83224,171.19714 157.069366,194.82067 134.923933,207.409592 L134.923933,207.409592 L76.2047448,246.118213 C66.3623298,251.656103 60.3372036,261.93414 60.3372036,273.030508 L60.3372036,273.030508 L60.3372036,306.885754 C60.3372036,313.854438 54.6473798,319.536438 47.6576145,319.536438 C40.6730076,319.536438 34.9780253,313.854438 34.9780253,306.885754 L34.9780253,306.885754 L34.9780253,273.030508 C34.9780253,252.968522 45.8263475,234.316741 63.2723892,224.362949 L63.2723892,224.362949 L122.001894,185.644035 C136.533384,177.481308 145.473062,162.236668 145.473062,145.761958 L145.473062,145.761958 L145.473062,92.1020626 L111.354753,92.1020626 L158.152651,0.536437685 Z M47.7676105,51.521527 L94.5898305,143.138121 L60.4551881,143.138121 L60.4551881,194.584917 L35.0800328,207.236781 L35.0800328,143.138121 L0.945390456,143.138121 L47.7676105,51.521527 Z" id="Fill-5"></path>
                </g>
            </g>
        </g>
    </g>
</svg>