<?xml version="1.0" encoding="UTF-8"?>
<svg width="163px" height="152px" viewBox="0 0 163 152" version="1.1" xmlns="http://www.w3.org/2000/svg" xmlns:xlink="http://www.w3.org/1999/xlink">
    <!-- Generator: Sketch 61.2 (89653) - https://sketch.com -->
    <title>iconmonstr-idea-12</title>
    <desc>Created with Sketch.</desc>
    <g id="Symbols" stroke="none" stroke-width="1" fill="none" fill-rule="evenodd" fill-opacity="0.15">
        <g id="Block-/-Waarom-werkt-dit?" transform="translate(-562.000000, -30.000000)" fill="#FFFFFF">
            <g id="Aanvullingen?">
                <g id="iconmonstr-idea-12" transform="translate(645.000000, 106.500000) rotate(-10.000000) translate(-645.000000, -106.500000) translate(563.000000, 31.000000)">
                    <path d="M164,70.889 C164,101.980667 138.1495,118.449 115.169,117.328333 C114.137167,127.223 115.585833,135.382 117.793,142.2085 L92.373,150.333333 C90.0633333,142.6185 85.5875,124.216333 73.5676667,114.260167 C54.9263333,119.7405 39.6128333,109.845833 34.0436667,96.309 C14.6848333,96.6233333 0,83.763 0,65.1968333 C0,36.5036667 31.4606667,2.84217094e-13 81.9316667,2.84217094e-13 C133.400333,2.84217094e-13 164,36.7428333 164,70.889 Z M13.7213333,63.5841667 C12.7305,79.6561667 28.6111667,84.5625 44.0613333,82.8951667 C46.3573333,99.4933333 63.2356667,105.301667 75.85,99.2678333 C86.4485,104.3245 94.6211667,115.462833 101.3315,133.209 L101.345167,133.25 L102.103667,133.004 C100.607167,122.214167 101.488667,110.29 104.563667,102.062667 C131.2615,106.750333 151.365167,94.1838333 150.278667,69.0713333 C149.144333,42.9065 125.289167,14.3295 83.0181667,13.6598333 C39.9545,13.3796667 14.9786667,42.7356667 13.7213333,63.5841667 Z M69.5155,46.6101667 C64.7868333,44.4645 61.5,39.6948333 61.5,34.1666667 C61.5,26.6226667 67.6226667,20.5 75.1666667,20.5 C82.7106667,20.5 88.8333333,26.6226667 88.8333333,34.1666667 C88.8333333,35.9433333 88.4916667,37.6448333 87.8698333,39.2096667 C96.1723333,45.4348333 104.304,51.8855 112.469833,58.302 C115.367167,56.0265 119.029833,54.6666667 123,54.6666667 C132.43,54.6666667 140.083333,62.32 140.083333,71.75 C140.083333,81.18 132.43,88.8333333 123,88.8333333 C114.998167,88.8333333 108.274167,83.3188333 106.422333,75.8841667 C98.2155,76.5538333 89.995,77.0663333 81.7813333,77.6198333 C80.6196667,83.9953333 75.0368333,88.8333333 68.3333333,88.8333333 C60.7893333,88.8333333 54.6666667,82.7106667 54.6666667,75.1666667 C54.6666667,68.1078333 60.024,62.2926667 66.8983333,61.5751667 C67.7183333,56.58 68.6203333,51.5985 69.5155,46.6101667 Z M83.5853333,44.9291667 C81.5626667,46.5145 79.0753333,47.5463333 76.3625,47.7786667 L73.882,62.6753333 C77.326,64.206 80.0183333,67.1238333 81.2551667,70.7181667 L106.183167,68.7433333 C106.504333,66.9188333 107.119333,65.1968333 107.9735,63.6251667 L83.5853333,44.9291667 L83.5853333,44.9291667 Z" id="Shape" transform="translate(82.000000, 75.166667) scale(-1, 1) translate(-82.000000, -75.166667) "></path>
                </g>
            </g>
        </g>
    </g>
</svg>