<?xml version="1.0" encoding="UTF-8"?>
<svg width="166px" height="186px" viewBox="0 0 166 186" version="1.1" xmlns="http://www.w3.org/2000/svg" xmlns:xlink="http://www.w3.org/1999/xlink">
    <!-- Generator: Sketch 61.2 (89653) - https://sketch.com -->
    <title>Ico</title>
    <desc>Created with Sketch.</desc>
    <g id="Page-1" stroke="none" stroke-width="1" fill="none" fill-rule="evenodd" opacity="0.15">
        <g id="02c2.-Tipkaart-Detail---Gebruiksgemak" transform="translate(-336.000000, -4644.000000)" fill="#FFFFFF" fill-rule="nonzero">
            <g id="Content" transform="translate(323.000000, 328.000000)">
                <g id="Ico" transform="translate(99.970829, 4409.275108) scale(-1, 1) rotate(10.000000) translate(-99.970829, -4409.275108) translate(16.970829, 4315.775108)">
                    <path d="M99.6149215,147.516002 L66.4534187,147.516002 C64.165275,147.516002 62.3082308,149.254331 62.3082308,151.396201 C62.3082308,153.538071 64.165275,155.2764 66.4534187,155.2764 L99.6149215,155.2764 C101.903065,155.2764 103.760109,153.538071 103.760109,151.396201 C103.760109,149.254331 101.903065,147.516002 99.6149215,147.516002 Z M99.6149215,163.036797 L66.4534187,163.036797 C64.165275,163.036797 62.3082308,164.775126 62.3082308,166.916996 C62.3082308,169.058865 64.165275,170.797194 66.4534187,170.797194 L99.6149215,170.797194 C101.903065,170.797194 103.760109,169.058865 103.760109,166.916996 C103.760109,164.775126 101.903065,163.036797 99.6149215,163.036797 Z M101.687515,178.557592 L64.3808248,178.557592 L74.2297911,184.626223 C75.506509,185.697157 77.3801339,186.317989 79.3283721,186.317989 L86.7482584,186.317989 C88.6882063,186.317989 90.5701216,185.697157 91.8468394,184.626223 L101.687515,178.557592 Z M132.776424,71.4718689 C132.776424,99.168727 106.131157,117.902326 106.131157,139.755605 L89.6415995,139.755605 C89.6167284,125.336787 96.8542264,113.455619 103.909336,101.985751 C110.218312,91.7032248 116.195673,81.9872073 116.195673,71.4718689 C116.195673,51.356919 98.9931433,42.1996501 83.009299,42.1996501 C67.0503257,42.1996501 49.8726673,51.356919 49.8726673,71.4718689 C49.8726673,81.9872073 55.8500282,91.7032248 62.1590041,101.985751 C69.2141138,113.455619 76.4599022,125.336787 76.4184503,139.755605 L59.9371834,139.755605 C59.9371834,117.902326 33.2919159,99.168727 33.2919159,71.4718689 C33.2919159,42.5799096 58.1464622,26.6788555 83.009299,26.6788555 C107.888716,26.6788555 132.776424,42.5954304 132.776424,71.4718689 Z M165.937927,66.1094343 L165.937927,76.7566995 L144.896954,76.7566995 C145.062761,75.0261309 145.211988,73.2800415 145.211988,71.4718689 C145.211988,69.6326547 145.071051,67.8710445 144.921825,66.1171947 L165.937927,66.1171947 L165.937927,66.1094343 Z M77.6620066,15.2555506 L77.6620066,0.0684529755 L89.0281117,0.0684529755 L89.0281117,15.3098734 C87.0218408,15.1391446 85.0155699,15.0382594 83.009299,15.0382594 C81.2268682,15.0382594 79.4444374,15.1158634 77.6620066,15.2555506 Z M46.6311304,25.2975047 L38.0091397,10.2423339 L48.0239135,5.21359641 L56.6210331,20.2144445 C53.1556561,21.6190764 49.8063443,23.3263638 46.6311304,25.2975047 Z M134.393048,38.7617941 L150.492957,27.9438002 L157.116967,36.5966433 L140.088536,48.0277085 C138.505074,44.6907377 136.581707,41.6098599 134.393048,38.7617941 Z M109.439017,20.2222049 L118.044427,5.21359641 L128.0592,10.2423339 L119.428919,25.3052651 C116.261996,23.3341242 112.912684,21.6345972 109.439017,20.2222049 L109.439017,20.2222049 Z M25.9715142,48.0277085 L8.94308249,36.6044037 L15.5670927,27.9515606 L31.6670023,38.7617941 C29.4783431,41.6020995 27.5632663,44.6829773 25.9715142,48.0277085 Z M139.607694,96.3206612 L159.123238,103.72408 L154.861985,113.587545 L134.757824,105.966835 C136.498803,102.885957 138.140297,99.6653924 139.607694,96.3206612 L139.607694,96.3206612 Z M30.9374492,105.28392 L11.4053241,113.509941 L6.74613293,103.801684 L26.1456121,95.6377462 C27.5798471,98.9979983 29.2213414,102.195282 30.9374492,105.28392 L30.9374492,105.28392 Z M21.1713866,76.7566995 L0.130413127,76.7566995 L0.130413127,66.1094343 L21.1465155,66.1094343 C20.9972888,67.8632841 20.8563524,69.6326547 20.8563524,71.4718689 C20.8563524,73.2800415 21.0055791,75.0261309 21.1713866,76.7566995 L21.1713866,76.7566995 Z" id="Shape"></path>
                </g>
            </g>
        </g>
    </g>
</svg>