<?xml version="1.0" encoding="UTF-8"?>
<svg width="181px" height="201px" viewBox="0 0 181 201" version="1.1" xmlns="http://www.w3.org/2000/svg" xmlns:xlink="http://www.w3.org/1999/xlink">
    <!-- Generator: Sketch 61.2 (89653) - https://sketch.com -->
    <title>Fill 8</title>
    <desc>Created with Sketch.</desc>
    <g id="Page-1" stroke="none" stroke-width="1" fill="none" fill-rule="evenodd" opacity="0.2">
        <g id="00a.-Homepage" transform="translate(-1387.000000, -421.000000)" fill="#FFFFFF">
            <g id="Top" transform="translate(-146.000000, -159.000000)">
                <g id="B-intro">
                    <g id="B-Pattern">
                        <g id="Group-3" transform="translate(146.000000, 357.000000)">
                            <g id="Group-10" transform="translate(1387.000000, 223.000000)">
                                <path d="M176.424991,71.6255129 L68.4899446,55.4206249 C65.6523293,54.9946266 63.0836823,56.8173056 62.7551567,59.4941005 L47.9964834,179.119067 C47.6660366,181.793742 49.6986683,184.307344 52.5362836,184.733342 L160.47133,200.93823 C163.308946,201.364228 165.877593,199.541549 166.206118,196.866874 L180.964792,77.2397881 C181.295238,74.5651126 179.262607,72.0515111 176.424991,71.6255129 L176.424991,71.6255129 Z M71.6560854,64.9197496 L171.072523,79.846643 L157.30519,191.439105 L57.8887522,176.512212 L71.6560854,64.9197496 Z M55.7533905,37.2104884 L56.0155803,37.2461838 L156.473309,52.3277929 C161.287073,53.0519321 164.760006,57.2512584 164.344667,61.7785461 L164.317577,62.0303795 L164.259941,62.4945269 L64.9203513,47.5803499 C60.426909,46.9063826 56.3517261,49.7276771 55.6991824,53.9121721 L55.6659215,54.1504719 L41.7660254,166.815348 L40.0638405,166.558901 C35.2500769,165.836843 31.7771433,161.637554 32.1924821,157.108261 L32.2195729,156.856315 L46.1060206,44.2825726 C46.6664284,39.7427167 50.955475,36.623703 55.7533905,37.2104884 Z M39.808567,18.8063051 L40.0707568,18.8420005 L140.528486,33.9236096 C145.340363,34.6477487 148.815114,38.8470751 148.399842,43.3743628 L148.372753,43.6261962 L148.315117,44.0903435 L48.9755279,29.1761666 C44.4820856,28.5021992 40.4069026,31.3234937 39.754359,35.5079888 L39.7210981,35.7462886 L25.821202,148.411165 L24.119017,148.154718 C19.3052534,147.432659 15.8323199,143.233371 16.2476586,138.706084 L16.2747495,138.454251 L30.1611972,25.8805086 C30.7216049,21.3385711 35.0106515,18.2195203 39.808567,18.8063051 Z M23.5961201,0.0708604162 L23.8583099,0.106555788 L124.316039,15.1881649 C129.129802,15.9123041 132.602736,20.1116304 132.187397,24.6389181 L132.160306,24.8907515 L132.10267,25.3548988 L32.763081,10.4407219 C28.2696387,9.76675453 24.1944557,12.588049 23.5419121,16.7725441 L23.5086512,17.0108439 L9.60875508,129.67572 L7.90464895,129.419273 C3.09277162,128.697215 -0.380127672,124.497926 0.0333934409,119.970639 L0.0603813889,119.718806 L13.9487503,7.14506391 C14.509158,2.60312646 18.7982046,-0.515924344 23.5961201,0.0708604162 Z" id="Fill-8"></path>
                            </g>
                        </g>
                    </g>
                </g>
            </g>
        </g>
    </g>
</svg>