<?xml version="1.0" encoding="utf-8"?><svg xmlns="http://www.w3.org/2000/svg" xmlns:xlink="http://www.w3.org/1999/xlink"><defs><svg viewBox="0 0 128 128" id="arrow" xmlns="http://www.w3.org/2000/svg"><path d="M40.9 1.2L25.3 16.7 72.6 64l-47.3 47.3 15.6 15.5L103.7 64z"/></svg><svg viewBox="0 0 128 128" id="mail" xmlns="http://www.w3.org/2000/svg"><path d="M113.1 19.1H15.9c-6.2 0-11.2 5-11.2 11.2v67.3c0 6.2 5 11.2 11.2 11.2h97.3c6.2 0 11.2-5 11.2-11.2V30.3c-.1-6.2-5.1-11.2-11.3-11.2zm0 11.2v9.5c-5.2 4.3-13.6 10.9-31.5 24.9-3.9 3.1-11.7 10.5-17.2 10.5-5.4.1-13.2-7.4-17.2-10.5-17.9-14-26.2-20.6-31.5-24.9v-9.5h97.4zM15.9 97.7V54.3c5.4 4.3 13 10.3 24.5 19.3 5.1 4 14.1 12.9 24.1 12.8 10 .1 18.8-8.7 24.1-12.8 11.6-9.1 19.2-15.1 24.5-19.3v43.4H15.9z"/></svg><svg viewBox="0 0 128 128" id="phone" xmlns="http://www.w3.org/2000/svg"><path d="M99.2 116.9l-6 3.3C58.5 138.3-1.9 32.9 32 13l5.7-3.2 18.5 32.3-5.7 3.2c-10.3 6.2 13.8 48.4 24.3 42.6l5.8-3.2c.1 0 18.6 32.2 18.6 32.2zM50.3 2.5l-8.4 4.9 18.5 32.3 8.4-4.9L50.3 2.5zm43 74.9l-8.4 4.9 18.5 32.3 8.4-4.9c0-.1-18.5-32.3-18.5-32.3z"/></svg></defs></svg>