<?xml version="1.0" encoding="utf-8"?>
<!-- Generator: Adobe Illustrator 24.1.0, SVG Export Plug-In . SVG Version: 6.00 Build 0)  -->
<svg version="1.1" id="Layer_1" xmlns="http://www.w3.org/2000/svg" xmlns:xlink="http://www.w3.org/1999/xlink" x="0px" y="0px"
	 viewBox="0 0 1008 4786.4" style="enable-background:new 0 0 1008 4786.4;" xml:space="preserve">
<style type="text/css">
	.st0{opacity:0.2;}
	.st1{fill:#FFFFFF;}
</style>
<desc>Created with Sketch.</desc>
<g id="Page-1" class="st0">
	<g id="_x30_1d.-Handleiding" transform="translate(-296.000000, -513.000000)">
		<g id="BG" transform="translate(-30.000000, 0.000000)">
			<g id="_x32_" transform="translate(330.000000, 517.000000)">
				<g id="Path">
					<path class="st1" d="M748.9,4782.3l-7.7-2.1c1.9-6.9,3.7-13.9,5.2-20.8l7.8,1.8C752.6,4768.2,750.8,4775.3,748.9,4782.3z
						 M759.9,4731.5l-7.9-1.3c1.6-9.8,2.8-19.7,3.7-29.5l8,0.7C762.8,4711.4,761.5,4721.5,759.9,4731.5z M765.2,4671.2l-8-0.1
						c0-2.2,0.1-4.4,0.1-6.6c0-7.7-0.2-15.4-0.7-23l8-0.5c0.4,7.8,0.7,15.7,0.7,23.5C765.3,4666.7,765.3,4668.9,765.2,4671.2z
						 M753.9,4611.8c-1.3-9.7-2.9-19.6-4.9-29.3l7.8-1.6c2,9.9,3.7,19.9,5,29.8L753.9,4611.8z M741.9,4553.7
						c-2.6-9.4-5.7-18.9-9-28.3l7.5-2.7c3.4,9.5,6.5,19.2,9.2,28.8L741.9,4553.7z M722,4497.8c-3.8-9-8.1-18-12.6-26.9l7.1-3.6
						c4.6,9.1,8.9,18.3,12.8,27.4L722,4497.8z M695.3,4444.6c-4.8-8.4-10.1-17-15.5-25.4l6.7-4.3c5.5,8.5,10.8,17.2,15.7,25.8
						L695.3,4444.6z M663.1,4394.5c-5.6-7.9-11.6-16-17.8-23.9l6.3-4.9c6.3,8,12.3,16.2,18,24.2L663.1,4394.5z M626.5,4347.4
						c-6.3-7.4-12.9-15-19.6-22.5l5.9-5.4c6.8,7.5,13.5,15.2,19.8,22.7L626.5,4347.4z M586.5,4303.1c-6.8-7-13.8-14.2-21-21.3
						l5.6-5.7c7.2,7.1,14.4,14.3,21.2,21.4L586.5,4303.1z M543.9,4261.1c-7.1-6.6-14.5-13.4-22.1-20.2l5.3-6
						c7.6,6.8,15.1,13.7,22.2,20.3L543.9,4261.1z M499.3,4221.1c-7.2-6.3-14.9-12.8-22.8-19.4l5.1-6.1c7.9,6.6,15.6,13.2,22.9,19.5
						L499.3,4221.1z M453.4,4182.6c-6.8-5.5-13.8-11.3-22.9-18.6l-0.4-0.3l5-6.2l0.4,0.3c9.1,7.3,16.1,13.1,22.9,18.6L453.4,4182.6z
						 M407.1,4144.2c-7.4-6.6-14.9-13.4-22.2-20.4l5.5-5.8c7.2,6.9,14.6,13.7,22,20.2L407.1,4144.2z M363.5,4102.5
						c-6.9-7.1-13.8-14.6-20.5-22.1l6-5.3c6.7,7.4,13.5,14.8,20.3,21.9L363.5,4102.5z M323.3,4057.6c-6.4-7.6-12.7-15.5-18.9-23.5
						l6.3-4.9c6.1,7.9,12.4,15.7,18.7,23.3L323.3,4057.6z M286.3,4010.1c-5.8-8-11.7-16.3-17.3-24.6l6.6-4.5
						c5.6,8.2,11.4,16.5,17.2,24.4L286.3,4010.1z M252.3,3960.3c-5.3-8.4-10.7-17-15.8-25.7l6.9-4.1c5.1,8.6,10.4,17.1,15.7,25.5
						L252.3,3960.3z M221.4,3908.5c-4.9-8.7-9.7-17.6-14.4-26.5l7.1-3.7c4.6,8.8,9.4,17.7,14.3,26.3L221.4,3908.5z M193.3,3855.2
						c-4.4-8.9-8.8-18.1-12.9-27.2l7.3-3.3c4.2,9,8.5,18.1,12.9,27L193.3,3855.2z M168.2,3800.4c-3.9-9.2-7.8-18.5-11.5-27.8l7.4-3
						c3.7,9.2,7.5,18.5,11.5,27.6L168.2,3800.4z M145.8,3744.5c-3.5-9.3-6.9-18.9-10.1-28.4l7.6-2.6c3.2,9.4,6.6,18.9,10.1,28.2
						L145.8,3744.5z M126.2,3687.6c-3-9.5-6-19.2-8.7-28.8l7.7-2.2c2.8,9.5,5.7,19.2,8.7,28.6L126.2,3687.6z M109.4,3629.8
						c-1-3.6-1.9-7.2-2.8-10.8c-1.5-6-3-12.2-4.4-18.4l7.8-1.8c1.4,6.2,2.9,12.3,4.4,18.2c0.9,3.6,1.8,7.2,2.8,10.8L109.4,3629.8z
						 M96.1,3571c-1.8-9.7-3.5-19.7-5.1-29.7l7.9-1.2c1.5,9.9,3.2,19.8,5.1,29.4L96.1,3571z M86.8,3511.5
						c-1.2-9.8-2.3-19.9-3.3-29.9l8-0.8c1,9.9,2.1,19.9,3.3,29.7L86.8,3511.5z M81,3451.5c-0.7-10-1.2-20.1-1.6-30.1l8-0.3
						c0.4,9.9,0.9,19.9,1.6,29.9L81,3451.5z M78.6,3391.3c-0.1-4.4-0.1-8.9-0.1-13.3c0-5.6,0-11.3,0.1-16.8l8,0.1
						c-0.1,5.5-0.1,11.1-0.1,16.7c0,4.3,0,8.8,0.1,13.2L78.6,3391.3z M87.6,3331.5l-8-0.4c0.5-10.1,1.1-20.2,1.9-30.1l8,0.6
						C88.7,3311.4,88.1,3321.4,87.6,3331.5z M92.3,3271.9l-8-0.9c1.1-10.1,2.5-20.2,3.9-29.9l7.9,1.2
						C94.7,3251.9,93.4,3261.9,92.3,3271.9z M101.2,3212.9l-7.9-1.5c1.9-10.1,4.1-20,6.4-29.5l7.8,1.9
						C105.2,3193.1,103.1,3202.9,101.2,3212.9z M115.3,3155l-7.7-2.3c3-9.9,6.3-19.5,9.7-28.7l7.5,2.8
						C121.5,3135.8,118.3,3145.3,115.3,3155z M136.4,3099.5l-7.2-3.4c4.4-9.5,9.2-18.5,14.2-26.8l6.9,4.1
						C145.4,3081.5,140.7,3090.3,136.4,3099.5z M166.8,3048.9l-6.3-4.9c6.4-8.3,13.3-16,20.5-22.7l5.5,5.8
						C179.6,3033.6,173,3040.9,166.8,3048.9z M209.3,3009l-4.3-6.7c8.7-5.6,17.9-10.3,27.4-14l2.9,7.5
						C226.3,2999.3,217.5,3003.7,209.3,3009z M263.4,2988l-1.7-7.8c9.1-2,19.1-4,29.5-6l1.5,7.9
						C282.4,2984.1,272.5,2986.1,263.4,2988z M322.3,2976.7l-1.4-7.9c9.1-1.6,18.8-3.3,29.6-5.1l1.3,7.9
						C341,2973.4,331.4,2975,322.3,2976.7z M381.4,2966.6l-1.3-7.9c9.8-1.6,19.7-3.2,29.6-4.8l1.3,7.9
						C401.1,2963.4,391.2,2965,381.4,2966.6z M440.7,2957l-1.3-7.9c9.8-1.6,19.7-3.2,29.6-4.9l1.3,7.9
						C460.4,2953.8,450.5,2955.4,440.7,2957z M500,2947.1l-1.4-7.9c10.2-1.8,20.2-3.5,29.5-5.3l1.4,7.9
						C520.2,2943.5,510.3,2945.3,500,2947.1z M559.1,2936.2l-1.5-7.9c10.1-2,20-4,29.4-5.9l1.6,7.8
						C579.2,2932.3,569.3,2934.3,559.1,2936.2z M618,2923.8l-1.8-7.8c10-2.3,19.8-4.7,29.1-7l2,7.8
						C637.9,2919.1,628.1,2921.5,618,2923.8z M676.4,2909l-2.2-7.7c9.9-2.8,19.5-5.7,28.6-8.6l2.4,7.6
						C696.1,2903.2,686.4,2906.1,676.4,2909z M733.8,2890.4l-2.8-7.5c9.7-3.6,19-7.3,27.7-11.1l3.2,7.3
						C753.1,2883,743.6,2886.8,733.8,2890.4z M789.2,2866.1l-3.7-7.1c9.1-4.8,17.8-9.8,25.6-14.9l4.4,6.7
						C807.4,2856.1,798.6,2861.2,789.2,2866.1z M840,2832.8l-5.2-6.1c4.8-4.1,9.2-8.3,13.3-12.5c2.6-2.7,5.1-5.4,7.5-8.2l6,5.3
						c-2.5,2.9-5.1,5.7-7.8,8.4C849.6,2824.1,845,2828.5,840,2832.8z M880.4,2787.3l-6.6-4.6c5.6-8,10.8-16.4,15.6-25.1l7,3.9
						C891.6,2770.5,886.2,2779.2,880.4,2787.3z M909.8,2734.2l-7.4-3.2c3.8-8.9,7.3-18.2,10.5-27.7l7.6,2.5
						C917.3,2715.6,913.7,2725.2,909.8,2734.2z M928.9,2676.7l-7.8-1.9c2.3-9.3,4.3-19.1,6.1-29.1l7.9,1.4
						C933.3,2657.2,931.2,2667.2,928.9,2676.7z M939.4,2617.2l-7.9-0.9c1.1-9.6,2-19.6,2.7-29.7l8,0.5
						C941.5,2597.4,940.5,2607.5,939.4,2617.2z M943.5,2557l-8-0.2c0.1-6,0.2-12.3,0.2-18.5c0-3.8,0-7.6-0.1-11.3l8-0.1
						c0.1,3.8,0.1,7.7,0.1,11.4C943.7,2544.6,943.6,2550.9,943.5,2557z M934.7,2497.1c-0.4-9.7-1-19.7-1.8-29.8l8-0.6
						c0.8,10.2,1.4,20.3,1.8,30.1L934.7,2497.1z M930.4,2437.5c-1-9.6-2.1-19.7-3.3-29.7l7.9-1c1.2,10.1,2.3,20.2,3.3,29.9
						L930.4,2437.5z M923.2,2378.1c-1.3-9.6-2.8-19.6-4.4-29.6l7.9-1.2c1.6,10.1,3.1,20.1,4.4,29.7L923.2,2378.1z M913.9,2318.9
						c-1.7-9.6-3.4-19.5-5.3-29.5l7.9-1.5c1.9,10,3.7,20,5.3,29.6L913.9,2318.9z M902.9,2260.1c-1.1-5.7-2.3-11.5-3.5-17.3
						c-0.8-4-1.7-8.1-2.6-12l7.8-1.8c0.9,3.9,1.8,8,2.6,12.1c1.2,5.8,2.4,11.6,3.5,17.4L902.9,2260.1z M889.5,2201.9
						c-2.7-9.7-5.6-19.3-8.7-28.4l7.6-2.6c3.1,9.3,6.1,19,8.9,28.9L889.5,2201.9z M870.5,2145.6c-3.8-9.3-7.9-18.4-12.1-27.1
						l7.2-3.5c4.3,8.8,8.5,18.1,12.4,27.6L870.5,2145.6z M844.2,2092.4c-5.1-8.6-10.5-17-16.2-24.8l6.5-4.7
						c5.8,8,11.3,16.6,16.6,25.4L844.2,2092.4z M809.7,2044.4c-6.5-7.5-13.5-14.6-20.6-21.2l5.4-5.9c7.3,6.8,14.4,14.1,21.2,21.8
						L809.7,2044.4z M246.4,2018.6c-10.8-0.3-21-1.2-30.4-2.6l1.2-7.9c9,1.4,18.9,2.2,29.4,2.5L246.4,2018.6z M276.7,2018.1l-0.5-8
						c9.3-0.5,19.3-1.4,29.7-2.6l0.9,7.9C296.4,2016.6,286.2,2017.5,276.7,2018.1z M336.7,2011.1l-1.3-7.9
						c9.3-1.5,19.2-3.3,29.4-5.4l1.6,7.8C356.1,2007.7,346.2,2009.6,336.7,2011.1z M186.2,2008.7c-10.4-3.7-19.7-8.4-27.6-14.2
						l4.7-6.5c7.3,5.3,15.9,9.7,25.6,13.1L186.2,2008.7z M766.4,2004.4c-7.9-5.9-16.2-11.3-24.7-16.2l4-6.9
						c8.7,5,17.3,10.6,25.5,16.7L766.4,2004.4z M395.9,1999.4l-1.8-7.8c9.2-2.1,18.8-4.3,29.1-6.9l1.9,7.8
						C414.7,1995.1,405.2,1997.3,395.9,1999.4z M454.3,1985.1l-2-7.7c9.7-2.5,18.9-4.9,29-7.6l2,7.7
						C473.2,1980.2,464,1982.6,454.3,1985.1z M715.3,1975c-9-3.9-18.3-7.3-27.7-10.1l2.3-7.7c9.7,2.9,19.4,6.4,28.6,10.4L715.3,1975
						z M136.8,1972.3c-5.3-7.3-10.5-16.1-15.7-26.2l7.1-3.6c5,9.8,10.1,18.3,15.1,25.2L136.8,1972.3z M512.4,1970l-2-7.7
						c11.7-3,21-5.3,29.2-7.3l1.8,7.8C533.3,1964.7,524.1,1967,512.4,1970z M658.8,1958c-9.6-1.8-19.5-3-29.3-3.7l0.6-8
						c10.1,0.7,20.3,2,30.2,3.8L658.8,1958z M570.6,1956.7l-1.3-7.9c4.8-0.8,9.1-1.4,13-1.8c5.7-0.6,11.5-1,17.4-1.2l0.3,8
						c-5.7,0.2-11.4,0.6-16.8,1.2C579.4,1955.3,575.2,1955.9,570.6,1956.7z M108.5,1918.4c-3.6-8.7-7.2-18.2-10.7-28.3l7.6-2.6
						c3.4,9.9,7,19.3,10.5,27.9L108.5,1918.4z M88.5,1861.4c-2.8-9.2-5.6-19-8.3-29l7.7-2.1c2.7,9.9,5.5,19.6,8.3,28.7L88.5,1861.4z
						 M72.7,1803.3c-2.3-9.5-4.6-19.3-6.9-29.3l7.8-1.7c2.2,9.9,4.5,19.8,6.8,29.2L72.7,1803.3z M59.5,1744.5
						c-2-9.6-3.9-19.5-5.8-29.5l7.9-1.5c1.9,9.9,3.8,19.8,5.8,29.4L59.5,1744.5z M48.3,1685.4c-1.7-9.7-3.3-19.7-4.9-29.7l7.9-1.3
						c1.6,9.9,3.2,19.9,4.9,29.6L48.3,1685.4z M38.9,1626c-1.4-9.8-2.8-19.8-4.2-29.8l7.9-1.1c1.3,9.9,2.7,19.9,4.2,29.7L38.9,1626z
						 M30.8,1566.4c-1.2-9.9-2.4-19.9-3.5-29.9l8-0.9c1.1,9.9,2.3,19.9,3.5,29.8L30.8,1566.4z M24.2,1506.6c-1-9.9-2-20-2.8-30
						l8-0.7c0.9,9.9,1.8,20,2.8,29.9L24.2,1506.6z M18.8,1446.7c-0.8-10-1.5-20.1-2.2-30l8-0.5c0.7,9.9,1.4,19.9,2.2,29.9
						L18.8,1446.7z M14.8,1386.7c-0.6-10-1.1-20.1-1.5-30l8-0.3c0.4,9.9,0.9,19.9,1.5,29.9L14.8,1386.7z M12.2,1326.7
						c-0.3-10.1-0.6-20.2-0.7-30.1l8-0.1c0.2,9.8,0.4,19.9,0.7,30L12.2,1326.7z M11.2,1266.5c0-2,0-4,0-6c0-8.1,0.1-16.2,0.1-24.1
						l8,0.1c-0.1,7.8-0.1,15.9-0.1,24c0,2,0,4,0,6L11.2,1266.5z M19.9,1206.6l-8-0.2c0.3-10.2,0.7-20.3,1.2-30.1l8,0.4
						C20.6,1186.4,20.2,1196.5,19.9,1206.6z M22.9,1146.9l-8-0.6l0.1-1.2c0.7-9.8,1.6-19.5,2.6-28.9l8,0.9c-1,9.2-1.9,18.8-2.6,28.6
						L22.9,1146.9z M29.5,1087.6l-7.9-1.2c1.6-10.2,3.4-20.2,5.5-29.7l7.8,1.7C32.9,1067.7,31.1,1077.6,29.5,1087.6z M42,1029.5
						l-7.7-2.2c2.8-10,6-19.7,9.4-28.8l7.5,2.8C47.8,1010.2,44.7,1019.7,42,1029.5z M62.7,974.1l-7.2-3.5
						c4.5-9.3,9.5-18.3,14.8-26.6l6.7,4.3C72,956.4,67.1,965,62.7,974.1z M94.5,924.6l-6.1-5.2c6.6-7.8,13.8-15.2,21.4-21.8l5.3,6
						C107.8,910.1,100.9,917.1,94.5,924.6z M665.5,899.5l-0.2-8c10.1-0.2,20.1-0.7,29.7-1.5l0.7,8
						C685.9,898.8,675.7,899.3,665.5,899.5z M635.2,899.2c-9.8-0.4-19.9-1-30.1-1.9l0.7-8c10.1,0.9,20.1,1.5,29.7,1.9L635.2,899.2z
						 M725.7,894.3l-1.3-7.9c9.9-1.6,19.7-3.6,29-6l2,7.8C745.8,890.5,735.8,892.6,725.7,894.3z M575.1,894
						c-9.7-1.3-19.7-2.8-29.8-4.5l1.3-7.9c10,1.7,19.9,3.2,29.5,4.4L575.1,894z M138.6,886.2l-4.3-6.8c8.4-5.4,17.5-10.2,26.9-14.4
						l3.3,7.3C155.4,876.3,146.7,881,138.6,886.2z M515.7,884.1c-9.6-1.9-19.5-4.1-29.4-6.4l1.8-7.8c9.9,2.3,19.7,4.4,29.2,6.3
						L515.7,884.1z M784.4,879.3l-2.7-7.5c9.3-3.3,18.5-7.1,27.3-11.3l3.4,7.2C803.5,872,794,875.9,784.4,879.3z M457,871
						c-9.9-2.2-19.8-4.3-29.3-6.1l1.5-7.8c9.6,1.9,19.5,4,29.5,6.2L457,871z M192,862l-2.3-7.7c9.4-2.8,19.3-5.2,29.6-7.1l1.5,7.9
						C210.8,857,201.1,859.3,192,862z M398.4,859.5c-10.1-1.7-20-3.2-29.5-4.4l1-7.9c9.6,1.3,19.7,2.8,29.8,4.5L398.4,859.5z
						 M839.2,853.1l-4.2-6.8c8.3-5.1,16.5-10.7,24.3-16.8l4.9,6.4C856.1,842.1,847.7,847.9,839.2,853.1z M339.2,851.8
						c-10.2-0.9-20.2-1.6-29.7-2l0.3-8c9.7,0.4,19.8,1.1,30.1,2L339.2,851.8z M250.1,851.1l-0.7-8c9.7-0.9,19.8-1.5,30.2-1.7l0.2,8
						C269.5,849.7,259.6,850.2,250.1,851.1z M887.4,816.3l-5.4-5.9c7-6.5,14.1-13.6,20.9-21.1l5.9,5.4
						C901.8,802.4,894.6,809.6,887.4,816.3z M928.3,771.7l-6.3-5c5.9-7.4,11.9-15.5,17.8-23.9l6.5,4.6
						C940.4,756,934.3,764.1,928.3,771.7z M963.2,722.4l-6.7-4.3c5.1-8,9.8-16.7,14-25.9l7.3,3.3
						C973.4,705.1,968.5,714.1,963.2,722.4z M988.6,667.1l-7.6-2.4c2.9-9.1,5.4-18.8,7.5-28.6l7.8,1.6
						C994.2,647.8,991.6,657.7,988.6,667.1z M1001.2,607.7l-7.9-0.9c1.1-9.7,1.9-19.6,2.2-29.6l8,0.3
						C1003.1,587.7,1002.3,597.8,1001.2,607.7z M995.2,547.5c-0.5-9.8-1.3-19.8-2.5-29.6l7.9-1c1.2,10,2.1,20.2,2.6,30.2
						L995.2,547.5z M987.9,488.6c-2-9.7-4.4-19.4-7.1-28.8l7.7-2.2c2.8,9.6,5.3,19.5,7.3,29.4L987.9,488.6z M273,443.6
						c-2.7,0-5.4-0.1-8.1-0.3l0.5-8c9.5,0.6,19.2,0.1,28.9-1.7l1.4,7.9C288.1,442.9,280.5,443.6,273,443.6z M234.5,437.5
						c-9.4-3-18.9-7.1-28.2-12.3l3.9-7c8.8,4.9,17.8,8.9,26.7,11.7L234.5,437.5z M325.1,432.8l-2.9-7.5c7.8-3,16.8-6.8,27.4-11.7
						l3.3,7.3C342.2,425.8,333.1,429.7,325.1,432.8z M971.2,431.8c-3.6-9.3-7.6-18.4-12-27.1l7.2-3.6c4.5,8.9,8.6,18.2,12.3,27.7
						L971.2,431.8z M181,408.1c-7.6-6-15.2-12.8-22.7-20.3l5.6-5.7c7.3,7.3,14.7,13.9,22,19.6L181,408.1z M380.2,408l-3.5-7.2
						c8.9-4.3,18.2-8.9,26.9-13.2l3.6,7.2C398.4,399,389.2,403.6,380.2,408z M434.1,381.4l-3.5-7.2c10.2-5,18.8-9.2,27-13.2l3.5,7.2
						C452.8,372.2,444.2,376.4,434.1,381.4z M944.6,379c-5.4-8.4-11.2-16.5-17.3-23.9l6.2-5.1c6.3,7.7,12.3,16,17.9,24.7L944.6,379z
						 M137.8,365.5c-6.2-7.4-12.5-15.4-18.7-23.8l6.5-4.7c6.1,8.3,12.2,16.2,18.3,23.4L137.8,365.5z M488.2,355.4l-3.4-7.3
						c9.4-4.4,18.6-8.5,27.4-12.4l3.2,7.3C506.7,346.9,497.5,351.1,488.2,355.4z M907.2,333.6c-7.2-6.8-14.9-13-22.8-18.5l4.6-6.6
						c8.2,5.7,16.2,12.2,23.7,19.2L907.2,333.6z M543,331.4l-3-7.4c9.5-3.9,18.9-7.6,28-11.1l2.8,7.5
						C561.8,323.8,552.4,327.5,543,331.4z M101.9,316.8c-1.5-2.2-2.9-4.4-4.3-6.7c-3.5-5.5-7.1-12.2-10.6-20l7.3-3.3
						c3.4,7.4,6.8,13.8,10.1,19c1.4,2.2,2.8,4.4,4.3,6.6L101.9,316.8z M598.9,310.2l-2.6-7.6c9.7-3.3,19.4-6.4,28.8-9.2l2.3,7.7
						C618.1,303.9,608.5,307,598.9,310.2z M859.2,300.2c-8.7-4.3-17.9-7.9-27.3-10.8l2.4-7.6c9.7,3,19.3,6.8,28.4,11.3L859.2,300.2z
						 M656.1,293.4l-1.9-7.8c10-2.5,19.9-4.6,29.5-6.4l1.5,7.9C675.8,288.8,666,290.9,656.1,293.4z M803.3,282.9
						c-9.5-1.4-19.4-2.4-29.4-2.8l0.4-8c10.3,0.5,20.5,1.4,30.3,2.9L803.3,282.9z M714.6,282.5l-1-7.9c10.2-1.2,20.4-2.1,30.2-2.5
						l0.3,8C734.6,280.5,724.7,281.3,714.6,282.5z M75.7,261.9c-3.1-8.7-6.2-18.4-9.3-28.8l7.7-2.3c3.1,10.2,6.2,19.8,9.2,28.4
						L75.7,261.9z M58.2,204.1c-2.4-9.3-4.9-19.1-7.3-29.2l7.8-1.8c2.4,10.1,4.8,19.8,7.2,29.1L58.2,204.1z M44.3,145.4
						c-2-9.5-4.1-19.4-6.1-29.5l7.8-1.5c2,10,4,19.9,6,29.4L44.3,145.4z M32.7,86.4c-1.8-9.7-3.5-19.7-5.2-29.6l7.9-1.3
						c1.7,10,3.4,19.9,5.2,29.5L32.7,86.4z M22.7,27c-1.5-9.8-3-19.8-4.4-29.8l7.9-1.1c1.4,9.9,2.9,19.9,4.4,29.7L22.7,27z"/>
				</g>
			</g>
		</g>
	</g>
</g>
</svg>
