<?xml version="1.0" encoding="utf-8"?>
<!-- Generator: Adobe Illustrator 24.1.0, SVG Export Plug-In . SVG Version: 6.00 Build 0)  -->
<svg version="1.1" id="Layer_1" xmlns="http://www.w3.org/2000/svg" xmlns:xlink="http://www.w3.org/1999/xlink" x="0px" y="0px"
	 viewBox="0 0 1322 310" style="enable-background:new 0 0 1322 310;" xml:space="preserve">
<style type="text/css">
	.st0{opacity:0.4;}
	.st1{fill:#B5997B;}
</style>
<desc>Created with Sketch.</desc>
<g class="st0">
	<path class="st1" d="M394.3,84c-6.9,2.4-13.8,4.7-20.7,6.8l1.7,5.7c7-2.1,14-4.4,21-6.9L394.3,84z"/>
	<path class="st1" d="M536.2,28.3c-7.6,1.3-14.9,2.9-21.7,4.6l1.5,5.8c6.6-1.7,13.8-3.2,21.3-4.5L536.2,28.3z"/>
	<path class="st1" d="M296.1,106.8c-7.2,0.8-14.5,1.4-21.7,1.8l0.3,6c7.3-0.4,14.7-1,22-1.8L296.1,106.8z"/>
	<path class="st1" d="M345.8,98.3c-7.1,1.6-14.2,3.1-21.3,4.4l1.1,5.9c7.2-1.3,14.5-2.8,21.6-4.5L345.8,98.3z"/>
	<path class="st1" d="M441,64.6c-6.6,3.1-13.3,6.1-19.9,8.9l2.3,5.5c6.7-2.8,13.4-5.9,20.1-9L441,64.6z"/>
	<path class="st1" d="M488.9,47.5l-2.3-5.6c-5.6,2.3-10.9,4.8-15.8,7.5c-1.4,0.8-2.8,1.5-4.2,2.2l2.8,5.3c1.4-0.7,2.8-1.5,4.2-2.3
		C478.4,52.1,483.5,49.7,488.9,47.5z"/>
	<path class="st1" d="M223.9,108.3l-0.4,6c7.4,0.5,14.8,0.7,22.1,0.8l0.1-6C238.5,109,231.1,108.8,223.9,108.3z"/>
	<path class="st1" d="M36.6,46.4l-4.2,4.3c5.3,5.3,11,10.2,16.8,14.6l3.6-4.8C47.2,56.2,41.8,51.5,36.6,46.4z"/>
	<path class="st1" d="M173.7,102.5l-1,5.9c7.3,1.2,14.7,2.3,21.8,3.2l0.7-6C188.2,104.7,180.9,103.7,173.7,102.5z"/>
	<path class="st1" d="M6.3,6.7l-5.2,3C4.9,16.2,9,22.5,13.3,28.4l4.8-3.5C14,19.1,10,13,6.3,6.7z"/>
	<path class="st1" d="M124.1,92l-1.5,5.8c7.2,1.8,14.4,3.5,21.4,5.1l1.3-5.9C138.5,95.5,131.3,93.8,124.1,92z"/>
	<path class="st1" d="M76.8,75.6L74.1,81c6.6,3.4,13.5,6.3,20.5,8.8l2-5.7C89.8,81.7,83.2,78.8,76.8,75.6z"/>
	<path class="st1" d="M1293.9,187l-5.4,2.7c3.2,6.5,6.2,13.2,8.9,19.8l5.6-2.2C1300.2,200.5,1297.2,193.7,1293.9,187z"/>
	<path class="st1" d="M587.2,22.6c-7.7,0.5-15.1,1.1-22,1.8l0.6,6c6.8-0.7,14.2-1.3,21.8-1.8L587.2,22.6z"/>
	<path class="st1" d="M1219.8,1.2c-0.8,6.5-1.1,13.2-1.1,19.7c0,0.8,0,1.7,0,2.5l6-0.1c0-0.8,0-1.6,0-2.4c0-6.3,0.4-12.7,1.1-19.1
		L1219.8,1.2z"/>
	<path class="st1" d="M1226.9,74.4l5.7-1.7c-2.1-7-3.8-14-5.1-21l-5.9,1.1C1222.9,59.9,1224.7,67.1,1226.9,74.4z"/>
	<path class="st1" d="M1279.7,161.5c-3-4.8-6.2-9.7-9.5-14.4c-0.9-1.3-1.8-2.6-2.7-4l-5,3.4c0.9,1.3,1.8,2.7,2.8,4
		c3.2,4.6,6.4,9.4,9.3,14.2L1279.7,161.5z"/>
	<path class="st1" d="M1320.9,285.6l-6,0.3c0.2,4.3,0.4,8.6,0.4,12.8c0,2.9-0.1,5.9-0.2,8.8l6,0.2v-17.6
		C1321,288.7,1321,287.2,1320.9,285.6z"/>
	<path class="st1" d="M1312.3,234.9l-5.8,1.6c1.9,7,3.6,14.1,4.9,21.1l5.9-1.1C1316,249.4,1314.3,242.1,1312.3,234.9z"/>
	<path class="st1" d="M1242.7,99.3l-5.5,2.5c3,6.5,6.3,13.2,10,19.8l5.2-2.9C1248.9,112.2,1245.6,105.7,1242.7,99.3z"/>
	<path class="st1" d="M689.2,26.7v-6c-5,0-10,0-15.1,0h-6.9v6h6.9C679.2,26.7,684.2,26.7,689.2,26.7z"/>
	<path class="st1" d="M638.2,20.9c-8,0.1-15.2,0.2-22,0.4l0.2,6c6.8-0.2,13.9-0.3,21.9-0.4L638.2,20.9z"/>
	<path class="st1" d="M837.8,0.5c-5.7,3.1-12.3,5.9-19.7,8.2l1.8,5.7c7.7-2.4,14.7-5.3,20.7-8.6L837.8,0.5z"/>
	<path class="st1" d="M790.3,15.1c-6.6,1.1-13.9,2-21.6,2.7l0.6,6c7.8-0.8,15.2-1.7,22-2.8L790.3,15.1z"/>
	<path class="st1" d="M740,19.7c-6.7,0.3-13.9,0.5-21.9,0.7l0.1,6c8-0.2,15.2-0.4,22-0.7L740,19.7z"/>
</g>
</svg>
