<?xml version="1.0" encoding="UTF-8"?>
<svg width="288px" height="250px" viewBox="0 0 288 250" version="1.1" xmlns="http://www.w3.org/2000/svg" xmlns:xlink="http://www.w3.org/1999/xlink">
    <!-- Generator: Sketch 61.2 (89653) - https://sketch.com -->
    <title>Fill 1</title>
    <desc>Created with Sketch.</desc>
    <g id="Page-1" stroke="none" stroke-width="1" fill="none" fill-rule="evenodd" opacity="0.2">
        <g id="00a.-Homepage" transform="translate(0.000000, -198.000000)" fill="#FFFFFF">
            <g id="Top" transform="translate(-146.000000, -159.000000)">
                <g id="B-intro">
                    <g id="B-Pattern">
                        <g id="Group-3" transform="translate(146.000000, 357.000000)">
                            <path d="M187.467956,172.273596 C211.637391,160.6343 221.812675,131.542319 210.15548,107.409996 C200.847778,88.1446953 180.409448,78.0175815 160.249446,80.5387196 L134.35237,63.020941 L134.620668,62.878235 C170.931238,45.3930034 214.55357,60.602451 232.065691,96.8572677 C249.58032,133.109581 234.347482,176.664932 198.036912,194.152668 C161.728849,211.637899 118.10401,196.428452 100.591889,160.176139 C94.8623364,148.316525 92.7034108,135.683295 93.5684855,123.440628 L119.305085,140.848248 C120.089921,143.812525 121.120488,146.756774 122.504607,149.623411 C134.161802,173.755734 163.298521,183.912891 187.467956,172.273596 M144.417326,139.068179 C150.257207,151.158125 164.802999,156.22043 176.899,150.394523 C188.995001,144.568617 194.080136,130.050166 188.242762,117.962724 C182.402881,105.875281 167.854581,100.810472 155.761088,106.636379 L155.605625,106.739027 L116.484189,80.2708331 C105.137919,72.5747274 98.5132023,52.4632059 98.6160083,38.8360415 L41.190093,-5.68434189e-14 L40.6886004,42.8242967 L-5.68434189e-14,60.1417863 L57.5788705,99.092994 C70.2315283,93.9430625 91.4346346,92.6862488 102.75583,100.327275 L142.150579,126.970722 C141.897325,131.004042 142.529206,135.162543 144.417326,139.068179 M123.103891,41.5249216 L124.051712,40.9991629 C172.380552,17.7255785 230.669034,38.0499071 253.978409,86.3020362 C277.290292,134.556669 256.934708,192.755652 208.605868,216.03174 C160.279536,239.305324 101.991053,218.983499 78.6791708,170.728867 C70.8834687,154.593082 68.0726028,137.365723 69.4517073,120.681647 C61.2673484,120.118334 50.2746311,124.146647 44.7958247,130.585939 C45.0816754,147.643053 48.8554071,164.905463 56.7664525,181.281594 C85.9533207,241.701282 158.66473,267.052865 219.174824,237.910812 C279.687427,208.768759 305.080503,136.168996 275.891128,75.7493084 C248.236319,18.5042021 181.520254,-7.1878723 123.111413,15.0642381 C119.407891,20.9051667 117.118577,32.3241446 123.103891,41.5249216" id="Fill-1"></path>
                        </g>
                    </g>
                </g>
            </g>
        </g>
    </g>
</svg>